<svg width="136" height="122" viewBox="0 0 136 122" fill="none" xmlns="http://www.w3.org/2000/svg">
<g filter="url(#filter0_d_1426_10823)">
<path d="M125.896 42.1847L121.414 39.7567L124.359 39.3106C125.563 39.1276 126.381 38.0648 126.187 36.9354C125.993 35.8059 124.859 35.0395 123.655 35.2202L115.359 36.4769L103.402 29.9996L115.334 23.5363L123.629 24.7929C123.748 24.8108 123.866 24.8193 123.984 24.8193C125.048 24.8193 125.985 24.0956 126.16 23.0786C126.355 21.9491 125.536 20.8856 124.332 20.7033L121.388 20.2573L125.869 17.83C126.924 17.2583 127.287 15.9908 126.676 15.001C126.067 14.0104 124.716 13.6698 123.66 14.2431L119.179 16.6703L120.24 14.0538C120.673 12.9841 120.101 11.7879 118.961 11.3814C117.822 10.975 116.546 11.5118 116.113 12.5807L113.125 19.9493L101.194 26.4127V13.4852L106.502 7.37404C107.272 6.48661 107.13 5.18184 106.185 4.45964C105.24 3.73589 103.849 3.86932 103.079 4.75597L101.195 6.92567V2.07119C101.195 0.926991 100.206 0 98.9875 0C97.768 0 96.78 0.926991 96.78 2.07119V6.92567L94.8957 4.75597C94.126 3.86854 92.7345 3.73589 91.7895 4.45964C90.8428 5.18184 90.7015 6.48661 91.4712 7.37404L96.7783 13.4852V26.4119L84.7676 19.9059L81.7805 12.5373C81.3464 11.4675 80.0707 10.9307 78.9322 11.338C77.7921 11.7445 77.22 12.9406 77.6532 14.0104L78.714 16.6269L74.3386 14.2563C73.2828 13.683 71.9327 14.0243 71.3225 15.0142C70.7132 16.0048 71.0745 17.2715 72.1303 17.8432L76.5064 20.2138L73.5606 20.6599C72.3568 20.843 71.5383 21.9057 71.7334 23.0352C71.9087 24.0529 72.8463 24.7759 73.9103 24.7759C74.0269 24.7759 74.146 24.7673 74.265 24.7495L82.5601 23.4921L94.5716 29.9988L82.5345 36.5196L74.2386 35.2629C73.0356 35.0806 71.9021 35.8486 71.707 36.978C71.5127 38.1075 72.3312 39.171 73.535 39.3533L76.48 39.7993L72.1038 42.17C71.048 42.7424 70.6867 44.0092 71.2961 44.9998C71.7053 45.6646 72.4469 46.0362 73.2101 46.0362C73.5846 46.0362 73.9641 45.9462 74.3122 45.7577L78.6875 43.3879L77.6267 46.0044C77.1935 47.0741 77.7656 48.2703 78.9058 48.6767C79.1645 48.7691 79.4291 48.8133 79.6904 48.8133C80.5808 48.8133 81.4192 48.3044 81.7549 47.4775L84.742 40.1089L96.7791 33.5881V46.6288L91.472 52.74C90.7023 53.6274 90.8437 54.9322 91.7887 55.6544C92.1979 55.9678 92.6915 56.1206 93.1818 56.1206C93.8226 56.1206 94.4584 55.86 94.8949 55.3581L96.7791 53.1884V57.9288C96.7791 59.073 97.768 60 98.9866 60C100.206 60 101.194 59.073 101.194 57.9288V53.1884L103.079 55.3581C103.85 56.2439 105.24 56.3781 106.185 55.6544C107.131 54.9322 107.273 53.6274 106.502 52.74L101.194 46.6288V33.5873L113.153 40.0654L116.14 47.434C116.476 48.2617 117.314 48.7698 118.204 48.7698C118.466 48.7698 118.731 48.7256 118.989 48.6333C120.129 48.2268 120.701 47.0307 120.268 45.9609L119.207 43.3444L123.688 45.7717C124.036 45.9602 124.416 46.0501 124.791 46.0501C125.554 46.0501 126.296 45.6778 126.705 45.0138C127.313 44.0239 126.952 42.7564 125.896 42.1847Z" fill="url(#paint0_linear_1426_10823)"/>
</g>
<g filter="url(#filter1_d_1426_10823)">
<path d="M69.2705 85.4201L66.3092 83.8418L68.255 83.5519C69.0504 83.4329 69.5912 82.7421 69.4628 82.008C69.3344 81.2738 68.5855 80.7757 67.7901 80.8932L62.3089 81.71L54.4082 77.4997L62.292 73.2986L67.7727 74.1154C67.8513 74.127 67.9294 74.1326 68.007 74.1326C68.7101 74.1326 69.3295 73.6621 69.4453 73.0011C69.5737 72.2669 69.0329 71.5757 68.2375 71.4572L66.2923 71.1672L69.2525 69.5895C69.9501 69.2179 70.1893 68.394 69.7862 67.7506C69.3836 67.1067 68.491 66.8854 67.7934 67.258L64.8327 68.8357L65.5335 67.135C65.8198 66.4397 65.4417 65.6621 64.6884 65.3979C63.9362 65.1337 63.0928 65.4826 62.8065 66.1775L60.8329 70.9671L52.9497 75.1682V66.7654L56.4567 62.7931C56.9653 62.2163 56.8719 61.3682 56.2475 60.8988C55.6226 60.4283 54.7038 60.5151 54.1952 61.0914L52.9503 62.5017V59.3463C52.9503 58.6025 52.2969 58 51.4917 58C50.686 58 50.0332 58.6025 50.0332 59.3463V62.5017L48.7882 61.0914C48.2797 60.5146 47.3603 60.4283 46.7359 60.8988C46.1104 61.3682 46.017 62.2163 46.5256 62.7931L50.0321 66.7654V75.1677L42.0965 70.9388L40.1228 66.1492C39.836 65.4539 38.9931 65.105 38.2409 65.3697C37.4876 65.6339 37.1096 66.4114 37.3959 67.1067L38.0967 68.8075L35.2059 67.2666C34.5083 66.894 33.6162 67.1158 33.2131 67.7592C32.8105 68.4031 33.0492 69.2265 33.7468 69.5981L36.6382 71.139L34.6918 71.4289C33.8965 71.5479 33.3557 72.2387 33.4846 72.9729C33.6004 73.6344 34.2199 74.1043 34.9229 74.1043C34.9999 74.1043 35.0786 74.0988 35.1573 74.0872L40.638 73.2698L48.5741 77.4992L40.621 81.7377L35.1398 80.9209C34.345 80.8024 33.596 81.3016 33.4671 82.0357C33.3387 82.7699 33.8795 83.4612 34.6749 83.5796L36.6207 83.8696L33.7293 85.4105C33.0317 85.7826 32.793 86.606 33.1956 87.2499C33.466 87.682 33.956 87.9235 34.4602 87.9235C34.7077 87.9235 34.9584 87.865 35.1884 87.7425L38.0792 86.2021L37.3784 87.9028C37.0921 88.5982 37.4701 89.3757 38.2235 89.6399C38.3944 89.6999 38.5692 89.7286 38.7419 89.7286C39.3302 89.7286 39.8841 89.3979 40.1059 88.8604L42.0795 84.0708L50.0326 79.8323V88.3087L46.5262 92.281C46.0176 92.8578 46.111 93.7059 46.7354 94.1754C47.0058 94.3791 47.3319 94.4784 47.6558 94.4784C48.0792 94.4784 48.4993 94.309 48.7877 93.9827L50.0326 92.5724V95.6537C50.0326 96.3975 50.686 97 51.4912 97C52.2969 97 52.9497 96.3975 52.9497 95.6537V92.5724L54.1952 93.9827C54.7043 94.5586 55.6226 94.6458 56.2475 94.1754C56.8725 93.7059 56.9659 92.8578 56.4567 92.281L52.9497 88.3087V79.8318L60.8509 84.0425L62.8246 88.8321C63.0464 89.3701 63.6003 89.7004 64.1886 89.7004C64.3612 89.7004 64.5366 89.6716 64.707 89.6116C65.4603 89.3474 65.8383 88.5699 65.5521 87.8746L64.8512 86.1739L67.812 87.7516C68.042 87.8741 68.2927 87.9326 68.5402 87.9326C69.0444 87.9326 69.5349 87.6906 69.8048 87.259C70.2068 86.6156 69.9681 85.7917 69.2705 85.4201Z" fill="url(#paint1_linear_1426_10823)"/>
</g>
<g filter="url(#filter2_d_1426_10823)">
<path d="M49.6451 39.3585L48.2045 38.5896L49.1511 38.4484C49.538 38.3904 49.8011 38.0539 49.7387 37.6962C49.6762 37.3385 49.3119 37.0958 48.9249 37.1531L46.2584 37.551L42.4148 35.4999L46.2501 33.4532L48.9164 33.8511C48.9547 33.8567 48.9927 33.8595 49.0304 33.8595C49.3725 33.8595 49.6738 33.6303 49.7302 33.3082C49.7926 32.9506 49.5295 32.6138 49.1426 32.5561L48.1962 32.4148L49.6363 31.6462C49.9757 31.4651 50.0921 31.0638 49.896 30.7503C49.7001 30.4366 49.2659 30.3288 48.9265 30.5103L47.4862 31.2789L47.8271 30.4504C47.9664 30.1116 47.7825 29.7328 47.416 29.6041C47.0501 29.4754 46.6397 29.6454 46.5005 29.9839L45.5403 32.3173L41.7053 34.364V30.2703L43.4114 28.3351C43.6588 28.0541 43.6134 27.6409 43.3096 27.4122C43.0056 27.183 42.5586 27.2253 42.3112 27.5061L41.7055 28.1931V26.6559C41.7055 26.2935 41.3877 26 40.996 26C40.604 26 40.2864 26.2935 40.2864 26.6559V28.1931L39.6808 27.5061C39.4334 27.225 38.9861 27.183 38.6823 27.4122C38.3781 27.6409 38.3326 28.0541 38.58 28.3351L40.2859 30.2703V34.3638L36.4253 32.3035L35.4652 29.9701C35.3256 29.6314 34.9156 29.4614 34.5496 29.5904C34.1832 29.7191 33.9993 30.0979 34.1385 30.4366L34.4795 31.2652L33.0731 30.5145C32.7338 30.333 32.2998 30.441 32.1037 30.7545C31.9078 31.0682 32.0239 31.4693 32.3633 31.6504L33.7699 32.401L32.8231 32.5423C32.4361 32.6003 32.173 32.9368 32.2357 33.2945C32.2921 33.6168 32.5934 33.8457 32.9355 33.8457C32.9729 33.8457 33.0112 33.843 33.0495 33.8373L35.7158 33.4392L39.5766 35.4996L35.7075 37.5645L33.041 37.1666C32.6543 37.1089 32.29 37.3521 32.2272 37.7097C32.1648 38.0674 32.4279 38.4042 32.8148 38.4619L33.7614 38.6031L32.3548 39.3538C32.0154 39.5351 31.8993 39.9362 32.0952 40.2499C32.2267 40.4605 32.4651 40.5781 32.7104 40.5781C32.8308 40.5781 32.9527 40.5496 33.0646 40.4899L34.471 39.7395L34.13 40.5681C33.9908 40.9068 34.1747 41.2856 34.5411 41.4143C34.6243 41.4435 34.7094 41.4575 34.7933 41.4575C35.0796 41.4575 35.349 41.2964 35.4569 41.0345L36.4171 38.7011L40.2862 36.6362V40.7658L38.5803 42.701C38.3329 42.982 38.3783 43.3952 38.6821 43.6239C38.8136 43.7231 38.9723 43.7715 39.1299 43.7715C39.3358 43.7715 39.5402 43.689 39.6805 43.5301L40.2862 42.843V44.3441C40.2862 44.7065 40.604 45 40.9957 45C41.3877 45 41.7053 44.7065 41.7053 44.3441V42.843L42.3112 43.5301C42.5589 43.8106 43.0056 43.8531 43.3096 43.6239C43.6136 43.3952 43.6591 42.982 43.4114 42.701L41.7053 40.7658V36.636L45.5491 38.6874L46.5093 41.0208C46.6171 41.2829 46.8866 41.4438 47.1728 41.4438C47.2568 41.4438 47.3421 41.4298 47.425 41.4005C47.7915 41.2718 47.9754 40.893 47.8362 40.5543L47.4952 39.7257L48.9356 40.4944C49.0474 40.554 49.1694 40.5825 49.2898 40.5825C49.5351 40.5825 49.7737 40.4646 49.905 40.2544C50.1006 39.9409 49.9845 39.5395 49.6451 39.3585Z" fill="url(#paint2_linear_1426_10823)"/>
</g>
<g filter="url(#filter3_d_1426_10823)">
<path d="M126.566 78.1708L124.805 77.2401L125.962 77.0691C126.435 76.9989 126.757 76.5915 126.681 76.1586C126.604 75.7256 126.159 75.4318 125.686 75.5011L122.427 75.9828L117.729 73.4999L122.417 71.0222L125.676 71.504C125.722 71.5108 125.769 71.5141 125.815 71.5141C126.233 71.5141 126.601 71.2366 126.67 70.8468C126.747 70.4138 126.425 70.0062 125.952 69.9363L124.795 69.7653L126.556 68.8348C126.97 68.6157 127.113 68.1298 126.873 67.7504C126.633 67.3706 126.103 67.2401 125.688 67.4599L123.928 68.3903L124.344 67.3873C124.514 66.9772 124.29 66.5187 123.842 66.3629C123.395 66.2071 122.893 66.4128 122.723 66.8226L121.549 69.6472L116.862 72.1249V67.1693L118.947 64.8267C119.25 64.4865 119.194 63.9864 118.823 63.7095C118.451 63.4321 117.905 63.4832 117.603 63.8231L116.862 64.6548V62.794C116.862 62.3553 116.474 62 115.995 62C115.516 62 115.128 62.3553 115.128 62.794V64.6548L114.388 63.8231C114.085 63.4829 113.539 63.4321 113.167 63.7095C112.795 63.9864 112.74 64.4865 113.042 64.8267L115.127 67.1693V72.1246L110.409 69.6306L109.235 66.806C109.065 66.3959 108.563 66.1901 108.116 66.3462C107.668 66.502 107.444 66.9606 107.614 67.3706L108.03 68.3736L106.312 67.4649C105.897 67.2452 105.366 67.376 105.127 67.7554C104.887 68.1352 105.029 68.6207 105.444 68.8399L107.163 69.7486L106.006 69.9196C105.533 69.9898 105.211 70.3972 105.288 70.8301C105.357 71.2203 105.725 71.4974 106.143 71.4974C106.189 71.4974 106.236 71.4941 106.283 71.4873L109.541 71.0053L114.26 73.4996L109.531 75.9992L106.272 75.5174C105.8 75.4476 105.354 75.742 105.278 76.1749C105.201 76.6079 105.523 77.0156 105.996 77.0854L107.153 77.2564L105.434 78.1652C105.019 78.3846 104.877 78.8702 105.116 79.2499C105.277 79.5048 105.568 79.6472 105.868 79.6472C106.015 79.6472 106.164 79.6127 106.301 79.5404L108.02 78.632L107.603 79.635C107.433 80.0451 107.658 80.5036 108.106 80.6594C108.208 80.6948 108.311 80.7118 108.414 80.7118C108.764 80.7118 109.093 80.5167 109.225 80.1997L110.399 77.3751L115.128 74.8754V79.8744L113.043 82.217C112.74 82.5572 112.796 83.0573 113.167 83.3342C113.328 83.4543 113.522 83.5129 113.714 83.5129C113.966 83.5129 114.216 83.413 114.387 83.2206L115.128 82.3889V84.206C115.128 84.6447 115.516 85 115.995 85C116.474 85 116.862 84.6447 116.862 84.206V82.3889L117.603 83.2206C117.905 83.5602 118.451 83.6116 118.823 83.3342C119.194 83.0573 119.25 82.5572 118.947 82.217L116.862 79.8744V74.8751L121.56 77.3584L122.734 80.183C122.865 80.5003 123.195 80.6951 123.545 80.6951C123.647 80.6951 123.751 80.6782 123.853 80.6428C124.301 80.4869 124.525 80.0284 124.355 79.6184L123.939 78.6154L125.699 79.5458C125.836 79.6181 125.985 79.6526 126.132 79.6526C126.432 79.6526 126.723 79.5098 126.884 79.2553C127.123 78.8758 126.981 78.39 126.566 78.1708Z" fill="url(#paint3_linear_1426_10823)"/>
</g>
<g filter="url(#filter4_d_1426_10823)">
<path d="M99.7043 96.2493L98.5037 95.6018L99.2926 95.4828C99.615 95.434 99.8343 95.1506 99.7822 94.8494C99.7302 94.5482 99.4266 94.3439 99.1041 94.3921L96.882 94.7272L93.679 92.9999L96.8751 91.2763L99.097 91.6115C99.1289 91.6162 99.1606 91.6185 99.192 91.6185C99.477 91.6185 99.7282 91.4255 99.7751 91.1543C99.8272 90.8531 99.6079 90.5695 99.2855 90.5209L98.4969 90.4019L99.697 89.7547C99.9798 89.6022 100.077 89.2642 99.9133 89.0003C99.7501 88.7361 99.3882 88.6453 99.1054 88.7982L97.9051 89.4454L98.1893 88.7477C98.3053 88.4624 98.1521 88.1434 97.8467 88.0351C97.5417 87.9267 97.1998 88.0698 97.0837 88.3549L96.2836 90.3198L93.0877 92.0434V88.5961L94.5095 86.9664C94.7157 86.7298 94.6778 86.3818 94.4247 86.1892C94.1713 85.9962 93.7988 86.0318 93.5926 86.2683L93.0879 86.8468V85.5523C93.0879 85.2472 92.8231 85 92.4966 85C92.17 85 91.9053 85.2472 91.9053 85.5523V86.8468L91.4006 86.2683C91.1945 86.0316 90.8217 85.9962 90.5686 86.1892C90.315 86.3818 90.2772 86.7298 90.4834 86.9664L91.9049 88.5961V92.0432L88.6878 90.3082L87.8876 88.3433C87.7714 88.058 87.4297 87.9149 87.1247 88.0235C86.8193 88.1319 86.6661 88.4508 86.7821 88.7361L87.0662 89.4338L85.8943 88.8017C85.6115 88.6488 85.2498 88.7398 85.0864 89.0038C84.9232 89.2679 85.02 89.6057 85.3028 89.7582L86.4749 90.3904L85.6859 90.5093C85.3634 90.5581 85.1442 90.8415 85.1965 91.1427C85.2434 91.4141 85.4945 91.6069 85.7796 91.6069C85.8108 91.6069 85.8427 91.6046 85.8746 91.5999L88.0965 91.2645L91.3138 92.9997L88.0896 94.7386L85.8675 94.4034C85.5453 94.3548 85.2416 94.5596 85.1894 94.8608C85.1373 95.162 85.3566 95.4456 85.679 95.4942L86.4679 95.6132L85.2957 96.2453C85.0129 96.398 84.9161 96.7358 85.0793 96.9999C85.1889 97.1772 85.3876 97.2763 85.592 97.2763C85.6923 97.2763 85.794 97.2523 85.8872 97.2021L87.0592 96.5701L86.775 97.2678C86.659 97.5531 86.8122 97.8721 87.1176 97.9805C87.1869 98.0051 87.2578 98.0169 87.3278 98.0169C87.5663 98.0169 87.7909 97.8812 87.8808 97.6607L88.6809 95.6957L91.9051 93.9568V97.4344L90.4836 99.064C90.2774 99.3006 90.3153 99.6486 90.5684 99.8412C90.678 99.9247 90.8102 99.9655 90.9416 99.9655C91.1132 99.9655 91.2835 99.896 91.4004 99.7622L91.9051 99.1836V100.448C91.9051 100.753 92.17 101 92.4964 101C92.8231 101 93.0877 100.753 93.0877 100.448V99.1836L93.5926 99.7622C93.799 99.9984 94.1713 100.034 94.4247 99.8412C94.678 99.6486 94.7159 99.3006 94.5095 99.064L93.0877 97.4344V93.9566L96.2909 95.6841L97.091 97.6491C97.181 97.8698 97.4055 98.0053 97.644 98.0053C97.714 98.0053 97.7851 97.9935 97.8542 97.9689C98.1596 97.8605 98.3128 97.5415 98.1968 97.2562L97.9127 96.5585L99.113 97.2058C99.2062 97.256 99.3079 97.28 99.4082 97.28C99.6126 97.28 99.8115 97.1807 99.9209 97.0037C100.084 96.7397 99.9871 96.4017 99.7043 96.2493Z" fill="url(#paint4_linear_1426_10823)"/>
</g>
<defs>
<filter id="filter0_d_1426_10823" x="61" y="0" width="66" height="70" filterUnits="userSpaceOnUse" color-interpolation-filters="sRGB">
<feFlood flood-opacity="0" result="BackgroundImageFix"/>
<feColorMatrix in="SourceAlpha" type="matrix" values="0 0 0 0 0 0 0 0 0 0 0 0 0 0 0 0 0 0 127 0" result="hardAlpha"/>
<feOffset dx="-6" dy="6"/>
<feGaussianBlur stdDeviation="2"/>
<feComposite in2="hardAlpha" operator="out"/>
<feColorMatrix type="matrix" values="0 0 0 0 0 0 0 0 0 0 0 0 0 0 0 0 0 0 0.05 0"/>
<feBlend mode="normal" in2="BackgroundImageFix" result="effect1_dropShadow_1426_10823"/>
<feBlend mode="normal" in="SourceGraphic" in2="effect1_dropShadow_1426_10823" result="shape"/>
</filter>
<filter id="filter1_d_1426_10823" x="25" y="58" width="45" height="49" filterUnits="userSpaceOnUse" color-interpolation-filters="sRGB">
<feFlood flood-opacity="0" result="BackgroundImageFix"/>
<feColorMatrix in="SourceAlpha" type="matrix" values="0 0 0 0 0 0 0 0 0 0 0 0 0 0 0 0 0 0 127 0" result="hardAlpha"/>
<feOffset dx="-4" dy="6"/>
<feGaussianBlur stdDeviation="2"/>
<feComposite in2="hardAlpha" operator="out"/>
<feColorMatrix type="matrix" values="0 0 0 0 0 0 0 0 0 0 0 0 0 0 0 0 0 0 0.05 0"/>
<feBlend mode="normal" in2="BackgroundImageFix" result="effect1_dropShadow_1426_10823"/>
<feBlend mode="normal" in="SourceGraphic" in2="effect1_dropShadow_1426_10823" result="shape"/>
</filter>
<filter id="filter2_d_1426_10823" x="24" y="26" width="26" height="27" filterUnits="userSpaceOnUse" color-interpolation-filters="sRGB">
<feFlood flood-opacity="0" result="BackgroundImageFix"/>
<feColorMatrix in="SourceAlpha" type="matrix" values="0 0 0 0 0 0 0 0 0 0 0 0 0 0 0 0 0 0 127 0" result="hardAlpha"/>
<feOffset dx="-4" dy="4"/>
<feGaussianBlur stdDeviation="2"/>
<feComposite in2="hardAlpha" operator="out"/>
<feColorMatrix type="matrix" values="0 0 0 0 0 0 0 0 0 0 0 0 0 0 0 0 0 0 0.05 0"/>
<feBlend mode="normal" in2="BackgroundImageFix" result="effect1_dropShadow_1426_10823"/>
<feBlend mode="normal" in="SourceGraphic" in2="effect1_dropShadow_1426_10823" result="shape"/>
</filter>
<filter id="filter3_d_1426_10823" x="97" y="62" width="30" height="31" filterUnits="userSpaceOnUse" color-interpolation-filters="sRGB">
<feFlood flood-opacity="0" result="BackgroundImageFix"/>
<feColorMatrix in="SourceAlpha" type="matrix" values="0 0 0 0 0 0 0 0 0 0 0 0 0 0 0 0 0 0 127 0" result="hardAlpha"/>
<feOffset dx="-4" dy="4"/>
<feGaussianBlur stdDeviation="2"/>
<feComposite in2="hardAlpha" operator="out"/>
<feColorMatrix type="matrix" values="0 0 0 0 0 0 0 0 0 0 0 0 0 0 0 0 0 0 0.05 0"/>
<feBlend mode="normal" in2="BackgroundImageFix" result="effect1_dropShadow_1426_10823"/>
<feBlend mode="normal" in="SourceGraphic" in2="effect1_dropShadow_1426_10823" result="shape"/>
</filter>
<filter id="filter4_d_1426_10823" x="77" y="85" width="23" height="24" filterUnits="userSpaceOnUse" color-interpolation-filters="sRGB">
<feFlood flood-opacity="0" result="BackgroundImageFix"/>
<feColorMatrix in="SourceAlpha" type="matrix" values="0 0 0 0 0 0 0 0 0 0 0 0 0 0 0 0 0 0 127 0" result="hardAlpha"/>
<feOffset dx="-4" dy="4"/>
<feGaussianBlur stdDeviation="2"/>
<feComposite in2="hardAlpha" operator="out"/>
<feColorMatrix type="matrix" values="0 0 0 0 0 0 0 0 0 0 0 0 0 0 0 0 0 0 0.05 0"/>
<feBlend mode="normal" in2="BackgroundImageFix" result="effect1_dropShadow_1426_10823"/>
<feBlend mode="normal" in="SourceGraphic" in2="effect1_dropShadow_1426_10823" result="shape"/>
</filter>
<linearGradient id="paint0_linear_1426_10823" x1="71.9804" y1="0.649569" x2="126.108" y2="67.4743" gradientUnits="userSpaceOnUse">
<stop stop-color="#5CA4EA"/>
<stop offset="1" stop-color="#386ABC"/>
</linearGradient>
<linearGradient id="paint1_linear_1426_10823" x1="33.6478" y1="58.4222" x2="68.7072" y2="102.419" gradientUnits="userSpaceOnUse">
<stop stop-color="#5CA4EA"/>
<stop offset="1" stop-color="#386ABC"/>
</linearGradient>
<linearGradient id="paint2_linear_1426_10823" x1="32.3151" y1="26.2057" x2="49.4008" y2="47.6163" gradientUnits="userSpaceOnUse">
<stop stop-color="#5CA4EA"/>
<stop offset="1" stop-color="#386ABC"/>
</linearGradient>
<linearGradient id="paint3_linear_1426_10823" x1="105.385" y1="62.249" x2="126.023" y2="88.3606" gradientUnits="userSpaceOnUse">
<stop stop-color="#5CA4EA"/>
<stop offset="1" stop-color="#386ABC"/>
</linearGradient>
<linearGradient id="paint4_linear_1426_10823" x1="85.2626" y1="85.1732" x2="99.6832" y2="103.056" gradientUnits="userSpaceOnUse">
<stop stop-color="#5CA4EA"/>
<stop offset="1" stop-color="#386ABC"/>
</linearGradient>
</defs>
</svg>
