<svg width="136" height="122" viewBox="0 0 136 122" fill="none" xmlns="http://www.w3.org/2000/svg">
<g filter="url(#filter0_d_1437_11206)">
<path opacity="0.8" d="M98.5565 43.8893C98.5565 43.8883 98.5565 43.8872 98.5565 43.8857C98.555 43.8865 98.5532 43.8868 98.5518 43.8875C98.5536 43.8883 98.555 43.8886 98.5565 43.8893Z" fill="white"/>
<path opacity="0.8" d="M78.4434 43.8893C78.4452 43.8886 78.447 43.8883 78.4484 43.8875C78.4466 43.8868 78.4452 43.8861 78.4434 43.8857C78.4434 43.8868 78.4434 43.8883 78.4434 43.8893Z" fill="white"/>
<path d="M73.4189 82.0167C73.4189 79.8841 74.2599 77.8793 75.7869 76.3714C77.3138 74.8634 79.3438 74.0328 81.5032 74.0328C82.138 74.0328 82.6526 74.541 82.6526 75.1679C82.6526 75.7948 82.138 76.3029 81.5032 76.3029C78.3131 76.3029 75.7179 78.8662 75.7179 82.0164C75.7179 85.1669 78.3134 87.7299 81.5032 87.7299C84.6931 87.7299 87.2886 85.1666 87.2886 82.0164V3.87332C87.2886 3.24646 87.8032 2.73828 88.4379 2.73828C89.0727 2.73828 89.5872 3.24646 89.5872 3.87332V82.0167C89.5872 84.1493 88.7463 86.1541 87.2193 87.6621C85.6923 89.1701 83.6623 90.0006 81.5029 90.0006C79.3435 90.0006 77.3135 89.1701 75.7865 87.6621C74.2596 86.1541 73.4189 84.149 73.4189 82.0167Z" fill="url(#paint0_linear_1437_11206)"/>
<path d="M78.4434 46.156C78.4437 25.3841 82.9461 8.5459 88.4999 8.5459C71.8424 8.5459 58.3389 25.386 58.3389 46.1596H58.3399C60.8858 45.1902 64.4506 44.5877 68.3964 44.5877C72.3372 44.5874 75.8981 45.1883 78.4434 46.156Z" fill="url(#paint1_linear_1437_11206)"/>
<path d="M88.5 8.54541C94.0538 8.54541 98.5559 25.3839 98.5565 46.1558C101.102 45.1881 104.663 44.5869 108.605 44.5869C112.55 44.5869 116.115 45.1894 118.661 46.1587H118.661C118.661 25.3855 105.158 8.54541 88.5 8.54541Z" fill="url(#paint2_linear_1437_11206)"/>
<path opacity="0.8" d="M78.4434 46.156C78.445 46.1566 78.4463 46.1573 78.448 46.1576C80.9935 45.1893 84.5564 44.5874 88.4999 44.5874C92.4437 44.5874 96.0063 45.1893 98.5522 46.1579C98.5535 46.1573 98.5551 46.157 98.5564 46.1563C98.5561 25.3844 94.0537 8.5459 88.4999 8.5459C82.9461 8.54557 78.444 25.3841 78.4434 46.156Z" fill="white"/>
<path opacity="0.8" d="M41 46.1558C43.3893 45.4793 46.3864 45.0769 49.6402 45.0769C52.8997 45.0769 55.9011 45.4806 58.2923 46.1591H58.3386C58.3386 25.3855 71.8421 8.54541 88.4997 8.54541C67.3568 8.54541 44.4824 25.0265 41 46.1558Z" fill="white"/>
<path opacity="0.8" d="M135.987 46.1591H136C132.52 25.0282 109.644 8.54541 88.5 8.54541C105.156 8.54541 118.659 25.3826 118.661 46.1536C121.055 45.4784 124.056 45.0769 127.314 45.0769C130.581 45.0769 133.59 45.4806 135.987 46.1591Z" fill="white"/>
<path d="M119.585 23.0955C119.585 27.3162 116.096 30.7379 111.792 30.7379C107.489 30.7379 104 27.3162 104 23.0955C104 20.0069 108.173 13.1827 110.412 9.74451C111.058 8.75183 112.527 8.75183 113.173 9.74451C115.412 13.1827 119.585 20.0069 119.585 23.0955Z" fill="url(#paint3_linear_1437_11206)"/>
<path d="M72.5848 15.0955C72.5848 19.3162 69.0961 22.7379 64.7924 22.7379C60.4887 22.7379 57 19.3162 57 15.0955C57 12.0069 61.173 5.18271 63.4116 1.74451C64.0578 0.751831 65.527 0.751831 66.1732 1.74451C68.4117 5.18271 72.5848 12.0069 72.5848 15.0955Z" fill="url(#paint4_linear_1437_11206)"/>
</g>
<defs>
<filter id="filter0_d_1437_11206" x="31" y="1" width="105" height="99.0005" filterUnits="userSpaceOnUse" color-interpolation-filters="sRGB">
<feFlood flood-opacity="0" result="BackgroundImageFix"/>
<feColorMatrix in="SourceAlpha" type="matrix" values="0 0 0 0 0 0 0 0 0 0 0 0 0 0 0 0 0 0 127 0" result="hardAlpha"/>
<feOffset dx="-6" dy="6"/>
<feGaussianBlur stdDeviation="2"/>
<feComposite in2="hardAlpha" operator="out"/>
<feColorMatrix type="matrix" values="0 0 0 0 0 0 0 0 0 0 0 0 0 0 0 0 0 0 0.1 0"/>
<feBlend mode="normal" in2="BackgroundImageFix" result="effect1_dropShadow_1437_11206"/>
<feBlend mode="normal" in="SourceGraphic" in2="effect1_dropShadow_1437_11206" result="shape"/>
</filter>
<linearGradient id="paint0_linear_1437_11206" x1="81.5031" y1="90.0002" x2="81.5031" y2="2.73819" gradientUnits="userSpaceOnUse">
<stop stop-color="#5393ED"/>
<stop offset="1" stop-color="#9FC4F9"/>
</linearGradient>
<linearGradient id="paint1_linear_1437_11206" x1="-1.98338" y1="27.3524" x2="178.983" y2="27.3524" gradientUnits="userSpaceOnUse">
<stop stop-color="#F5D01F"/>
<stop offset="1" stop-color="#F9D93C"/>
</linearGradient>
<linearGradient id="paint2_linear_1437_11206" x1="-1.98331" y1="27.3523" x2="178.983" y2="27.3523" gradientUnits="userSpaceOnUse">
<stop stop-color="#F5D01F"/>
<stop offset="1" stop-color="#F9D93C"/>
</linearGradient>
<linearGradient id="paint3_linear_1437_11206" x1="111.792" y1="30.7378" x2="111.792" y2="8.99989" gradientUnits="userSpaceOnUse">
<stop stop-color="#5393ED"/>
<stop offset="1" stop-color="#9FC4F9"/>
</linearGradient>
<linearGradient id="paint4_linear_1437_11206" x1="64.7926" y1="22.7378" x2="64.7926" y2="0.999918" gradientUnits="userSpaceOnUse">
<stop stop-color="#5393ED"/>
<stop offset="1" stop-color="#9FC4F9"/>
</linearGradient>
</defs>
</svg>
