<svg width="136" height="122" viewBox="0 0 136 122" fill="none" xmlns="http://www.w3.org/2000/svg">
<g filter="url(#filter0_d_1437_11024)">
<path d="M40.2907 37.785C37.5731 37.785 34.5603 37.3679 31.6674 36.1045C30.1594 35.4456 29.472 33.6906 30.1312 32.1834C30.7904 30.6762 32.5473 29.9901 34.0543 30.648C36.8313 31.863 40.5044 32.1481 44.3922 31.454C47.2236 30.9492 49.9602 30.0203 52.8572 29.037C55.3439 28.1927 57.9163 27.3192 60.6015 26.7178C66.3279 25.4342 72.5431 25.8806 79.0738 28.0446L79.8439 28.3005C85.6721 30.2409 91.1797 32.0766 95.9384 29.1327C99.3826 27.0039 101.238 22.7412 100.351 18.9974C99.5379 15.57 96.0896 13.3707 92.6564 14.09C91.1101 14.4154 89.7504 15.4662 89.1919 16.7659C88.825 17.6192 88.8583 18.7859 89.2776 19.8095C89.6496 20.7172 90.2755 21.4073 90.9972 21.7035C92.5193 22.3282 93.2471 24.0671 92.6221 25.5884C91.9982 27.1097 90.2584 27.8381 88.7353 27.2125C86.5147 26.3017 84.7488 24.4731 83.7629 22.0642C82.7308 19.5425 82.7136 16.7558 83.7166 14.4184C85.035 11.3456 87.9904 8.98811 91.4287 8.26373C97.9896 6.88147 104.597 11.0807 106.149 17.6253C107.61 23.79 104.634 30.7598 99.0732 34.1973C91.9437 38.6061 84.1923 36.0259 77.962 33.9505L77.201 33.6976C71.7105 31.8771 66.5637 31.4842 61.9079 32.5289C59.5331 33.0619 57.2207 33.8467 54.7744 34.6769C51.7958 35.6884 48.7154 36.7332 45.4405 37.3165C43.9668 37.5784 42.2028 37.785 40.2907 37.785Z" fill="url(#paint0_linear_1437_11024)"/>
<path d="M119.087 63.7506C117.595 63.7506 116.09 63.5229 114.631 63.0574C110.362 61.6933 107.316 58.4996 106.273 54.2964C105.54 51.3414 105.881 48.1306 107.207 45.4869C107.944 44.018 109.733 43.4216 111.205 44.1601C112.676 44.8966 113.27 46.6858 112.533 48.1558C111.834 49.5491 111.66 51.2659 112.056 52.8637C112.787 55.8106 115.12 56.9622 116.446 57.3863C119.21 58.2699 122.353 57.6745 124.458 55.8711C127.224 53.5025 127.387 49.5179 126.687 46.8269C125.88 43.7259 123.497 41.2253 120.311 40.1362C117.229 39.0814 113.937 39.4582 109.303 41.3905C108.586 41.6897 107.874 42.0031 107.159 42.3164C104.535 43.4679 101.822 44.6588 98.8019 45.2663C91.5122 46.7322 84.548 45.624 77.8137 44.552C73.4924 43.8639 69.4111 43.2141 65.2401 43.1929C65.1655 43.1919 65.0899 43.1919 65.0143 43.1919C58.2639 43.1919 52.3641 44.7605 47.9431 47.7336C46.5793 48.6514 44.7266 48.2908 43.8094 46.9256C42.8911 45.5615 43.253 43.7107 44.6178 42.7939C50.0831 39.1176 57.2327 37.1893 65.2713 37.2387C69.898 37.2629 74.3986 37.9792 78.7511 38.6723C85.2496 39.707 91.3862 40.6853 97.6266 39.43C100.017 38.9494 102.323 37.9379 104.764 36.8659C105.511 36.5385 106.257 36.2111 107.007 35.8977C111.056 34.2082 116.447 32.5237 122.238 34.5044C127.323 36.2423 131.141 40.2893 132.452 45.3308C133.943 51.0623 132.327 56.9753 128.335 60.3957C125.773 62.5869 122.462 63.7506 119.087 63.7506Z" fill="url(#paint1_linear_1437_11024)"/>
<path d="M92.6376 70.3035C90.5037 70.3035 88.4736 69.6637 86.8417 68.4406C84.474 66.6655 83.1364 63.7518 83.3501 60.8342C83.47 59.194 84.8832 57.9598 86.5393 58.0827C88.1803 58.2026 89.4131 59.6302 89.2921 61.2704C89.2246 62.1842 89.655 63.107 90.416 63.6763C91.5772 64.5477 93.0166 64.3886 93.7716 64.2183C95.3259 63.8647 96.7361 62.8572 97.3661 61.6502C98.2581 59.9385 97.994 57.587 96.725 55.9328C94.963 53.6347 91.3686 53.6448 88.7297 54.8406C84.9255 56.5624 81.6264 57.3452 78.6629 57.2556C76.0251 57.1689 73.5333 56.231 71.3349 55.4048C70.5668 55.1157 69.8411 54.8427 69.1456 54.617C66.5581 53.7777 60.1816 52.2937 56.827 56.6209C55.819 57.9205 53.9492 58.1583 52.6479 57.1518C51.3476 56.1443 51.1097 54.2744 52.1167 52.9748C56.0509 47.9001 63.1027 46.3969 70.9851 48.9539C71.8107 49.2219 72.6352 49.5322 73.4335 49.8324C75.3719 50.5609 77.2034 51.25 78.8575 51.3044C80.8714 51.3769 83.3601 50.7362 86.2702 49.4184C90.9029 47.3188 97.6312 47.3278 101.453 52.3119C104.125 55.7927 104.604 60.6528 102.649 64.4037C101.202 67.1783 98.3781 69.2809 95.0921 70.0274C94.2695 70.2108 93.446 70.3035 92.6376 70.3035Z" fill="url(#paint2_linear_1437_11024)"/>
</g>
<g filter="url(#filter1_d_1437_11024)">
<path d="M66.7285 62.7528C67.5407 62.7528 68.1991 62.0947 68.1991 61.2829C68.1991 60.4711 67.5407 59.813 66.7285 59.813C65.9162 59.813 65.2578 60.4711 65.2578 61.2829C65.2578 62.0947 65.9162 62.7528 66.7285 62.7528Z" fill="url(#paint3_linear_1437_11024)"/>
<path d="M27.2665 51.3261C28.0788 51.3261 28.7372 50.668 28.7372 49.8561C28.7372 49.0443 28.0788 48.3862 27.2665 48.3862C26.4543 48.3862 25.7959 49.0443 25.7959 49.8561C25.7959 50.668 26.4543 51.3261 27.2665 51.3261Z" fill="url(#paint4_linear_1437_11024)"/>
<path d="M84.0224 75.9989C84.8346 75.9989 85.493 75.3408 85.493 74.529C85.493 73.7172 84.8346 73.0591 84.0224 73.0591C83.2102 73.0591 82.5518 73.7172 82.5518 74.529C82.5518 75.3408 83.2102 75.9989 84.0224 75.9989Z" fill="url(#paint5_linear_1437_11024)"/>
<path d="M77.6669 69.7899C78.4791 69.7899 79.1376 69.1318 79.1376 68.32C79.1376 67.5082 78.4791 66.8501 77.6669 66.8501C76.8547 66.8501 76.1963 67.5082 76.1963 68.32C76.1963 69.1318 76.8547 69.7899 77.6669 69.7899Z" fill="url(#paint6_linear_1437_11024)"/>
<path d="M40.3593 61.5751C41.1715 61.5751 41.83 60.917 41.83 60.1052C41.83 59.2934 41.1715 58.6353 40.3593 58.6353C39.5471 58.6353 38.8887 59.2934 38.8887 60.1052C38.8887 60.917 39.5471 61.5751 40.3593 61.5751Z" fill="url(#paint7_linear_1437_11024)"/>
<path d="M56.1894 64.4081C57.0016 64.4081 57.66 63.75 57.66 62.9382C57.66 62.1264 57.0016 61.4683 56.1894 61.4683C55.3772 61.4683 54.7188 62.1264 54.7188 62.9382C54.7188 63.75 55.3772 64.4081 56.1894 64.4081Z" fill="url(#paint8_linear_1437_11024)"/>
<path d="M25.7958 43.7045C26.6081 43.7045 27.2665 43.0464 27.2665 42.2346C27.2665 41.4228 26.6081 40.7646 25.7958 40.7646C24.9836 40.7646 24.3252 41.4228 24.3252 42.2346C24.3252 43.0464 24.9836 43.7045 25.7958 43.7045Z" fill="url(#paint9_linear_1437_11024)"/>
<path d="M36.8027 47.9457C37.6149 47.9457 38.2733 47.2876 38.2733 46.4758C38.2733 45.664 37.6149 45.0059 36.8027 45.0059C35.9905 45.0059 35.332 45.664 35.332 46.4758C35.332 47.2876 35.9905 47.9457 36.8027 47.9457Z" fill="url(#paint10_linear_1437_11024)"/>
<path d="M41.83 27.7933C42.6422 27.7933 43.3007 27.1352 43.3007 26.3234C43.3007 25.5116 42.6422 24.8535 41.83 24.8535C41.0178 24.8535 40.3594 25.5116 40.3594 26.3234C40.3594 27.1352 41.0178 27.7933 41.83 27.7933Z" fill="url(#paint11_linear_1437_11024)"/>
<path d="M21.7099 35.0761C22.5221 35.0761 23.1805 34.418 23.1805 33.6061C23.1805 32.7943 22.5221 32.1362 21.7099 32.1362C20.8977 32.1362 20.2393 32.7943 20.2393 33.6061C20.2393 34.418 20.8977 35.0761 21.7099 35.0761Z" fill="url(#paint12_linear_1437_11024)"/>
<path d="M77.6669 24.3666C78.4791 24.3666 79.1376 23.7085 79.1376 22.8967C79.1376 22.0849 78.4791 21.4268 77.6669 21.4268C76.8547 21.4268 76.1963 22.0849 76.1963 22.8967C76.1963 23.7085 76.8547 24.3666 77.6669 24.3666Z" fill="url(#paint13_linear_1437_11024)"/>
<path d="M51.4921 19.5023C52.3043 19.5023 52.9628 18.8442 52.9628 18.0324C52.9628 17.2206 52.3043 16.5625 51.4921 16.5625C50.6799 16.5625 50.0215 17.2206 50.0215 18.0324C50.0215 18.8442 50.6799 19.5023 51.4921 19.5023Z" fill="url(#paint14_linear_1437_11024)"/>
<path d="M60.8046 23.1044C61.6168 23.1044 62.2753 22.4463 62.2753 21.6345C62.2753 20.8227 61.6168 20.1646 60.8046 20.1646C59.9924 20.1646 59.334 20.8227 59.334 21.6345C59.334 22.4463 59.9924 23.1044 60.8046 23.1044Z" fill="url(#paint15_linear_1437_11024)"/>
<path d="M69.2363 23.8256C70.0485 23.8256 70.7069 23.1675 70.7069 22.3557C70.7069 21.5438 70.0485 20.8857 69.2363 20.8857C68.4241 20.8857 67.7656 21.5438 67.7656 22.3557C67.7656 23.1675 68.4241 23.8256 69.2363 23.8256Z" fill="url(#paint16_linear_1437_11024)"/>
<path d="M69.2363 35.8934C70.0485 35.8934 70.7069 35.2353 70.7069 34.4235C70.7069 33.6117 70.0485 32.9536 69.2363 32.9536C68.4241 32.9536 67.7656 33.6117 67.7656 34.4235C67.7656 35.2353 68.4241 35.8934 69.2363 35.8934Z" fill="url(#paint17_linear_1437_11024)"/>
<path d="M76.1962 49.1981C77.0085 49.1981 77.6669 48.54 77.6669 47.7282C77.6669 46.9164 77.0085 46.2583 76.1962 46.2583C75.384 46.2583 74.7256 46.9164 74.7256 47.7282C74.7256 48.54 75.384 49.1981 76.1962 49.1981Z" fill="url(#paint18_linear_1437_11024)"/>
<path d="M80.6083 11.0155C81.4206 11.0155 82.079 10.3574 82.079 9.5456C82.079 8.73379 81.4206 8.07568 80.6083 8.07568C79.7961 8.07568 79.1377 8.73379 79.1377 9.5456C79.1377 10.3574 79.7961 11.0155 80.6083 11.0155Z" fill="url(#paint19_linear_1437_11024)"/>
</g>
<defs>
<filter id="filter0_d_1437_11024" x="21.8809" y="8.00049" width="111.118" height="72.3032" filterUnits="userSpaceOnUse" color-interpolation-filters="sRGB">
<feFlood flood-opacity="0" result="BackgroundImageFix"/>
<feColorMatrix in="SourceAlpha" type="matrix" values="0 0 0 0 0 0 0 0 0 0 0 0 0 0 0 0 0 0 127 0" result="hardAlpha"/>
<feOffset dx="-4" dy="6"/>
<feGaussianBlur stdDeviation="2"/>
<feComposite in2="hardAlpha" operator="out"/>
<feColorMatrix type="matrix" values="0 0 0 0 0 0 0 0 0 0 0 0 0 0 0 0 0 0 0.1 0"/>
<feBlend mode="normal" in2="BackgroundImageFix" result="effect1_dropShadow_1437_11024"/>
<feBlend mode="normal" in="SourceGraphic" in2="effect1_dropShadow_1437_11024" result="shape"/>
</filter>
<filter id="filter1_d_1437_11024" x="12.2393" y="8.07568" width="73.2539" height="75.9233" filterUnits="userSpaceOnUse" color-interpolation-filters="sRGB">
<feFlood flood-opacity="0" result="BackgroundImageFix"/>
<feColorMatrix in="SourceAlpha" type="matrix" values="0 0 0 0 0 0 0 0 0 0 0 0 0 0 0 0 0 0 127 0" result="hardAlpha"/>
<feOffset dx="-4" dy="4"/>
<feGaussianBlur stdDeviation="2"/>
<feComposite in2="hardAlpha" operator="out"/>
<feColorMatrix type="matrix" values="0 0 0 0 0 0 0 0 0 0 0 0 0 0 0 0 0 0 0.1 0"/>
<feBlend mode="normal" in2="BackgroundImageFix" result="effect1_dropShadow_1437_11024"/>
<feBlend mode="normal" in="SourceGraphic" in2="effect1_dropShadow_1437_11024" result="shape"/>
</filter>
<linearGradient id="paint0_linear_1437_11024" x1="31.3201" y1="22.8362" x2="126.8" y2="24.7017" gradientUnits="userSpaceOnUse">
<stop stop-color="#B4925F"/>
<stop offset="1" stop-color="#9E6D32"/>
</linearGradient>
<linearGradient id="paint1_linear_1437_11024" x1="88.1506" y1="33.6089" x2="88.1506" y2="63.7506" gradientUnits="userSpaceOnUse">
<stop stop-color="#B4925F"/>
<stop offset="1" stop-color="#9E6D32"/>
</linearGradient>
<linearGradient id="paint2_linear_1437_11024" x1="77.668" y1="47.7305" x2="77.668" y2="70.3035" gradientUnits="userSpaceOnUse">
<stop stop-color="#B4925F"/>
<stop offset="1" stop-color="#9E6D32"/>
</linearGradient>
<linearGradient id="paint3_linear_1437_11024" x1="66.7285" y1="59.813" x2="66.7285" y2="62.7528" gradientUnits="userSpaceOnUse">
<stop stop-color="#B4925F"/>
<stop offset="1" stop-color="#9E6D32"/>
</linearGradient>
<linearGradient id="paint4_linear_1437_11024" x1="27.2665" y1="48.3862" x2="27.2665" y2="51.3261" gradientUnits="userSpaceOnUse">
<stop stop-color="#B4925F"/>
<stop offset="1" stop-color="#9E6D32"/>
</linearGradient>
<linearGradient id="paint5_linear_1437_11024" x1="84.0224" y1="73.0591" x2="84.0224" y2="75.9989" gradientUnits="userSpaceOnUse">
<stop stop-color="#B4925F"/>
<stop offset="1" stop-color="#9E6D32"/>
</linearGradient>
<linearGradient id="paint6_linear_1437_11024" x1="77.6669" y1="66.8501" x2="77.6669" y2="69.7899" gradientUnits="userSpaceOnUse">
<stop stop-color="#B4925F"/>
<stop offset="1" stop-color="#9E6D32"/>
</linearGradient>
<linearGradient id="paint7_linear_1437_11024" x1="40.3593" y1="58.6353" x2="40.3593" y2="61.5751" gradientUnits="userSpaceOnUse">
<stop stop-color="#B4925F"/>
<stop offset="1" stop-color="#9E6D32"/>
</linearGradient>
<linearGradient id="paint8_linear_1437_11024" x1="56.1894" y1="61.4683" x2="56.1894" y2="64.4081" gradientUnits="userSpaceOnUse">
<stop stop-color="#B4925F"/>
<stop offset="1" stop-color="#9E6D32"/>
</linearGradient>
<linearGradient id="paint9_linear_1437_11024" x1="25.7958" y1="40.7646" x2="25.7958" y2="43.7045" gradientUnits="userSpaceOnUse">
<stop stop-color="#B4925F"/>
<stop offset="1" stop-color="#9E6D32"/>
</linearGradient>
<linearGradient id="paint10_linear_1437_11024" x1="36.8027" y1="45.0059" x2="36.8027" y2="47.9457" gradientUnits="userSpaceOnUse">
<stop stop-color="#B4925F"/>
<stop offset="1" stop-color="#9E6D32"/>
</linearGradient>
<linearGradient id="paint11_linear_1437_11024" x1="41.83" y1="24.8535" x2="41.83" y2="27.7933" gradientUnits="userSpaceOnUse">
<stop stop-color="#B4925F"/>
<stop offset="1" stop-color="#9E6D32"/>
</linearGradient>
<linearGradient id="paint12_linear_1437_11024" x1="21.7099" y1="32.1362" x2="21.7099" y2="35.0761" gradientUnits="userSpaceOnUse">
<stop stop-color="#B4925F"/>
<stop offset="1" stop-color="#9E6D32"/>
</linearGradient>
<linearGradient id="paint13_linear_1437_11024" x1="77.6669" y1="21.4268" x2="77.6669" y2="24.3666" gradientUnits="userSpaceOnUse">
<stop stop-color="#B4925F"/>
<stop offset="1" stop-color="#9E6D32"/>
</linearGradient>
<linearGradient id="paint14_linear_1437_11024" x1="51.4921" y1="16.5625" x2="51.4921" y2="19.5023" gradientUnits="userSpaceOnUse">
<stop stop-color="#B4925F"/>
<stop offset="1" stop-color="#9E6D32"/>
</linearGradient>
<linearGradient id="paint15_linear_1437_11024" x1="60.8046" y1="20.1646" x2="60.8046" y2="23.1044" gradientUnits="userSpaceOnUse">
<stop stop-color="#B4925F"/>
<stop offset="1" stop-color="#9E6D32"/>
</linearGradient>
<linearGradient id="paint16_linear_1437_11024" x1="69.2363" y1="20.8857" x2="69.2363" y2="23.8256" gradientUnits="userSpaceOnUse">
<stop stop-color="#B4925F"/>
<stop offset="1" stop-color="#9E6D32"/>
</linearGradient>
<linearGradient id="paint17_linear_1437_11024" x1="69.2363" y1="32.9536" x2="69.2363" y2="35.8934" gradientUnits="userSpaceOnUse">
<stop stop-color="#B4925F"/>
<stop offset="1" stop-color="#9E6D32"/>
</linearGradient>
<linearGradient id="paint18_linear_1437_11024" x1="76.1962" y1="46.2583" x2="76.1962" y2="49.1981" gradientUnits="userSpaceOnUse">
<stop stop-color="#B4925F"/>
<stop offset="1" stop-color="#9E6D32"/>
</linearGradient>
<linearGradient id="paint19_linear_1437_11024" x1="80.6083" y1="8.07568" x2="80.6083" y2="11.0155" gradientUnits="userSpaceOnUse">
<stop stop-color="#B4925F"/>
<stop offset="1" stop-color="#9E6D32"/>
</linearGradient>
</defs>
</svg>
