<svg width="950" height="134" viewBox="0 0 950 134" fill="none" xmlns="http://www.w3.org/2000/svg">
<path d="M913.888 130H36.1117L4 97.7603V32.8876L32.7699 4H917.224L946 32.8876V97.7603L913.882 130H913.888Z" fill="white"/>
<path d="M35.4032 130.706L35.6963 131H36.1117H911.474H913.882H913.888V130.006L914.59 130.706L946.708 98.4661L947 98.1734V97.7603V32.8876V32.4745L946.708 32.1818L917.932 3.29426L917.639 3H917.224H32.7699H32.3544L32.0613 3.29434L3.29145 32.1819L3 32.4746V32.8876V97.7603V98.1734L3.29149 98.466L35.4032 130.706ZM942.932 96.4995L912.608 126.942H37.3918L7.06753 96.4995V34.1483L34.05 7.05785H915.95L942.932 34.1483V96.4995Z" stroke="#83BCFF" stroke-width="2"/>
</svg>
