<svg width="103" height="99" viewBox="0 0 103 99" fill="none" xmlns="http://www.w3.org/2000/svg">
<path opacity="0.2" d="M102.63 41.1549V28.4528C102.63 25.8836 100.565 23.8033 98.0331 23.8033H91.2255C91.2158 23.6883 91.206 23.5733 91.1866 23.4582C90.0666 14.5715 82.9181 7.97599 74.5133 7.37203V7.34327C74.5133 3.28818 71.1728 0 67.0532 0H36.3753C32.2654 0 28.9347 3.269 28.9152 7.30493C20.5104 7.91847 13.3425 14.514 12.242 23.4007C12.2225 23.5349 12.2127 23.6691 12.203 23.8033H4.94743C2.41528 23.8033 0.350605 25.8932 0.350605 28.4528V41.1549C0.136346 41.4042 0 41.7205 0 42.0657V55.1033C0 55.8798 0.642776 56.5125 1.43164 56.5125H7.77175C8.56061 56.5125 9.20338 55.8798 9.20338 55.1033V42.0657C9.20338 41.2891 8.56061 40.6564 7.77175 40.6564H3.27231V28.4528C3.27231 27.475 4.02222 26.6793 4.94743 26.6793H11.9985L10.6155 48.6324V84.4189C10.6155 87.592 13.06 90.1708 16.0791 90.1708H17.764V94.2451C17.764 96.8718 19.9261 99 22.5946 99H28.6328C31.3012 99 33.4633 96.8718 33.4633 94.2451V90.1708H70.7054V94.2451C70.7054 96.8718 72.8674 99 75.5359 99H81.5741C84.2426 99 86.4047 96.8718 86.4047 94.2451V90.1708H87.3591C90.3782 90.1708 92.8227 87.6016 92.8227 84.4189V48.4503L91.4495 26.6697H98.0526C98.9778 26.6697 99.7277 27.4654 99.7277 28.4432V40.6564H95.2283C94.4394 40.6564 93.7966 41.2891 93.7966 42.0657V55.1033C93.7966 55.8798 94.4394 56.5125 95.2283 56.5125H101.568C102.357 56.5125 103 55.8798 103 55.1033V42.0657C102.981 41.7205 102.844 41.4042 102.63 41.1549ZM37.1739 7.27617C37.1739 6.02034 38.2062 4.99458 39.4918 4.99458H63.9367C65.2126 4.99458 66.2546 6.01075 66.2546 7.27617V9.49066H37.1739V7.27617ZM27.1037 79.942C23.5977 79.942 20.7539 77.1427 20.7539 73.6916C20.7539 70.2404 23.5977 67.4412 27.1037 67.4412C30.6098 67.4412 33.4536 70.2404 33.4536 73.6916C33.4536 77.1427 30.6098 79.942 27.1037 79.942ZM25.3702 52.1986C22.4193 52.1986 20.0234 49.9649 20.0234 47.2136L22.7017 24.6086C22.7017 21.8573 25.0975 19.6236 28.0484 19.6236H75.3704C78.3213 19.6236 80.7171 21.8573 80.7171 24.6086L83.3953 47.2136C83.3953 49.9649 80.9995 52.1986 78.0486 52.1986H25.3702ZM77.9123 79.942C74.4062 79.942 71.5624 77.1427 71.5624 73.6916C71.5624 70.2404 74.4062 67.4412 77.9123 67.4412C81.4183 67.4412 84.2621 70.2404 84.2621 73.6916C84.2718 77.1427 81.428 79.942 77.9123 79.942Z" fill="black"/>
</svg>
