<svg width="173" height="70" viewBox="0 0 173 70" fill="none" xmlns="http://www.w3.org/2000/svg">
<path d="M28.0098 9.32966C28.0397 9.26444 28.0397 9.15574 27.9328 9.25574C27.7063 9.44706 27.2918 9.84273 26.8388 10.4949C23.4797 15.2648 27.3986 18.7824 27.6465 20.726C27.702 21.0999 27.6465 21.4434 27.5396 21.7217C27.0995 22.6217 26.2276 22.513 25.7575 22.1217C25.1549 21.6043 24.8942 20.5433 25.1635 19.5172C25.172 19.4824 25.125 19.4607 25.1079 19.4955C24.0224 21.3564 24.3472 23.4305 24.8643 24.8653C25.984 27.9655 29.4628 29.6352 32.5569 29.7308C37.2451 29.883 41.1641 25.9263 41.3222 20.9042C41.5786 12.4472 32.9501 8.29917 33.245 1.55966C33.2578 1.52052 33.2023 1.50313 33.1809 1.53357C32.4501 2.32057 31.3689 3.61629 30.9842 4.98594C29.9543 8.6818 31.7107 10.5384 31.6808 12.1863C31.6125 13.8821 30.4671 14.7604 29.2277 14.53C28.1209 14.343 26.4883 12.6472 28.0098 9.32966Z" fill="#E60012"/>
<path d="M18.3253 33.0311C19.9536 30.9484 22.0006 29.2222 24.3383 27.9917C23.7657 27.296 23.3127 26.5134 22.9921 25.6351C22.7144 24.8959 22.4066 23.7654 22.3938 22.4653C17.7398 24.7307 13.9021 28.4613 11.4746 33.079C12.5687 32.9877 13.7995 32.9311 15.2397 32.9311C16.3893 32.9311 17.4107 32.9659 18.3253 33.0311Z" fill="#F39800"/>
<path d="M36.2492 37.4009C25.7446 37.4009 25.7446 34.479 15.2399 34.479C7.11138 34.479 5.2737 36.2313 0 37.0139V42.8403C5.27798 42.0446 7.11138 40.3054 15.2399 40.3054C25.7403 40.3054 25.7403 43.2143 36.2492 43.2143C38.8733 43.2143 40.8434 43.0317 42.4845 42.7534V36.94C40.8434 37.2183 38.8733 37.4009 36.2492 37.4009Z" fill="#F39800"/>
<path d="M36.2492 44.7838C25.7446 44.7838 25.7446 41.8662 15.2399 41.8662C7.11138 41.8662 5.2737 43.6098 0 44.3968V50.2189C5.27798 49.4362 7.11138 47.6883 15.2399 47.6883C25.7403 47.6883 25.7403 50.6015 36.2492 50.6015C38.8733 50.6015 40.8434 50.4145 42.4845 50.1449V44.3142C40.8434 44.5924 38.8733 44.7838 36.2492 44.7838Z" fill="#F39800"/>
<path d="M36.2492 52.1671C25.7446 52.1671 25.7446 49.2495 15.2399 49.2495C7.11138 49.2495 5.2737 50.9931 0 51.7844V57.6109C5.27798 56.8152 7.11138 55.0803 15.2399 55.0803C25.7403 55.0803 25.7403 57.9848 36.2492 57.9848C38.8733 57.9848 40.8434 57.8022 42.4845 57.5195V51.6975C40.8434 51.9714 38.8733 52.1671 36.2492 52.1671Z" fill="#F39800"/>
<path d="M43.1514 22.4478C42.8309 24.4566 42.0232 26.2828 40.8394 27.7741C47.0063 30.8221 51.2671 37.2486 51.2671 44.6881C51.2671 53.8582 44.7669 61.5152 36.211 63.1501V56.0105H29.3817V63.1501C25.108 62.3283 21.3386 60.0064 18.6505 56.754C17.6419 56.6758 16.518 56.6323 15.2401 56.6323C13.911 56.6323 12.7529 56.6801 11.7314 56.7627C15.8812 64.2327 23.7661 69.2982 32.7878 69.2982C46.1345 69.2982 56.9853 58.2628 56.9853 44.6925C56.9896 34.8789 51.3227 26.4045 43.1514 22.4478Z" fill="#F39800"/>
<path d="M68.2867 29.8982H81.0568C81.6153 29.8982 82.0989 30.156 82.4962 30.6715C82.8992 31.1869 83.0547 31.6614 82.9741 32.0949C82.5768 33.8581 81.8686 35.5334 80.8495 37.1032C79.8362 38.679 78.6444 40.1024 77.2857 41.3794C75.9269 42.6857 74.476 43.7986 72.9388 44.7183C71.4015 45.6438 69.9391 46.3233 68.5516 46.7568C68.2061 46.8681 67.8088 46.8974 67.3713 46.8564C66.9279 46.8154 66.617 46.6338 66.4328 46.3057C66.2198 46.089 66.1392 45.8078 66.191 45.4681C66.2428 45.1283 66.4731 44.8647 66.8704 44.6714C67.9125 44.1852 69.0006 43.5292 70.1349 42.715C71.2691 41.9007 72.34 40.9928 73.3591 39.9852C74.3493 38.9543 75.236 37.8472 76.0248 36.6639C76.8135 35.4807 77.3778 34.2388 77.729 32.9384H68.1197C67.7167 32.9384 67.3828 32.7802 67.1179 32.4698C66.8531 32.1593 66.7149 31.8254 66.7149 31.474C66.7149 31.1752 66.8531 30.8355 67.1352 30.4547C67.4288 30.0916 67.8088 29.8982 68.2867 29.8982ZM74.9366 55.807C74.9366 54.694 75.1554 53.6455 75.5987 52.6672C76.042 51.689 76.6581 50.8455 77.4584 50.1425C78.2587 49.4103 79.2087 48.8304 80.3026 48.4087C81.3965 47.9869 82.5825 47.776 83.8665 47.776C85.0928 47.776 86.2558 47.9869 87.3497 48.4087C88.4437 48.8304 89.3937 49.4103 90.1939 50.1425C90.9942 50.8513 91.6333 51.689 92.1169 52.6672C92.5948 53.6455 92.8366 54.694 92.8366 55.807C92.8366 56.9199 92.5948 57.9685 92.1169 58.9408C91.6333 59.9191 90.9942 60.7743 90.1939 61.5065C89.3937 62.2387 88.4437 62.8128 87.3497 63.2404C86.2558 63.6622 85.0928 63.873 83.8665 63.873C82.6113 63.873 81.4368 63.6622 80.3429 63.2404C79.249 62.8187 78.299 62.2446 77.4987 61.5065C76.6984 60.7743 76.0708 59.9191 75.616 58.9408C75.1611 57.9685 74.9366 56.9199 74.9366 55.807ZM79.2605 55.807C79.2605 57.248 79.698 58.4429 80.5789 59.3919C81.4598 60.3408 82.5538 60.8153 83.8607 60.8153C85.1446 60.8153 86.2386 60.3408 87.1425 59.3919C88.0464 58.4429 88.5012 57.248 88.5012 55.807C88.5012 54.3953 88.0464 53.212 87.1425 52.263C86.2328 51.3141 85.1389 50.8396 83.8607 50.8396C82.5538 50.8396 81.4598 51.3141 80.5789 52.263C79.7038 53.2178 79.2605 54.3953 79.2605 55.807ZM93.5563 27.8598V35.5568H99.1238C99.498 35.5568 99.8492 35.6974 100.183 35.9844C100.517 36.2714 100.684 36.6171 100.684 37.0212C100.684 37.4313 100.523 37.7827 100.206 38.0815C99.8838 38.3802 99.5671 38.5325 99.2447 38.5325H93.5563V43.4999C93.5563 44.8296 93.2742 45.8488 92.7157 46.5576C92.1572 47.2664 91.3915 47.6179 90.4358 47.6179H89.3937V30.3903C89.3937 29.5761 89.2612 29.0489 88.9906 28.8029C88.7258 28.5568 88.294 28.3694 87.7067 28.2347C86.987 28.1292 86.4804 27.9652 86.1867 27.7485C85.8931 27.5317 85.7492 27.274 85.7492 26.9752C85.7492 26.5652 85.9161 26.2606 86.2501 26.0614C86.584 25.8564 86.9755 25.7568 87.4304 25.7568H91.593C92.0997 25.7568 92.5545 25.9853 92.9575 26.448C93.3548 26.8991 93.5563 27.3736 93.5563 27.8598Z" fill="#542B13"/>
<path d="M113.333 40.1258C113.016 40.0438 112.786 39.9091 112.654 39.7158C112.521 39.5283 112.521 39.2706 112.654 38.9426C112.786 38.6145 113.045 38.4154 113.437 38.3334C113.822 38.2514 114.099 38.2104 114.254 38.2104C115.642 38.2104 116.891 38.638 117.997 39.4932C119.102 40.3484 119.661 41.5668 119.661 43.1367C119.661 44.7944 119.131 46.1651 118.077 47.2488C117.024 48.3325 115.745 49.0413 114.254 49.3693V52.427C115.935 52.427 117.519 52.3919 118.998 52.3275C120.478 52.2572 121.929 52.0229 123.345 51.6128C123.881 51.4781 124.29 51.4722 124.583 51.5894C124.877 51.7124 125.05 51.894 125.107 52.14C125.159 52.386 125.113 52.6496 124.969 52.9367C124.819 53.2237 124.6 53.4463 124.307 53.6103C123.748 53.9383 123.063 54.2137 122.263 54.448C121.463 54.6764 120.593 54.8756 119.661 55.0396C118.751 55.2036 117.807 55.3208 116.816 55.3852C115.832 55.4555 114.865 55.4848 113.932 55.4848H102.601C102.146 55.4848 101.801 55.3149 101.559 54.9752C101.317 54.6354 101.196 54.2898 101.196 53.9383C101.196 53.6396 101.334 53.3116 101.617 52.9601C101.899 52.6086 102.238 52.4329 102.636 52.4329H109.965V49.299C108.393 48.889 107.109 48.0865 106.119 46.8739C105.129 45.6672 104.639 44.2848 104.639 42.7384C104.639 41.7074 104.847 40.735 105.261 39.8271C105.676 38.9191 106.32 38.1108 107.201 37.402H102.958C102.613 37.402 102.331 37.2204 102.117 36.8514C101.904 36.4823 101.795 36.1367 101.795 35.8145C101.795 35.5158 101.91 35.2112 102.135 34.9007C102.359 34.5903 102.664 34.4321 103.033 34.4321H120.092C120.495 34.4321 120.824 34.5961 121.094 34.9183C121.359 35.2463 121.497 35.5568 121.497 35.8556C121.497 36.1836 121.365 36.5233 121.094 36.8748C120.829 37.2263 120.495 37.402 120.092 37.402H113.368C111.98 37.5953 110.898 38.1283 110.126 39.0129C109.349 39.8974 108.963 41.0279 108.963 42.4162C108.963 43.6932 109.274 44.6714 109.902 45.3509C110.529 46.0304 111.295 46.3702 112.205 46.3702C113.085 46.3702 113.817 46.0831 114.404 45.5149C114.991 44.9467 115.285 44.1735 115.285 43.1953C115.285 42.299 115.129 41.6254 114.824 41.1802C114.531 40.7175 114.03 40.366 113.333 40.1258ZM108.848 31.2455L106.723 29.6581C106.378 29.4121 106.194 29.1075 106.182 28.7384C106.171 28.3694 106.297 28.0238 106.562 27.7016C106.804 27.4556 107.126 27.356 107.547 27.397C107.961 27.438 108.364 27.5376 108.767 27.7016C109.303 27.9711 109.769 28.1995 110.166 28.3752C110.569 28.551 110.967 28.6798 111.37 28.7618C111.767 28.8731 112.222 28.9434 112.729 28.9844C113.235 29.0254 113.863 29.043 114.611 29.043C115.17 29.043 115.619 29.1836 115.953 29.4706C116.287 29.7577 116.454 30.1033 116.454 30.5074C116.454 30.9702 116.246 31.3217 115.832 31.5677C115.417 31.8137 115.008 31.9367 114.611 31.9367H111.767C111.047 31.9367 110.466 31.884 110.028 31.7727C109.591 31.6673 109.199 31.4857 108.848 31.2455ZM130.312 27.9008V38.9016H135.758C136.075 38.9016 136.403 39.0597 136.737 39.3702C137.071 39.6806 137.238 40.0555 137.238 40.489C137.238 40.899 137.077 41.2564 136.76 41.5668C136.444 41.8773 136.133 42.0354 135.839 42.0354H130.312V57.4354C130.312 58.7944 130.018 59.8254 129.431 60.5341C128.844 61.2429 128.072 61.5944 127.111 61.5944H126.028V30.3493C126.028 29.5351 125.913 29.0137 125.689 28.7794C125.464 28.551 125.027 28.3635 124.387 28.2288C123.668 28.1468 123.15 28.0003 122.844 27.7836C122.534 27.5669 122.384 27.2974 122.384 26.9694C122.384 26.5886 122.562 26.2899 122.925 26.0731C123.288 25.8564 123.668 25.7451 124.065 25.7451H128.308C128.786 25.7451 129.241 25.9736 129.673 26.4363C130.099 26.8991 130.312 27.3853 130.312 27.9008Z" fill="#542B13"/>
<path d="M163.545 30.9173C163.516 33.0905 163.383 35.2579 163.142 37.4135C162.9 39.575 162.583 41.4671 162.18 43.0955H169.866C170.344 43.0955 170.707 43.2888 170.949 43.6637C171.191 44.0445 171.312 44.3725 171.312 44.642C171.312 45.0227 171.173 45.3742 170.891 45.7022C170.609 46.0303 170.241 46.1884 169.792 46.1884H157.338V51.4018C157.338 52.8428 157.05 53.9265 156.48 54.6587C155.905 55.3909 155.219 55.7599 154.419 55.7599H153.175V46.1943H137.918C137.492 46.1943 137.135 46.0185 136.859 45.6671C136.577 45.3156 136.438 44.9583 136.438 44.6068C136.438 44.3608 136.565 44.0503 136.818 43.6696C137.072 43.2888 137.411 43.1014 137.843 43.1014H158.662C158.795 42.2052 158.893 41.3148 158.962 40.4361C159.031 39.5516 159.077 38.6378 159.1 37.6889C159.129 36.7633 159.14 35.8144 159.14 34.8361C159.14 33.8579 159.14 32.8387 159.14 31.7784H144.407C144.004 31.7784 143.687 31.6027 143.445 31.2512C143.204 30.8998 143.083 30.5424 143.083 30.191C143.083 29.8922 143.221 29.5583 143.503 29.1952C143.785 28.8261 144.125 28.6445 144.522 28.6445H161.581C162.278 28.6445 162.779 28.914 163.084 29.4588C163.395 29.9918 163.545 30.4839 163.545 30.9173ZM144.77 59.1516V55.7717C144.77 55.0394 144.683 54.565 144.51 54.3482C144.338 54.1315 143.929 53.9382 143.29 53.78C142.651 53.616 142.213 53.4286 141.989 53.2118C141.758 52.9951 141.649 52.6964 141.649 52.3156C141.649 51.9876 141.845 51.724 142.231 51.5189C142.616 51.3139 142.973 51.2143 143.29 51.2143H146.975C147.481 51.2143 147.948 51.4252 148.374 51.847C148.8 52.2687 149.013 52.7608 149.013 53.3348V59.1984C149.013 59.5265 149.07 59.7959 149.191 60.0126C149.312 60.2294 149.583 60.3407 150.015 60.3407H163.51C163.907 60.3407 164.276 60.5047 164.61 60.8269C164.944 61.1549 165.111 61.5064 165.111 61.8871C165.111 62.2152 164.95 62.5608 164.633 62.9239C164.31 63.293 163.953 63.4746 163.55 63.4746H149.496C148.028 63.4746 146.865 63.1407 146.013 62.4787C145.155 61.8051 144.741 60.698 144.77 59.1516Z" fill="#542B13"/>
</svg>
