<svg width="40" height="40" viewBox="0 0 40 40" fill="none" xmlns="http://www.w3.org/2000/svg">
<path d="M38.4278 12.2146C37.4205 9.83286 35.9784 7.69423 34.1421 5.85791C32.3058 4.0216 30.1671 2.57952 27.7854 1.57225C25.3188 0.52906 22.6992 0 19.9998 0C17.3003 0 14.6812 0.52906 12.2146 1.57225C9.83286 2.57952 7.69423 4.0216 5.85791 5.85791C4.0216 7.69423 2.57952 9.83286 1.57225 12.2146C0.52906 14.6812 0 17.3003 0 19.9998C0 22.6992 0.52906 25.3184 1.57225 27.7854C2.57952 30.1671 4.0216 32.3058 5.85791 34.1421C7.69423 35.9784 9.83286 37.4205 12.2146 38.4278C14.6812 39.4709 17.3003 40 19.9998 40C22.6992 40 25.3184 39.4709 27.7854 38.4278C30.1671 37.4205 32.3058 35.9784 34.1421 34.1421C35.9784 32.3058 37.4205 30.1671 38.4278 27.7854C39.4709 25.3188 40 22.6992 40 19.9998C40 17.3003 39.4709 14.6812 38.4278 12.2146ZM19.9998 37.2007C10.5149 37.2007 2.79879 29.4846 2.79879 19.9998C2.79879 10.5149 10.5149 2.79879 19.9998 2.79879C29.4846 2.79879 37.2007 10.5149 37.2007 19.9998C37.2007 29.4846 29.4846 37.2007 19.9998 37.2007Z" fill="#555555"/>
<path d="M26.5159 23.5538C26.0073 23.2538 25.4788 22.9916 24.9357 22.7667C26.4594 21.4217 27.4219 19.4552 27.4219 17.2676C27.4219 13.2226 24.1309 9.93164 20.086 9.93164C16.0411 9.93164 12.7501 13.2226 12.7501 17.2676C12.7501 19.4552 13.7125 21.4217 15.2363 22.7667C14.6932 22.9911 14.1651 23.2538 13.6561 23.5538C11.7731 24.6637 10.199 26.2509 9.10449 28.1427L11.5277 29.5442C13.2908 26.4967 16.5701 24.6035 20.086 24.6035C23.6019 24.6035 26.8812 26.4967 28.6442 29.5442L31.0675 28.1427C29.973 26.2509 28.3988 24.6637 26.5159 23.5538ZM15.5493 17.2676C15.5493 14.766 17.5844 12.7309 20.086 12.7309C22.5876 12.7309 24.6226 14.766 24.6226 17.2676C24.6226 19.7692 22.5876 21.8042 20.086 21.8042C17.5844 21.8042 15.5493 19.7692 15.5493 17.2676Z" fill="#555555"/>
</svg>
