<svg width="48" height="48" viewBox="0 0 48 48" fill="none" xmlns="http://www.w3.org/2000/svg">
    <rect opacity=".2" width="48" height="48" rx="24" fill="#fff"/>
    <mask id="ap223kic3a" fill="#fff">
        <path d="M7 16a2 2 0 0 1 2-2h8a2 2 0 0 1 2 2v4a6 6 0 0 1-12 0v-4z"/>
    </mask>
    <path d="M7 16a2 2 0 0 1 2-2h8a2 2 0 0 1 2 2v4a6 6 0 0 1-12 0v-4z" stroke="#fff" stroke-width="5" mask="url(#ap223kic3a)"/>
    <mask id="x3s8hh7q8b" fill="#fff">
        <path d="M41 32a2 2 0 0 1-2 2h-8a2 2 0 0 1-2-2v-4a6 6 0 0 1 12 0v4z"/>
    </mask>
    <path d="M41 32a2 2 0 0 1-2 2h-8a2 2 0 0 1-2-2v-4a6 6 0 0 1 12 0v4z" stroke="#fff" stroke-width="5" mask="url(#x3s8hh7q8b)"/>
    <path stroke="#fff" stroke-width="2.5" d="M10.25 11.25h5.5v4.5h-5.5zM37.75 36.75h-5.5v-4.5h5.5zM13 25v6.5c0 1.167 1.1 3.5 5.5 3.5s5.5-2.333 5.5-3.5V16c0-1.167.7-3.5 5.5-3.5s5 2.5 5 3.5v7"/>
</svg>
