<?xml version="1.0" encoding="UTF-8"?>
<svg id="_레이어_2" data-name="레이어 2" xmlns="http://www.w3.org/2000/svg" viewBox="0 0 293.55 87.89">
  <defs>
    <style>
      .cls-1 {
        fill: #231815;
      }

      .cls-1, .cls-2 {
        stroke-width: 0px;
      }

      .cls-2 {
        fill: #008b4f;
      }
    </style>
  </defs>
  <g id="_레이어_1-2" data-name="레이어 1">
    <g>
      <g>
        <rect class="cls-2" x="40.26" y="22.25" width="2.05" height="5.35"/>
        <rect class="cls-2" x="43.62" y="22.25" width="2.05" height="5.35"/>
        <rect class="cls-2" x="36.91" y="22.25" width="2.05" height="5.35"/>
        <path class="cls-2" d="M59.71,47.09c0-6.59-5.26-11.95-11.72-11.95s-11.72,5.36-11.72,11.95v25.95h-12.19v-15.93c-9.2,9.44-13.38,18.97-9.88,25.04,5.52,9.57,28.04,6.91,50.3-5.94,1.77-1.02,3.48-2.08,5.14-3.16h-9.94v-25.95ZM57.26,73.04h-2v-25.95c0-4.08-3.26-7.41-7.26-7.41s-7.26,3.32-7.26,7.41v25.95h-2v-25.95c0-5.21,4.16-9.45,9.26-9.45s9.27,4.24,9.27,9.45v25.95Z"/>
        <rect class="cls-2" x="46.97" y="22.25" width="2.05" height="5.35"/>
        <rect class="cls-2" x="57.04" y="22.25" width="2.05" height="5.35"/>
        <rect class="cls-2" x="50.33" y="22.25" width="2.05" height="5.35"/>
        <path class="cls-2" d="M94.81,35.62c-3.16-5.47-11.86-6.94-22.9-4.8,6.3-6.45,10.25-12.95,11.01-18.35l-9.06,1.24c-.03-.22-.07-.44-.12-.66l9.31-2.04c.06-1.78-.27-3.42-1.01-4.88l-9.07,4.78c-.1-.2-.22-.39-.34-.58l8.63-5.46c-.97-1.29-2.29-2.32-3.91-3.09l-6.18,6.81c-.16-.15-.34-.29-.51-.43l5.36-6.94c-1.35-.49-2.87-.83-4.54-1.02l-2.79,6.84c-.21-.08-.42-.16-.63-.23L70.2.08c-1.3-.09-2.68-.1-4.13-.03l-.25,6.37c-.11,0-.22,0-.33,0-.12,0-.23,0-.34,0l-.25-6.3c-1.28.1-2.61.25-3.98.47l2,6.22c-.21.07-.42.15-.63.23l-2.57-6.25c-1.42.26-2.89.57-4.39.95l4.99,6.43c-.18.14-.35.28-.51.43l-5.91-6.49c-1.87.51-3.78,1.12-5.73,1.81l10.19,6.42c-.12.19-.23.38-.33.58l-11.9-6.24c-2.96,1.14-5.99,2.47-9.05,4.01l20.17,4.37c-.05.22-.08.44-.11.66l-23.58-3.18c-.67.37-1.35.75-2.02,1.14-.18.11-.37.22-.55.32,1.36.23,2.41,1.41,2.41,2.84,0,1.59-1.29,2.88-2.88,2.88s-2.88-1.29-2.88-2.88c0-.31.05-.6.14-.88C7.77,26.61-3.97,43.26,1.23,52.27c3.15,5.46,11.84,6.94,22.86,4.81v-26.25h47.81v40.71c17.76-12.28,27.79-27.46,22.91-35.91ZM65.5,11.97c1.59,0,2.88,1.29,2.88,2.88s-1.29,2.88-2.88,2.88-2.88-1.29-2.88-2.88,1.29-2.88,2.88-2.88ZM71.9,20.81v8.24H24.09v-10.84h12.81v2.6h22.18v-2.6h12.81v2.6Z"/>
        <rect class="cls-2" x="53.68" y="22.25" width="2.05" height="5.35"/>
        <path class="cls-2" d="M24.09,57.08v.03s.03-.03.04-.04c-.01,0-.03,0-.04,0Z"/>
      </g>
      <polygon class="cls-1" points="253.53 29.66 253.68 35.25 270.31 35.25 270.85 50.79 276.14 50.79 276.69 35.25 293.4 35.25 293.55 29.66 253.53 29.66"/>
      <polygon class="cls-1" points="284.69 26.45 289.98 26.45 290.44 14.9 290.66 9.32 256.35 9.32 256.56 14.9 284.23 14.9 284.69 26.45"/>
      <polygon class="cls-1" points="218.95 36.88 212.19 36.88 212.53 45.11 212.76 50.71 218.38 50.71 246.14 50.71 246.29 45.11 218.6 45.11 218.95 36.88"/>
      <polygon class="cls-1" points="209.18 29.57 209.34 35.15 226.66 35.15 227.05 41.55 232.34 41.55 232.72 35.15 249.06 35.15 249.21 29.57 209.18 29.57"/>
      <path class="cls-1" d="M246.3,9.32h-34.22l.68,17.04h32.86l.68-17.04ZM218.51,14.9h21.37l.23,5.87h-21.83l.23-5.87Z"/>
      <polygon class="cls-1" points="196 8.63 196.18 18.35 192.6 18.35 192.77 8.63 186.01 8.63 186.36 31.31 172.96 31.31 173.2 14.91 183.11 14.91 183.26 9.32 166.58 9.32 167.02 36.91 186.46 36.91 186.74 50.67 192.03 50.67 192.5 23.95 196.27 23.95 196.74 50.67 202.03 50.67 202.76 8.63 196 8.63"/>
      <polygon class="cls-1" points="152.16 8.63 152.33 18.35 146.1 18.35 146.25 23.95 152.43 23.95 152.89 50.67 158.18 50.67 158.91 8.63 152.16 8.63"/>
      <polygon class="cls-1" points="136.6 8.93 130.79 8.93 130.3 15.2 119.16 33.57 123.4 36.27 133.7 21.79 143.99 36.27 148.23 33.57 137.08 15.2 136.6 8.93"/>
      <path class="cls-1" d="M124.55,73.56v.49c0,.57.09,1.05.28,1.42.18.38.42.69.72.92.3.23.64.4,1.01.5.37.1.75.15,1.13.15.47,0,.91-.05,1.32-.14.42-.09.77-.25,1.06-.46.29-.22.53-.5.7-.85.18-.35.26-.77.26-1.27,0-.61-.21-1.13-.62-1.55-.42-.42-.94-.8-1.56-1.13-.63-.34-1.3-.66-2.03-.98-.73-.31-1.4-.67-2.03-1.08-.62-.42-1.14-.91-1.56-1.47-.42-.56-.63-1.27-.63-2.1,0-.74.14-1.39.42-1.96.28-.56.67-1.04,1.16-1.43.49-.38,1.08-.67,1.76-.86.68-.19,1.4-.29,2.18-.29,1.72,0,3.04.39,3.95,1.17.91.78,1.33,2.03,1.26,3.72h-2.5c.02-.91-.18-1.65-.58-2.2-.41-.56-1.18-.84-2.3-.84-.37,0-.72.04-1.06.13-.34.08-.65.22-.92.41-.27.19-.5.45-.66.76-.17.32-.25.7-.25,1.15,0,.62.21,1.13.63,1.54.42.41.94.78,1.56,1.12.62.33,1.3.65,2.04.97.72.31,1.4.68,2.03,1.1.63.42,1.15.93,1.56,1.52.42.59.62,1.33.62,2.21s-.16,1.62-.48,2.21c-.32.6-.75,1.08-1.27,1.44-.53.36-1.14.62-1.85.78-.7.15-1.44.23-2.22.23-.92.01-1.7-.08-2.33-.27-.63-.19-1.15-.44-1.56-.74-.42-.3-.73-.65-.96-1.04-.22-.4-.39-.79-.48-1.18-.1-.39-.15-.78-.17-1.15-.02-.37-.02-.69,0-.95h2.39Z"/>
      <polygon class="cls-1" points="136.14 78.54 136.14 61.82 145.83 61.82 145.83 63.67 138.54 63.67 138.54 69.04 145.31 69.04 145.31 70.89 138.54 70.89 138.54 76.68 145.99 76.68 145.99 78.54 136.14 78.54"/>
      <path class="cls-1" d="M153.93,77.1c.57,0,1.07-.07,1.5-.19.42-.13.78-.37,1.08-.72.29-.35.51-.82.66-1.42s.22-1.35.22-2.26v-5.65c0-.88-.14-1.57-.43-2.05-.29-.49-.63-.84-1.01-1.08-.39-.23-.78-.37-1.16-.42-.39-.04-.67-.07-.86-.07s-.48.03-.86.07c-.38.05-.76.19-1.16.42-.39.24-.72.59-1.01,1.08-.29.48-.43,1.17-.43,2.05v5.65c0,.91.07,1.66.22,2.26s.37,1.06.66,1.42c.29.35.66.59,1.08.72.42.12.92.19,1.5.19M153.93,78.89c-2,0-3.48-.5-4.46-1.5-.97-1-1.46-2.65-1.46-4.97v-5.49c0-1.67.49-3,1.46-3.99.97-.98,2.46-1.48,4.46-1.48s3.48.5,4.46,1.48c.97.99,1.45,2.32,1.45,3.99v5.49c0,2.32-.49,3.97-1.45,4.97-.98,1-2.47,1.5-4.46,1.5"/>
      <path class="cls-1" d="M165.21,76.68h2.26c.84,0,1.54-.07,2.12-.23.59-.15,1.05-.42,1.41-.81.35-.39.61-.9.78-1.54.17-.64.25-1.45.25-2.42v-3.38c0-1.68-.3-2.88-.9-3.58-.6-.7-1.53-1.05-2.78-1.05h-3.15v13.01ZM162.81,61.82h5.79c1.2,0,2.22.2,3.08.6.84.4,1.51,1.05,1.97,1.95.2.36.34.8.46,1.34.11.54.19,1.08.25,1.62.05.54.08,1.03.1,1.46.02.44.03.72.03.86,0,1.79-.1,3.22-.28,4.29-.19,1.08-.48,1.89-.88,2.44-.5.73-1.24,1.27-2.24,1.62-.99.36-2.31.53-3.96.53h-4.33v-16.72Z"/>
      <path class="cls-1" d="M183.18,63.78h-.05l-2.95,8.92h6.02l-3.02-8.92ZM181.72,61.82h3.05l6.12,16.72h-2.69l-1.35-3.98h-7.27l-1.41,3.98h-2.42l5.96-16.72Z"/>
      <polygon class="cls-1" points="192.97 78.54 192.97 61.82 202.67 61.82 202.67 63.67 195.37 63.67 195.37 69.04 202.14 69.04 202.14 70.89 195.37 70.89 195.37 76.68 202.82 76.68 202.82 78.54 192.97 78.54"/>
      <polygon class="cls-1" points="207.49 78.54 205.25 78.54 205.25 61.82 209.13 61.82 213.86 75.85 213.92 75.85 218.71 61.82 222.67 61.82 222.67 78.54 220.27 78.54 220.27 63.67 220.22 63.67 214.96 78.54 212.69 78.54 207.54 63.67 207.49 63.67 207.49 78.54"/>
      <path class="cls-1" d="M225.71,61.82h2.4v10.7c0,.91.07,1.66.23,2.26.16.6.38,1.06.68,1.42.29.34.66.59,1.09.72.44.12.94.19,1.51.19s1.08-.07,1.51-.19c.43-.13.8-.38,1.1-.72.29-.35.52-.82.68-1.42.16-.59.23-1.35.23-2.26v-10.7h2.4v10.61c0,2.32-.49,3.97-1.46,4.97-.97,1-2.45,1.5-4.45,1.5s-3.48-.5-4.46-1.5c-.97-1-1.46-2.65-1.46-4.97v-10.61Z"/>
      <polygon class="cls-1" points="253.51 61.82 253.51 78.54 250.23 78.54 242.81 64.04 242.75 64.04 242.75 78.54 240.61 78.54 240.61 61.82 244 61.82 251.32 76.13 251.37 76.13 251.37 61.82 253.51 61.82"/>
      <rect class="cls-1" x="256.25" y="71.33" width="5.72" height="1.79"/>
      <path class="cls-1" d="M273.8,66.29c0-.99-.26-1.74-.75-2.26-.5-.51-1.36-.78-2.58-.78-.19,0-.48.03-.86.07-.38.05-.76.19-1.15.42-.39.23-.73.59-1.02,1.08-.29.48-.43,1.17-.43,2.05v5.65c0,.91.07,1.66.22,2.26.14.59.37,1.07.66,1.41.29.34.65.59,1.08.72.43.13.93.19,1.5.19.86,0,1.58-.08,2.15-.24.57-.16.97-.33,1.21-.49v-5.01h-3.46v-1.85h5.86v8.13c-.78.37-1.63.67-2.55.9-.92.23-1.98.35-3.2.35-2,0-3.48-.5-4.46-1.5-.97-1-1.46-2.65-1.46-4.97v-5.49c0-1.66.49-2.99,1.46-3.99.97-.98,2.46-1.48,4.46-1.48s3.53.36,4.49,1.1c.96.73,1.41,1.97,1.34,3.72h-2.5Z"/>
      <path class="cls-1" d="M279.28,61.82h2.39v10.7c0,.91.08,1.66.24,2.26.15.6.38,1.06.68,1.42.29.34.66.59,1.09.72.44.12.94.19,1.51.19s1.08-.07,1.51-.19c.44-.13.8-.38,1.09-.72.29-.35.52-.82.68-1.42.16-.59.24-1.35.24-2.26v-10.7h2.4v10.61c0,2.32-.49,3.97-1.46,4.97-.97,1-2.45,1.5-4.45,1.5s-3.48-.5-4.45-1.5c-.98-1-1.46-2.65-1.46-4.97v-10.61Z"/>
    </g>
  </g>
</svg>