<svg width="40" height="40" viewBox="0 0 40 40" fill="none" xmlns="http://www.w3.org/2000/svg">
<path d="M38.4278 12.2146C37.4205 9.83286 35.9784 7.69423 34.1421 5.85791C32.3058 4.0216 30.1671 2.57952 27.7854 1.57225C25.3188 0.52906 22.6992 0 19.9998 0C17.3003 0 14.6812 0.52906 12.2146 1.57225C9.83286 2.57952 7.69423 4.0216 5.85791 5.85791C4.0216 7.69423 2.57952 9.83286 1.57225 12.2146C0.52906 14.6812 0 17.3003 0 19.9998C0 22.6992 0.52906 25.3184 1.57225 27.7854C2.57952 30.1671 4.0216 32.3058 5.85791 34.1421C7.69423 35.9784 9.83286 37.4205 12.2146 38.4278C14.6812 39.4709 17.3003 40 19.9998 40C22.6992 40 25.3184 39.4709 27.7854 38.4278C30.1671 37.4205 32.3058 35.9784 34.1421 34.1421C35.9784 32.3058 37.4205 30.1671 38.4278 27.7854C39.4709 25.3188 40 22.6992 40 19.9998C40 17.3003 39.4709 14.6812 38.4278 12.2146ZM19.9998 37.2007C10.5149 37.2007 2.79879 29.4846 2.79879 19.9998C2.79879 10.5149 10.5149 2.79879 19.9998 2.79879C29.4846 2.79879 37.2007 10.5149 37.2007 19.9998C37.2007 29.4846 29.4846 37.2007 19.9998 37.2007Z" fill="#555555"/>
<path d="M30.6673 17.9208V22.0771H27.8482C27.6603 22.7869 27.3779 23.4544 27.0155 24.0779L29.0129 26.0741L26.0761 29.0135L24.0777 27.0132C23.4568 27.3803 22.7908 27.6633 22.0792 27.8514V30.6665H17.9273V27.8514C17.2157 27.6633 16.5477 27.3803 15.9257 27.0173L13.9293 29.0177L10.9915 26.0783L12.9893 24.0779C12.6272 23.463 12.3452 22.791 12.1572 22.082H9.33398V17.9253H12.1551C12.3431 17.2156 12.6241 16.5453 12.9869 15.926L10.9915 13.9304L13.9272 10.9951L15.9209 12.9876C16.5452 12.6228 17.2112 12.3415 17.9252 12.1531V9.33317H22.0775V12.1531C22.7888 12.3415 23.4571 12.6225 24.078 12.9876L26.0765 10.991L29.0112 13.9263L27.0158 15.9263C27.3779 16.5457 27.6606 17.2121 27.8486 17.9215H30.6673V17.9208ZM19.9994 16.1217C17.8605 16.1217 16.1226 17.8612 16.1226 20.0012C16.1247 22.1422 17.8605 23.8808 19.9994 23.8808C22.1384 23.8808 23.8807 22.1422 23.8807 20.0012C23.8807 17.8654 22.1384 16.1217 19.9994 16.1217Z" fill="#555555"/>
</svg>
