<svg width="172" height="64" fill="none" xmlns="http://www.w3.org/2000/svg"><g clip-path="url(#a)"><path d="M95.397 8.982s-.634-.276-.842.214c-.207.483-1.211 4.635-3.075 6.174-1.865 1.546-2.913 2.255-2.913 2.255s-.765.453-.52.892c.244.44 1.035.471 1.619.277.584-.195 2.328-1.364 3.27-2.381.941-1.024 2.743-3.794 3.258-5.207.52-1.407-.113-1.866-.791-2.224h-.007ZM104.228 12.644c-.358-.113-.841.195-1.098.29-.258.1-.678.276-1.118.326a7.674 7.674 0 0 1-.922.019c.037-1.012.081-2.017.163-2.613.163-1.25.163-1.357.238-1.765.082-.409.226-.704-.257-.943-.49-.238-1.28-.458-1.38-.483 0 0-.679-.245-.78.326-.093.566.359 3.436.227 6.244-.132 2.808-.126 5.17-.1 5.948.024.78.928 1.3 1.286.095.358-1.2.358-2.74.471-3.97.031-.34.056-.81.075-1.338.308-.364.929-.201 1.287-.201.483 0 1.506.195 1.883.257.37.07.502-.031.678-.628.169-.603.182-1.137.088-1.25-.101-.113-.371-.194-.728-.308l-.013-.006ZM97.418 16.426c-.42-.327-.703-.679-1.237-.987-.527-.307-.872-.37-1.148-.326 0 0-.616-.082-.34.615.277.698.848 2.092 1.676 2.563.829.471 1.024-.534 1.218-.892.195-.358.245-.647-.176-.973h.007ZM110.059 12.6s.609.44 1.118-.17c.508-.609.609-.898.973-1.312.364-.415-.239-.892-.729-.942-.489-.057-1.65.037-1.97 0 0 0-.703-.176-.823.213-.119.39-.15.836.264 1.269.414.433 1.167.942 1.167.942ZM111.691 19.51c.484.653.559.32.559.32s.634-.49 1.092-.873c.465-.39.559-.754 0-1.219-.42-.345-1.782-.779-2.435-.973.414-.346.778-.66 1.048-.899.703-.634 1.776-1.432 1.626-2.04-.145-.61-.289-1.05-1.168-1.012-.872.037-1.964.352-3.452.546-1.481.195-2.793.208-3.013.17 0 0-.753-.22-.653.364.101.584.27.804.653 1.05.389.238.948.169 2.04-.145s2.172-.553 2.41-.51c.239.045.195.265 0 .485-.2.22-1.073 2.192-4.456 4.039 0 0-.458.358-.515.703-.044.345.075.559.659.44.584-.12 1.613-.465 2.68-1.389.32-.276.672-.577 1.03-.873.615.434 1.55 1.37 1.883 1.822l.012-.006Z" fill="#EA5506"/><path d="M112.909 16.865c.289.333 1.507.214 1.808.138.301-.075 1.105-.307 1.18-.138.075.164.169.076.22 1.326.05 1.25-.12 2.964-.051 3.473.076.503.559.967.829.697.27-.27.534-.44.753-1.582.22-1.144.245-3.65.364-4.793.126-1.143.534-3.505.684-4.039.145-.534.195-1.388-.634-1.652-.828-.27-1.286-.27-1.286-.27s-.609-.145-.659.364c-.051.509.169 4.259 0 4.743-.17.483-.785.458-1.218.483-.433.025-1.864.296-2.084.51-.22.219-.195.401.1.734l-.006.006ZM118.175 23.768c-.401.145-1.085.415-2.717.56-1.626.144-3.767.169-3.767.169s-.703-.044-.546-.584c0 0 .113-.823.157-1.288.05-.465.17-.823-.483-1.093-.659-.27-1.048-.22-1.048-.22s-.603-.132-.653.346c-.05.477.169.854.22 1.897.05 1.036-.088 1.407-.088 1.407s.062.948.916.898c.854-.05 2.599-.289 4.45-.34 1.846-.05 2.674.076 3.013.076.339 0 1.18 0 1.381-.39.201-.389.44-.922.126-1.218-.314-.289-.546-.364-.954-.22h-.007Z" fill="#EA5506"/><path d="M35.364 16.627c-.037-.157-.031-.183-.358-.189-.326-.012-1.4.15-1.6.15-.201 0-.057-.307-.013-.59.044-.282.314-.734.308-.866-.013-.126-.025-.39-.182-.402 0 0-.61-.05-.766-.107-.157-.05-.402.094-.383.42.025.327.232.937.295 1.226.019.088.019.232 0 .402-.207.031-.81.119-.998.119-.22 0-1.268-.12-1.437.107-.17.226-.12.383-.07.527.038.151.308.252.603.226.295-.031 1.01-.226 1.318-.295.308-.075.44-.232.496-.056-.031.17-.063.32-.088.408-.088.283-.583.898-.778 1.087-.2.188-.822.59-.898.936-.075.351-.044.684.05.917.095.232.214.665.773.603.558-.063 1.676-.296 2.058-.308.383-.013 1.024 0 1.18-.622.157-.622.095-1.162-.54-1.79-.633-.635-.815-.729-.847-1.068-.031-.34.044-.377.327-.39.282-.012 1.105.044 1.368-.018.264-.063.22-.252.176-.415l.006-.012Zm-1.293 2.606c.251.377.17.622 0 .873-.17.258-.653.245-.985.29-.333.037-.69-.026-.998-.126-.308-.107-.245-.453-.139-.54.107-.082.81-1.194.948-1.389.138-.2.233-.044.233-.044.075.057.684.56.941.943v-.007ZM36.971 14.208s-.508-.075-.464.296c.044.37.087 1.626.075 2.26-.013.635.1 1.829.157 2.733.056.91-.195 2.33-.232 2.532-.044.2-.145.464.163.609.307.144.64-.044.76-.547.118-.509.244-3.134.326-4.07.081-.942.232-1.935.288-2.418.05-.49.189-.867-.157-1.15-.345-.282-.903-.239-.903-.239l-.013-.006Z" fill="#4C4A49"/><path d="M37.58 18.178s1.845-.012 2.09-.044c.239-.031.496-.063.64.138.145.201.182.346 0 .647-.182.295-.433.34-.69.295-.251-.043-1.802-.42-1.946-.25-.144.169-.176-.057-.176-.057l.076-.729h.006ZM43.964 14.956s-.182-.145-.484-.182c-.307-.032-.483.182-.464.377.025.2.125 1.099.094 1.626-.032.528-.044.622-.094.855-.05.232-.107.49.433.47.54-.018 3.509-.364 4.438-.414.929-.05.634.145.866.044.232-.107.389-.565.401-.678.013-.12 0-.484-.433-.415-.433.076-.583.138-1.054.22-.477.082-2.592.39-2.975.477-.383.082-.71.076-.71.076s-.106.012-.075-.17c.031-.182.188-1.275.22-1.595.031-.32 0-.597-.17-.697l.007.006ZM41.654 19.309s-.528-.07-.666-.082c-.138-.012-.245.157-.245.289 0 .132.139.308.245.603.107.295.201.39.59.251.39-.138 3.346-.728 4.313-.81.966-.082 2.391-.075 3.006.006.615.088 1.507.214 1.595.076.087-.139.22-.446.169-.698-.05-.25-.188-.245-.326-.213-.139.031-2.932.157-3.49.188-.559.032-1.764.145-2.448.201-.685.05-2.26.239-2.743.182v.007ZM43.091 20.816s-.295-.075-.276.182c.019.252.232.478.276.584.044.107.339.044.697 0 .358-.044 1.864-.282 2.423-.332.558-.05 1.236-.082 1.368-.07.138.007.251-.043.232.283-.019.327-.106.578-.106.578s-.013.132-.233.145c-.22.025-3.27.295-3.64.326-.37.032-.779-.019-.81.402-.031.421.063.452-.044 1.206-.107.748-.069.603.17.741.244.139 1.782-.063 2.447-.119.666-.05 2.417-.308 3.415-.12 1.005.19 1.023.126 1.13.026.107-.107.276-.402.232-.56-.044-.156-.182-.357-.514-.307-.34.05-1.74.113-2.561.182-.823.063-2.838.295-2.838.295s-.445.113-.495-.138c-.05-.251-.139-.634-.095-.76.044-.125.157-.32.741-.345.578-.032 2.297-.113 2.712-.157.408-.044 1.167-.057 1.343-.553.163-.496.063-.792.301-1.055.245-.27-.213-.56-.401-.66-.189-.107-.327-.2-.773-.075-.439.132-1.707.2-2.247.264-.54.062-1.707.182-1.877.157-.169-.02-.527-.05-.577-.113v-.007ZM81.587 18.153s-.307.044-.138.276c.17.233.214.283.496.183.283-.107 2.19-.39 2.454-.377.264.012.233.075.233.182 0 .106.012.2 0 .32-.013.113.05.314-.314.408-.37.095-2.385.314-2.385.314s-.314-.012-.308.139c.013.144-.063 1.268-.063 1.268s-.075.183.132.252c.213.075.433.075.747 0 .32-.076 1.362-.327 2.272-.264.904.063 1.099.05 1.099.05s.376.076.376-.188-.17-.622-.514-.484c-.352.138-1.337.182-1.884.239-.546.063-1.11.138-1.274.157-.157.025-.358.094-.376-.126-.02-.22-.032-.42-.032-.42s-.075-.202.27-.252c.352-.056 1.795-.245 2.203-.314.415-.075.603-.188.64-.433.045-.245.063-.804.032-.98-.031-.176-.113-.402-.37-.402-.258 0-1.118.17-1.614.264-.495.094-1.694.2-1.694.2l.012-.012Z" fill="#4C4A49"/><path d="M83.175 20.804s.182.238.189.364c.012.126.063.565 0 .653-.063.082-.415.226-.572.277-.156.05-1.286.238-1.613.238-.326 0-.822-.094-.84.095-.02.188.062.433.175.527.12.094.182.113.446.076.263-.044 2.711-.93 5.228-.604 0 0 .477.107.559-.119.088-.22.088-.452-.22-.452h-1.845c-.358 0-.59.012-.603-.37-.006-.378-.006-.673.264-.78l-1.174.095h.006ZM52.324 18.122s-.307.044-.138.276c.17.232.214.282.496.182.289-.107 2.197-.39 2.46-.377.264.013.233.076.233.182 0 .107.013.201 0 .32-.013.114.05.315-.314.415-.37.094-2.385.314-2.385.314s-.314-.012-.308.132c.013.15-.063 1.269-.063 1.269s-.075.182.139.251c.213.076.433.076.747 0 .32-.075 1.362-.326 2.272-.263.904.062 1.092.05 1.092.05s.377.075.377-.189-.164-.622-.515-.483c-.345.138-1.337.182-1.883.238-.54.063-1.111.139-1.268.157-.157.026-.358.095-.377-.125a5.788 5.788 0 0 1-.031-.421s-.075-.201.276-.251c.345-.057 1.795-.245 2.203-.314.415-.076.603-.189.647-.434.044-.245.063-.804.031-.98-.031-.182-.12-.402-.37-.402-.251 0-1.117.17-1.613.264s-1.701.201-1.701.201l-.007-.012Z" fill="#4C4A49"/><path d="M53.919 20.772s.182.239.188.365c.006.125.063.565 0 .653-.063.081-.414.226-.571.276-.157.05-1.287.239-1.613.239-.327 0-.823-.094-.848.094-.025.188.063.433.176.528.12.094.182.113.446.075.263-.044 2.711-.93 5.228-.603 0 0 .477.107.565-.12.082-.22.082-.451-.22-.451h-1.845c-.358 0-.59.012-.602-.371-.013-.377-.013-.672.263-.779l-1.167.094ZM64.998 15.854c-.208-.113-.465-.107-.547-.157-.087-.05-.276.013-.288.232-.007.22-.113 1.564-.113 1.633 0 .07 0 .189-.17.22-.17.032-2.51.264-2.642.245-.126-.025-.208-.138-.208-.339 0-.2.095-1.57.082-1.646-.013-.075-.031-.22-.295-.295l-.747.057s-.257-.057-.245.47c.013.528.402 2.664.496 3.525.094.867-.157 1.01.496 1.212.653.2 2.668-.188 3.088-.232.42-.044.772-.12.81-.742.044-.621.339-3.228.402-3.492.063-.264.081-.584-.126-.697l.007.006Zm-1.331 4.466c-.289.063-1.952.138-2.229.12-.27-.026-.483.012-.376-.478 0 0 .006-.56-.032-.835-.037-.277-.056-.371.233-.465l2.542-.214s.188-.075.188.258-.082 1.275-.082 1.275.044.276-.244.339ZM66.749 14.233s-.465-.106-.415.308c.05.415.138 6.15.12 7.142-.02.992-.05 1.344.226 1.445.276.094.646-.39.665-1.432.013-1.037.082-3.763.126-4.391.05-.634 0-1.363.081-1.796.082-.44.163-.943-.194-1.125-.358-.176-.616-.15-.616-.15h.007Z" fill="#4C4A49"/><path d="M67.232 17.826s.289.553.778.547c.484 0 .841-.1 1.118-.132.276-.032.665-.245.797.031.132.277.075.729-.163.873-.245.145-.471.164-.892.082-.42-.082-.565-.207-.954-.308-.389-.094-.584-.031-.584.145s-.094-1.244-.094-1.244l-.006.006ZM77.187 14.233s-.458-.106-.414.308c.05.415.138 6.15.12 7.142-.013.992-.045 1.344.225 1.445.276.094.653-.39.666-1.432.018-1.037.081-3.763.131-4.391.05-.634 0-1.363.082-1.796.082-.44.163-.943-.195-1.125-.357-.176-.615-.15-.615-.15Z" fill="#4C4A49"/><path d="M77.67 17.826s.296.553.779.547c.483 0 .841-.1 1.117-.132s.665-.245.791.031c.126.277.075.729-.163.873-.245.145-.47.164-.892.082-.42-.082-.564-.207-.954-.308-.389-.094-.583-.031-.583.145s-.1-1.244-.1-1.244l.005.006ZM76.27 19.962c-.05-.163-.162-.308-.451-.327-.295-.012-3.27.214-3.71.226-.433.02-.47-.113-.47-.288 0-.176.03-2.073.03-2.073s-.062-.44.647-.503c.716-.063 1.996-.094 2.367-.132.37-.031.728-.144.596-.42-.126-.277-.195-.34-.747-.327-.552.019-2.705.207-3.27.245 0 0-.791-.145-.81.39-.019.533.226 2.694.063 3.064-.163.371-.113.553.063.666.175.113 4.218-.195 4.864-.163.647.031.873-.195.823-.358h.006ZM35.364 16.627c-.037-.157-.031-.183-.358-.189-.326-.012-1.4.15-1.6.15-.201 0-.057-.307-.013-.59.044-.282.314-.734.308-.866-.013-.126-.025-.39-.182-.402 0 0-.61-.05-.766-.107-.157-.05-.402.094-.383.42.025.327.232.937.295 1.226.019.088.019.232 0 .402-.207.031-.81.119-.998.119-.22 0-1.268-.12-1.437.107-.17.226-.12.383-.07.527.038.151.308.252.603.226.295-.031 1.01-.226 1.318-.295.308-.075.44-.232.496-.056-.031.17-.063.32-.088.408-.088.283-.583.898-.778 1.087-.2.188-.822.59-.898.936-.075.351-.044.684.05.917.095.232.214.665.773.603.558-.063 1.676-.296 2.058-.308.383-.013 1.024 0 1.18-.622.157-.622.095-1.162-.54-1.79-.633-.635-.815-.729-.847-1.068-.031-.34.044-.377.327-.39.282-.012 1.105.044 1.368-.018.264-.063.22-.252.176-.415l.006-.012Zm-1.293 2.606c.251.377.17.622 0 .873-.17.258-.653.245-.985.29-.333.037-.69-.026-.998-.126-.308-.107-.245-.453-.139-.54.107-.082.81-1.194.948-1.389.138-.2.233-.044.233-.044.075.057.684.56.941.943v-.007ZM36.971 14.208s-.508-.075-.464.296c.044.37.087 1.626.075 2.26-.013.635.1 1.829.157 2.733.056.91-.195 2.33-.232 2.532-.044.2-.145.464.163.609.307.144.64-.044.76-.547.118-.509.244-3.134.326-4.07.081-.942.232-1.935.288-2.418.05-.49.189-.867-.157-1.15-.345-.282-.903-.239-.903-.239l-.013-.006Z" fill="#4C4A49"/><path d="M37.58 18.178s1.845-.012 2.09-.044c.239-.031.496-.063.64.138.145.201.182.346 0 .647-.182.295-.433.34-.69.295-.251-.043-1.802-.42-1.946-.25-.144.169-.176-.057-.176-.057l.076-.729h.006ZM43.964 14.956s-.182-.145-.484-.182c-.307-.032-.483.182-.464.377.025.2.125 1.099.094 1.626-.032.528-.044.622-.094.855-.05.232-.107.49.433.47.54-.018 3.509-.364 4.438-.414.929-.05.634.145.866.044.232-.107.389-.565.401-.678.013-.12 0-.484-.433-.415-.433.076-.583.138-1.054.22-.477.082-2.592.39-2.975.477-.383.082-.71.076-.71.076s-.106.012-.075-.17c.031-.182.188-1.275.22-1.595.031-.32 0-.597-.17-.697l.007.006ZM41.654 19.309s-.528-.07-.666-.082c-.138-.012-.245.157-.245.289 0 .132.139.308.245.603.107.295.201.39.59.251.39-.138 3.346-.728 4.313-.81.966-.082 2.391-.075 3.006.006.615.088 1.507.214 1.595.076.087-.139.22-.446.169-.698-.05-.25-.188-.245-.326-.213-.139.031-2.932.157-3.49.188-.559.032-1.764.145-2.448.201-.685.05-2.26.239-2.743.182v.007ZM43.091 20.816s-.295-.075-.276.182c.019.252.232.478.276.584.044.107.339.044.697 0 .358-.044 1.864-.282 2.423-.332.558-.05 1.236-.082 1.368-.07.138.007.251-.043.232.283-.019.327-.106.578-.106.578s-.013.132-.233.145c-.22.025-3.27.295-3.64.326-.37.032-.779-.019-.81.402-.031.421.063.452-.044 1.206-.107.748-.069.603.17.741.244.139 1.782-.063 2.447-.119.666-.05 2.417-.308 3.415-.12 1.005.19 1.023.126 1.13.026.107-.107.276-.402.232-.56-.044-.156-.182-.357-.514-.307-.34.05-1.74.113-2.561.182-.823.063-2.838.295-2.838.295s-.445.113-.495-.138c-.05-.251-.139-.634-.095-.76.044-.125.157-.32.741-.345.578-.032 2.297-.113 2.712-.157.408-.044 1.167-.057 1.343-.553.163-.496.063-.792.301-1.055.245-.27-.213-.56-.401-.66-.189-.107-.327-.2-.773-.075-.439.132-1.707.2-2.247.264-.54.062-1.707.182-1.877.157-.169-.02-.527-.05-.577-.113v-.007ZM81.587 18.153s-.307.044-.138.276c.17.233.214.283.496.183.283-.107 2.19-.39 2.454-.377.264.012.233.075.233.182 0 .106.012.2 0 .32-.013.113.05.314-.314.408-.37.095-2.385.314-2.385.314s-.314-.012-.308.139c.013.144-.063 1.268-.063 1.268s-.075.183.132.252c.213.075.433.075.747 0 .32-.076 1.362-.327 2.272-.264.904.063 1.099.05 1.099.05s.376.076.376-.188-.17-.622-.514-.484c-.352.138-1.337.182-1.884.239-.546.063-1.11.138-1.274.157-.157.025-.358.094-.376-.126-.02-.22-.032-.42-.032-.42s-.075-.202.27-.252c.352-.056 1.795-.245 2.203-.314.415-.075.603-.188.64-.433.045-.245.063-.804.032-.98-.031-.176-.113-.402-.37-.402-.258 0-1.118.17-1.614.264-.495.094-1.694.2-1.694.2l.012-.012Z" fill="#4C4A49"/><path d="M83.175 20.804s.182.238.189.364c.012.126.063.565 0 .653-.063.082-.415.226-.572.277-.156.05-1.286.238-1.613.238-.326 0-.822-.094-.84.095-.02.188.062.433.175.527.12.094.182.113.446.076.263-.044 2.711-.93 5.228-.604 0 0 .477.107.559-.119.088-.22.088-.452-.22-.452h-1.845c-.358 0-.59.012-.603-.37-.006-.378-.006-.673.264-.78l-1.174.095h.006ZM52.324 18.122s-.307.044-.138.276c.17.232.214.282.496.182.289-.107 2.197-.39 2.46-.377.264.013.233.076.233.182 0 .107.013.201 0 .32-.013.114.05.315-.314.415-.37.094-2.385.314-2.385.314s-.314-.012-.308.132c.013.15-.063 1.269-.063 1.269s-.075.182.139.251c.213.076.433.076.747 0 .32-.075 1.362-.326 2.272-.263.904.062 1.092.05 1.092.05s.377.075.377-.189-.164-.622-.515-.483c-.345.138-1.337.182-1.883.238-.54.063-1.111.139-1.268.157-.157.026-.358.095-.377-.125a5.788 5.788 0 0 1-.031-.421s-.075-.201.276-.251c.345-.057 1.795-.245 2.203-.314.415-.076.603-.189.647-.434.044-.245.063-.804.031-.98-.031-.182-.12-.402-.37-.402-.251 0-1.117.17-1.613.264s-1.701.201-1.701.201l-.007-.012Z" fill="#4C4A49"/><path d="M53.919 20.772s.182.239.188.365c.006.125.063.565 0 .653-.063.081-.414.226-.571.276-.157.05-1.287.239-1.613.239-.327 0-.823-.094-.848.094-.025.188.063.433.176.528.12.094.182.113.446.075.263-.044 2.711-.93 5.228-.603 0 0 .477.107.565-.12.082-.22.082-.451-.22-.451h-1.845c-.358 0-.59.012-.602-.371-.013-.377-.013-.672.263-.779l-1.167.094ZM64.998 15.854c-.208-.113-.465-.107-.547-.157-.087-.05-.276.013-.288.232-.007.22-.113 1.564-.113 1.633 0 .07 0 .189-.17.22-.17.032-2.51.264-2.642.245-.126-.025-.208-.138-.208-.339 0-.2.095-1.57.082-1.646-.013-.075-.031-.22-.295-.295l-.747.057s-.257-.057-.245.47c.013.528.402 2.664.496 3.525.094.867-.157 1.01.496 1.212.653.2 2.668-.188 3.088-.232.42-.044.772-.12.81-.742.044-.621.339-3.228.402-3.492.063-.264.081-.584-.126-.697l.007.006Zm-1.331 4.466c-.289.063-1.952.138-2.229.12-.27-.026-.483.012-.376-.478 0 0 .006-.56-.032-.835-.037-.277-.056-.371.233-.465l2.542-.214s.188-.075.188.258-.082 1.275-.082 1.275.044.276-.244.339ZM66.749 14.233s-.465-.106-.415.308c.05.415.138 6.15.12 7.142-.02.992-.05 1.344.226 1.445.276.094.646-.39.665-1.432.013-1.037.082-3.763.126-4.391.05-.634 0-1.363.081-1.796.082-.44.163-.943-.194-1.125-.358-.176-.616-.15-.616-.15h.007Z" fill="#4C4A49"/><path d="M67.232 17.826s.289.553.778.547c.484 0 .841-.1 1.118-.132.276-.032.665-.245.797.031.132.277.075.729-.163.873-.245.145-.471.164-.892.082-.42-.082-.565-.207-.954-.308-.389-.094-.584-.031-.584.145s-.094-1.244-.094-1.244l-.006.006ZM77.187 14.233s-.458-.106-.414.308c.05.415.138 6.15.12 7.142-.013.992-.045 1.344.225 1.445.276.094.653-.39.666-1.432.018-1.037.081-3.763.131-4.391.05-.634 0-1.363.082-1.796.082-.44.163-.943-.195-1.125-.357-.176-.615-.15-.615-.15Z" fill="#4C4A49"/><path d="M77.67 17.826s.296.553.779.547c.483 0 .841-.1 1.117-.132s.665-.245.791.031c.126.277.075.729-.163.873-.245.145-.47.164-.892.082-.42-.082-.564-.207-.954-.308-.389-.094-.583-.031-.583.145s-.1-1.244-.1-1.244l.005.006ZM76.27 19.962c-.05-.163-.162-.308-.451-.327-.295-.012-3.27.214-3.71.226-.433.02-.47-.113-.47-.288 0-.176.03-2.073.03-2.073s-.062-.44.647-.503c.716-.063 1.996-.094 2.367-.132.37-.031.728-.144.596-.42-.126-.277-.195-.34-.747-.327-.552.019-2.705.207-3.27.245 0 0-.791-.145-.81.39-.019.533.226 2.694.063 3.064-.163.371-.113.553.063.666.175.113 4.218-.195 4.864-.163.647.031.873-.195.823-.358h.006ZM128.231 19.07s-.307.038-.138.27c.169.233.213.289.496.182.282-.106 2.197-.39 2.46-.377.264.007.233.076.233.183 0 .106.012.2 0 .314-.013.119.05.32-.314.414-.371.094-2.385.314-2.385.314s-.314-.006-.302.138c.007.145-.062 1.27-.062 1.27s-.076.181.138.25c.207.076.433.076.747 0 .313-.075 1.362-.326 2.266-.263.91.063 1.098.05 1.098.05s.383.075.383-.189c0-.263-.17-.621-.515-.483s-1.337.176-1.883.238c-.546.063-1.111.139-1.274.157-.157.02-.358.095-.377-.125-.019-.22-.031-.42-.031-.42s-.075-.202.276-.252c.352-.05 1.795-.245 2.203-.314.415-.076.597-.189.641-.434.043-.245.062-.804.031-.98-.031-.182-.113-.402-.37-.402-.258 0-1.118.17-1.614.264-.495.095-1.701.201-1.701.201l-.006-.006Z" fill="#4C4A49"/><path d="M129.825 21.714s.182.24.189.358c.006.126.062.566 0 .654-.063.081-.415.22-.571.276-.157.057-1.287.245-1.614.245-.326 0-.822-.094-.841.094-.019.189.063.434.182.528.113.094.176.12.44.075.263-.044 2.711-.93 5.228-.603 0 0 .471.107.559-.113.082-.22.082-.452-.22-.452h-1.845c-.358 0-.59.012-.603-.37-.012-.377-.012-.673.264-.78l-1.168.095v-.007ZM121.753 20.515l.245.508s.119.308.603.252c.483-.057 1.657-.057 1.958-.126.301-.075.81-.345.885-1.18.075-.836-.841-1.571-1.481-1.596 0 0-.678-.264-1.193.339a8.762 8.762 0 0 1-1.023 1.024s-.439.44 0 .779h.006Zm1.092-1.024c.365-.364.829-.603.829-.603.534-.05.829.414 1.023.703.195.29.245.56 0 .704-.245.144-1.651.61-2.065.245-.414-.364-.144-.685.22-1.05h-.007ZM126.342 22.242c-.339.05-1.915.295-2.706.364-.791.076-2.441.22-2.956.05 0 0-.534-.119-.433.24.1.364.213.439.213.439s.251.289.854 0c0 0 3.233-.729 4.764-.39 0 0 .389.17.534-.119.144-.289.075-.634-.27-.584Z" fill="#4C4A49"/><path d="M128.231 19.07s-.307.038-.138.27c.169.233.213.289.496.182.282-.106 2.197-.39 2.46-.377.264.007.233.076.233.183 0 .106.012.2 0 .314-.013.119.05.32-.314.414-.371.094-2.385.314-2.385.314s-.314-.006-.302.138c.007.145-.062 1.27-.062 1.27s-.076.181.138.25c.207.076.433.076.747 0 .313-.075 1.362-.326 2.266-.263.91.063 1.098.05 1.098.05s.383.075.383-.189c0-.263-.17-.621-.515-.483s-1.337.176-1.883.238c-.546.063-1.111.139-1.274.157-.157.02-.358.095-.377-.125-.019-.22-.031-.42-.031-.42s-.075-.202.276-.252c.352-.05 1.795-.245 2.203-.314.415-.076.597-.189.641-.434.043-.245.062-.804.031-.98-.031-.182-.113-.402-.37-.402-.258 0-1.118.17-1.614.264-.495.095-1.701.201-1.701.201l-.006-.006Z" fill="#4C4A49"/><path d="M129.825 21.714s.182.24.189.358c.006.126.062.566 0 .654-.063.081-.415.22-.571.276-.157.057-1.287.245-1.614.245-.326 0-.822-.094-.841.094-.019.189.063.434.182.528.113.094.176.12.44.075.263-.044 2.711-.93 5.228-.603 0 0 .471.107.559-.113.082-.22.082-.452-.22-.452h-1.845c-.358 0-.59.012-.603-.37-.012-.377-.012-.673.264-.78l-1.168.095v-.007ZM121.753 20.515l.245.508s.119.308.603.252c.483-.057 1.657-.057 1.958-.126.301-.075.81-.345.885-1.18.075-.836-.841-1.571-1.481-1.596 0 0-.678-.264-1.193.339a8.762 8.762 0 0 1-1.023 1.024s-.439.44 0 .779h.006Zm1.092-1.024c.365-.364.829-.603.829-.603.534-.05.829.414 1.023.703.195.29.245.56 0 .704-.245.144-1.651.61-2.065.245-.414-.364-.144-.685.22-1.05h-.007ZM126.342 22.242c-.339.05-1.915.295-2.706.364-.791.076-2.441.22-2.956.05 0 0-.534-.119-.433.24.1.364.213.439.213.439s.251.289.854 0c0 0 3.233-.729 4.764-.39 0 0 .389.17.534-.119.144-.289.075-.634-.27-.584Z" fill="#4C4A49"/><path d="M95.397 8.982s-.634-.276-.842.214c-.207.483-1.211 4.635-3.075 6.174-1.865 1.546-2.913 2.255-2.913 2.255s-.765.453-.52.892c.244.44 1.035.471 1.619.277.584-.195 2.328-1.364 3.27-2.381.941-1.024 2.743-3.794 3.258-5.207.52-1.407-.113-1.866-.791-2.224h-.007ZM104.228 12.644c-.358-.113-.841.195-1.098.29-.258.1-.678.276-1.118.326a7.674 7.674 0 0 1-.922.019c.037-1.012.081-2.017.163-2.613.163-1.25.163-1.357.238-1.765.082-.409.226-.704-.257-.943-.49-.238-1.28-.458-1.38-.483 0 0-.679-.245-.78.326-.093.566.359 3.436.227 6.244-.132 2.808-.126 5.17-.1 5.948.024.78.928 1.3 1.286.095.358-1.2.358-2.74.471-3.97.031-.34.056-.81.075-1.338.308-.364.929-.201 1.287-.201.483 0 1.506.195 1.883.257.37.07.502-.031.678-.628.169-.603.182-1.137.088-1.25-.101-.113-.371-.194-.728-.308l-.013-.006ZM97.418 16.426c-.42-.327-.703-.679-1.237-.987-.527-.307-.872-.37-1.148-.326 0 0-.616-.082-.34.615.277.698.848 2.092 1.676 2.563.829.471 1.024-.534 1.218-.892.195-.358.245-.647-.176-.973h.007ZM110.059 12.6s.609.44 1.118-.17c.508-.609.609-.898.973-1.312.364-.415-.239-.892-.729-.942-.489-.057-1.65.037-1.97 0 0 0-.703-.176-.823.213-.119.39-.15.836.264 1.269.414.433 1.167.942 1.167.942ZM111.691 19.51c.484.653.559.32.559.32s.634-.49 1.092-.873c.465-.39.559-.754 0-1.219-.42-.345-1.782-.779-2.435-.973.414-.346.778-.66 1.048-.899.703-.634 1.776-1.432 1.626-2.04-.145-.61-.289-1.05-1.168-1.012-.872.037-1.964.352-3.452.546-1.481.195-2.793.208-3.013.17 0 0-.753-.22-.653.364.101.584.27.804.653 1.05.389.238.948.169 2.04-.145s2.172-.553 2.41-.51c.239.045.195.265 0 .485-.2.22-1.073 2.192-4.456 4.039 0 0-.458.358-.515.703-.044.345.075.559.659.44.584-.12 1.613-.465 2.68-1.389.32-.276.672-.577 1.03-.873.615.434 1.55 1.37 1.883 1.822l.012-.006Z" fill="#EA5506"/><path d="M112.909 16.865c.289.333 1.507.214 1.808.138.301-.075 1.105-.307 1.18-.138.075.164.169.076.22 1.326.05 1.25-.12 2.964-.051 3.473.076.503.559.967.829.697.27-.27.534-.44.753-1.582.22-1.144.245-3.65.364-4.793.126-1.143.534-3.505.684-4.039.145-.534.195-1.388-.634-1.652-.828-.27-1.286-.27-1.286-.27s-.609-.145-.659.364c-.051.509.169 4.259 0 4.743-.17.483-.785.458-1.218.483-.433.025-1.864.296-2.084.51-.22.219-.195.401.1.734l-.006.006ZM118.175 23.768c-.401.145-1.085.415-2.717.56-1.626.144-3.767.169-3.767.169s-.703-.044-.546-.584c0 0 .113-.823.157-1.288.05-.465.17-.823-.483-1.093-.659-.27-1.048-.22-1.048-.22s-.603-.132-.653.346c-.05.477.169.854.22 1.897.05 1.036-.088 1.407-.088 1.407s.062.948.916.898c.854-.05 2.599-.289 4.45-.34 1.846-.05 2.674.076 3.013.076.339 0 1.18 0 1.381-.39.201-.389.44-.922.126-1.218-.314-.289-.546-.364-.954-.22h-.007ZM146.109 29.321s-.032-.013-.058-.013c.026.013.045.02.058.013ZM146.334 37.688l-.025-.1c0 .062.012.087.025.1ZM145.16 24.39s.006 0 .018.006a11.745 11.745 0 0 0-.087-.339l.075.333h-.006ZM140.239 53.253l.068-.082c-.031.038-.056.057-.068.082ZM145.656 44.748a.269.269 0 0 1 0 .138c.019-.063.025-.113 0-.138ZM145.411 21.444l-.019.17s.044-.076.019-.17ZM142.731 16.91s0 .011-.007.017c.013 0 .013-.006.007-.018ZM143.484 18.825c.025.038.062.075.094.113-.032-.056-.063-.126-.094-.113ZM143.628 18.988l-.05-.05c.019.031.038.063.05.05ZM144.287 40.552c.069.113.17.188.27.27 0 0-.263-.276-.27-.27ZM130.001 57.643h.044s-.044-.012-.044 0ZM144.984 40.345l.031.1a.433.433 0 0 0-.031-.1ZM146.528 24.032c.12.126.12.452.189.427-.057-.15-.063-.39-.189-.427ZM125.419 57.367l-.075-.075c.031.037.056.056.075.075ZM144.984 40.345l-.038-.113-.018.05a.182.182 0 0 1 .056.063ZM121.345 44.955c0 .013 0 .026.007.038v-.038h-.007ZM121.609 44.126v.182c.025-.094.019-.144 0-.182ZM144.564 40.822l.156.157a.752.752 0 0 0-.156-.157ZM126.53 38.818l-.069.02c.031 0 .05-.013.069-.02ZM145.844 44.145l.031-.07c-.018-.012-.031-.012-.031.07ZM145.134 50.69a.613.613 0 0 0-.125.364.729.729 0 0 0 .125-.364ZM144.526 51.697l.033-.034c-.013.014-.027.02-.033.034ZM147.967 44.899h-.008v.007l.008-.007ZM147.538 46.394s-.043.05-.068.087a.244.244 0 0 0 .068-.087Z" fill="#EA5506"/><path d="M130.284 62.191c.464.358.96.741 1.481 1.137l.872.666.911-.679c.301-.22.596-.458.891-.684l.414-.32.226-.183c.301-.245.596-.477.873-.684.131-.315.47-.597.784-.905l.176.138.232-.289c.157-.05-.188.214.069.107l.019-.188c.075.044.753-.578.383-.057 0 0 .27-.239.54-.471.27-.239.533-.477.533-.477.239-.208.019-.258.308-.453.094 0-.063.12.013.157.885-.603.602-1.136 1.368-1.752l-.038.082c.076-.157.308-.377.289-.402-.245-.07-.044.207-.345.326-.113-.15.194-.333.081-.414.207-.113.226-.29.358-.434.32-.163.596-.571.879-.666.069-.163.069-.414.295-.69.276-.095.063.138.339-.088l-.044-.114c.201-.2.194-.15.226-.113.207-.226.056-.288.358-.54l-.063.233c.151-.245.245-.32.502-.622.044.05-.063.163-.151.245.264-.063.182-.327.27-.409-.056 0-.244.201-.244.026.138-.139.15-.415.338-.446l-.056.232c.195-.377.031-.251.358-.597-.007.025.019.032.031.057.069-.327.408-.553.678-.91l-.025.087c.075-.17.05-.302.113-.377-.195.17-.182.094-.276.057.332-.17.132-.528.514-.917.044.037.038.188-.1.282.044.252.157.358.031.679.088-.195.208-.409.239-.32l-.101-.145c.07-.107.126-.182.183-.264-.063-.107-.283.113-.183-.163.132-.302.239-.05.201-.132.189-.415-.05-.252.233-.584-.013.044-.032.131-.063.15.22-.226.364-.666.59-.647.012.063.063.1-.013.195l-.025-.019c-.05.37.113-.27.214-.081-.101-.032.138-.402.244-.572h-.138c-.012-.76.201.145.471-.458.113-.409-.1.125-.063-.145.138-.245.289-.295.415-.69.1-.083.251-.277.389-.24.044-.257.364-.697.282-.885-.263.37-.031.465-.389.867l-.069-.183c.144-.326.251-.76.37-.98-.044.038-.081.05-.1.007.113-.496.038-.666.201-1.125.138-.031.037.245 0 .446.182-.276.094-.32.263-.785.113 0-.094.32 0 .402l.107-.54h.019c-.163-.12.1-.408.107-.754.081-.395.025-.64-.025-.829-.057-.188-.132-.345-.195-.553.056-.106.107-.138.144-.087-.094.175-.025.15.019.213 0-.251.214-.534.276-.39-.025-.401-.106.139-.144-.113l.05-.546c-.1.057-.132.251-.182-.038-.012-.238.013-.351.038-.66.044.045.144-.087.125.145.044-.15.057-.383-.031-.477-.1.34-.057-.56-.213-.314l.1-.34c0 .076.056.089.031.202.145-.088-.031-.283-.037-.396.031-.12.056-.427.113-.452-.032-.107 0-.37.075-.421-.025-.163-.094-.013-.138-.063l.019-.546c.081-.032.295-.07.326.012-.069-.207-.226-.075-.213-.39.144.183.125-.414.301-.15.119-.176.107-.691.063-.974-.119-.175-.063.308-.188.29-.051-.792-.39-.836-.339-1.414l-.032.15c-.075-.357-.063-.32-.176-.527.157.094.396-.42.339-1.017-.075-.044-.131.339-.257.245l-.038-.39s.038.013.063.063c-.063-.352.163-.666-.025-.76l.195-.37-.082.15c-.075-.044-.132-.44-.163-.515-.113-.396-.05-.547.019-.779-.057.075-.176.264-.239-.05.245-.019.019-.672.151-.679-.019-.125.037-.364-.069-.37h.157c-.22 0-.245-.471-.339-.823.301.044-.082-.39.157-.584-.208-.038-.17-.622-.346-.66-.05-.27.138-.276.189-.351l-.094-.113c.062-.151-.019-.673-.013-.987l-.226-.25.056-.12c-.05-.038-.125-.27-.156-.107l-.019-.157c-.189.025-.101-.201-.251-.49.012-.075.062-.07.1-.006-.031-.151.075-.107.119-.208-.018.12-.464-.464-.445-.037-.069.044-.182-.176-.182-.333l.144-.132-.213-.132c-.082-.226 0-.352-.032-.54.063.182.44.339.295-.157.101.251.22.358.289.49-.019-.107-.019-.164.094-.02-.151-.376-.125-.106-.257-.483.157-.019.169-.138.125-.496l-.037.283s-.038-.02-.051-.038c.013.1 0 .132-.056.17-.019-.076-.314-.39-.239-.484-.119.452-.37-.616-.439-.333-.056-.031-.144-.289-.075-.345.201.282.1-.296.213-.277-.075-.107-.031.283-.132.145-.069-.182-.031-.352-.025-.471l.057.069-.038-.314c-.088-.026-.025.32-.157.069 0-.082-.125-.333-.063-.346.145.094.245-.05.346.176-.076-.188-.308-.785-.358-.49l-.076-.226c-.012.163.019.597-.156.157h.031l-.22-.276s0-.044.013-.082c0-.038.006-.082.006-.082-.038.02-.088-.018-.132-.132.032-.044 0-.157.063-.176-.144-.326-.207-.27-.264-.295-.087-.176-.087-.257.032-.207-.088-.258-.289-.697-.295-.898-.226-.302 0 .081-.182-.07.094-.395-.44-1.143-.766-1.645-.119.251-.107-.132-.345-.12.132.076-.132-.577.188-.163l-.182-.263c0-.252.352.408.339.037-.195-.308-.527-.383-.672-.791.22.031-.219-.245-.012-.258.106.038.15.151.219.252l-.012-.082c-.402-.691-.289-.088-.621-.364-.289-.384-.107-.39-.063-.453-.019-.081-.176-.263-.283-.345.251.182.226.509.063.458.031-.282-.395-.596-.527-.66.226.68.263.396.452 1.043.1.038.232-.069.389.29-.207-.151-.069.069-.057.138.044-.12.182.194.27.282-.012.132-.307-.075-.144.277l.232-.057c.05.15-.176.032.032.283-.189-.088-.132.138-.383-.214.094.547.489.628.772.936-.032-.025-.063-.019-.094-.044.094.044.175.182.238.283.075.257-.188-.138-.213-.044.006 0 .201.377.201.377 0 .012 0 .012-.007.019.076.087.145.175.113.232-.125-.082-.213-.088-.301-.138l.339.326c-.088-.012.05.39-.144.126l.326.578-.113.113c.094.132.125.12.056-.056.082.207.641.81.321.816.313.427.357.61.646 1.175-.295-.402.013.584-.22.125.038.302.214.302.314.515.013.233-.163.189-.295-.018l.157.238h-.031l.163.207c.006.27-.132.101-.063.352l.151.013s0 .05-.006.094l-.013.1c.044-.081.113.057.176.24h-.032l.088.219c-.144-.195.032.214-.094.138.05.195.05.195.176.534l.075-.088c.214.434-.132.057-.031.421l.1-.05c-.031.571.32.88.302 1.3-.076-.22-.189-.132-.157-.138.125.326.226.886.408 1.218-.132.164-.17.201-.17.578.057.264.082.296.188.37 0 .265.151.736.038.767.101.044.013.233.113.364l-.044.038.101-.038c-.176.497.257.754.094 1.25l-.038-.075.063.188c-.044.038-.082-.037-.145-.043l.076.91.063-.188c.031.188.15.308.106.534-.194-.346.025.301-.1.37l-.057-.188c.032.264.032.264.138.239.063.345-.188.25-.05.565l-.012-.226c.056-.075.157.088.163.239-.013.037-.057.15-.075.031.062.27.031.685.081.804-.025.15-.107.107-.138.025.119.578-.013.264.107.848h-.063l.082.188-.12.29.076-.107c.018.188.069.307.037.534l-.094-.088c.063.54-.144.628-.012 1.143-.013.037-.044-.044-.063-.088.144.477-.157.358.019.842-.032-.032-.069.025-.094 0l.056.22-.119-.02.175.183-.125.132.056.088c-.238.232-.069.565-.251.879l.157-.05c.295.816-.238 1.834-.157 2.814l-.119-.025.119.414c-.113.207-.094-.138-.163-.075.038.427.176.2.17.684-.113.22-.076-.081-.113-.207.012.233.006.484 0 .735a1.954 1.954 0 0 1-.132.628c.012.013.031.032.044.019.012.295-.157.653-.232.967-.051-.025-.038-.1-.032-.182-.038.107-.113.252-.088.358l-.069-.144c-.088.226-.163.71-.295.716.05-.013.138.031.063.232-.22.038-.144.572-.383.855-.019-.057.069-.29.038-.227-.107.139-.101.314-.113.478l-.05-.076-.126.39c-.063.194-.138.39-.138.39-.226.018-.339.697-.439.577-.157.251.2-.17.025.157-.12.044-.138.308-.239.233v-.044l-.119.226-.019-.201c-.094.207-.075.408 0 .464-.176.145-.289.428-.439.453l.018-.082c-.282.534-.828.628-.935 1.13-.037.02-.056 0-.012-.062l-.226.289-.019-.126-.257.572-.044-.044c-.27.301-.641.817-.967 1.231l.025-.082c-.295.503-.402.384-.628.742 0-.026 0-.038.013-.05l-.245.282.013-.1c-.088.301-.672.47-.471.42-.063.157-.201.402-.176.49-.282.302-.125.02-.345.164-.214.207-.17.326-.496.571l-.038-.05c-.125.138-.182.257-.364.446l.038-.075c-.213.395-.515.244-.571.672-.163.094-.389.351-.465.25-.339.428-.627.736-.991 1.125-.201-.094-.076.088-.396.214l.088.063c-.565.508-1.4.86-2.027 1.413l-.088-.07-.057.195c-.182.132-.383.27-.584.409l-.15.107c-.038.025-.025.018-.032.018h-.012l-.038.013c-.025 0-.044.013-.063.019-.018.012-.031-.025-.044-.032a.173.173 0 0 1-.075.076c-.019.006-.038.012-.05.006-.006 0-.019 0-.025-.013l-.063-.062.038.012c-.534-.377-1.118-.76-1.595-1.294.063 0 .032-.075.107-.044-.201-.025-.314-.276-.421-.377l.076.183c-.22-.057-.364-.327-.389-.453l-.314-.132s-.019-.056-.013-.069h-.081l-.025-.213c-.076-.032-.415-.29-.609-.277.006-.056-.176-.288 0-.15l-.797-.848.094.163c-.057.094-.358-.107-.452-.264.232.107.125-.094.106-.22-.15-.069.032.164-.069.145-.194-.088-.521-.358-.558-.465l.119.056c-.226-.157-.169-.389-.351-.571-.226-.113-.283-.295-.39-.132-.263-.226 0-.182-.056-.276-.176-.057-.458-.453-.427-.56-.339.05-.527-.753-.747-.659l-.082-.295c-.05.031-.194.075-.357-.082-.088-.207.031-.232.037-.326l-.27.031A15.745 15.745 0 0 0 124 50.979c-.376-.61-.79-1.212-1.01-1.834-.17-.239-.371-.503-.534-.792-.175-.289-.351-.59-.452-.904l.057.056s-.05-.157-.094-.314a2.3 2.3 0 0 1-.063-.213.648.648 0 0 1-.025-.095c-.013 0 .081.472.081.472-.075-.12-.163-.208-.213-.34-.069-.351-.157-.753-.22-1.149-.037-.201-.062-.396-.094-.578l-.038-.239s-.025 0-.025-.087c-.169-.648.289-.359.195-.955.019.05.05.075.069.125.025-.584.044-.904.069-1.5.226.137.107-.346.226-.252l-.082-.076c.101-.094.226-.339.283-.27l-.019-.263.107.031c.063-.138.169-.34.282-.521.132-.164.258-.314.402-.29.157-.32.471-.665.885-.96a5.91 5.91 0 0 1 1.406-.71c.1-.138.37-.264.609-.346l.289.038c.144-.069.125-.125.194-.163.082-.05.201-.088.295-.063 0 .019 0 .025-.019.038.208-.076.415.018.616-.12.238 0 .464.107.382.214.019-.1.145-.094.264-.044.119.056.22.138.22.138s.025 0 .075.019c.05.013.119.019.213.05.095.025.208.063.339.1.132.045.283.114.446.176.333.151.728.34 1.149.629.106.075.219.15.326.226.013 0 .088.069.157.12l.195.156c.131.107.263.208.395.327.515.49 1.055.998 1.607 1.526.414-.502.841-1.024 1.281-1.551.219-.252.433-.44.652-.672.132-.145.151-.139.214-.189l.15-.12a7.59 7.59 0 0 1 1.419-.81c1.036-.446 2.216-.659 3.251-.596 1.055.081 1.971.377 2.687.816.722.434 1.28.974 1.714 1.338.15.038.364.302.414.132.157.208.044.396.163.39-.107-.34.295-.026.245-.396l.132.188c.087.007-.226-.232-.076-.245l-.207.038c-.056-.176-.069-.283-.044-.377-.157-.113-.445-.05-.565-.452l.069.088c-.182-.27-.012-.239-.025-.314l.044.056-.1-.276c.088.201.414.402.301.258-.195-.359.031.106-.176-.12-.125-.138-.006-.163.044-.195l-.219-.263c.075-.05.138.182.125.012l-.176-.138c-.044-.038-.088-.063-.125-.088a.677.677 0 0 0-.063-.038c.107-.22-.408-.245-.402-.546.264.182.032-.075.12-.1l-.641-.465c-.044-.07.207.069.107 0-.082-.151-.232-.095-.301-.132-.025-.088-.521-.277-.433-.409-.214-.182-.302-.144-.364-.119-.07.025-.132.063-.352-.07-.031-.112.383.12.207-.05l-.508-.15c.056-.025.144-.107.326-.019-.169-.075-.32-.163-.471-.226-.15-.057-.301-.12-.439-.176-.282-.12-.546-.264-.822-.34-.553-.181-1.118-.276-1.802-.137-.207-.088.132-.088.264-.176a4.11 4.11 0 0 1-1.205.107h-.528c-.182.018-.37.05-.577.119l.013.094c-.622.057-1.275.302-1.896.64-.314.17-.615.372-.917.573l-.439.326-.075.05-.032.026-.075.037.075.019c0 .056-.025.113-.044.157a7.133 7.133 0 0 1-.056.132c-.019-.044-.038-.239-.082-.132.019.025.057.031.063.088-.05 0-.088 0-.125.013a2.701 2.701 0 0 0-.157-.233c-.025-.031-.057-.063-.082-.088-.151-.107-.333-.245-.515-.364-.74-.49-1.6-.905-2.423-1.194a9.875 9.875 0 0 0-2.14-.326c-.37 0-.747 0-1.117.044l-.571.075-.176.025c-.057.013-.119.038-.176.057l-.264.081c-1.274.39-2.592.974-3.665 1.91.332-.27.326.013.05.182a1.916 1.916 0 0 0-.571.314c-.151.132-.27.295-.389.452-.126.157-.22.333-.339.497a5.013 5.013 0 0 1-.427.496c-.741 1.489-1.325 2.795-1.262 4.145h-.113c-.075.189-.012.258-.031.46l-.032-.014a2.31 2.31 0 0 0-.044.277 1.662 1.662 0 0 0 0 .345c.007.233.038.358.057.515.05.308.119.528.119.698h.126c.081.307-.057.182.094.477h-.063l.207.346c-.213.025.251.841.258 1.086l.37.697c.144.27.307.553.414.823-.025.07.038.277.138.503.107.226.239.483.327.69.226.384.527.817.841 1.276.301.47.653.93.96 1.382l.101-.1.175.219s-.019.056-.056.031c.006.277.427.497.502.729.006-.188-.113-.163-.207-.289-.088-.232.144-.126.295.15l-.025.013.194.12c-.069.088.019.27-.05.358.308.352.596.615.885.892.295.263.59.527.891.898-.156.013.484.484.201.49.446.364.063-.189.346-.094.106.119.257.2.226.276-.088-.019 0 .182-.107.1 0 0 .063.07.138.133l.138.125c.013.038-.069 0-.107-.025.641.459.879 1.061 1.463 1.463.088-.018-.182-.207-.094-.232.596.383.351.528.904.886l-.17-.013c.207.088.333.082.534.377-.038.132-.283-.12-.446-.188.169.163.64.54.577.339.239.157.239.308.333.44.025-.02-.138-.24.019-.17.238.314.684.716 1.042 1.017-.025.02-.025.076-.069.063.395.12.182.302.609.61l-.025-.013Z" fill="#EA5506"/><path d="m148.022 44.698-.056.194s.056.025.062.12v-.314h-.006ZM143.754 52.901s-.013.05-.013.075c.025-.037.025-.063.013-.075ZM142.517 54.748c.081-.139-.031-.05-.106-.02.018.02.043.038.106.02ZM148.135 39.51c.013.03.025.05.05.05-.018-.044-.037-.057-.05-.05ZM146.936 25.546v.064c0-.013.007-.032 0-.064ZM146.93 26.35a.67.67 0 0 0 .056.15.28.28 0 0 0-.056-.15ZM148.003 42.889c0 .05 0 .106.025.157.007-.088-.006-.126-.025-.157ZM147.049 26.651l.031.195h.025l-.056-.195ZM146.899 25.301c.012.075.037.176.043.245a.378.378 0 0 0-.043-.245ZM147.934 34.377v.02c.056.15.032.056 0-.02ZM147.426 27.456v.025l.044.05-.044-.075ZM146.717 24.46c.012.037.025.068.05.087 0-.031-.013-.069-.019-.113-.013.013-.025.019-.031.025ZM147.896 31.438c-.05-.05-.081-.07-.106-.07.006.064.031.108.106.07Z" fill="#EA5506"/><path d="M142.059 0s.396.188.722.83c.326.646.929 2.154.929 2.154s.201.351.433.496c.232.138.659.37 1.092 1.47l3.685-.522-.383-1.42s-.038-.2.1-.068.71 1.827.71 1.827l.47.566-.546.339-.138-.364-2.994 2.952.339 1.193 2.241.465.113.478-1.419 1.136.113.478-.364.226-.464-.647s.113.71.025.86c-.082.145-.37.07-.37.07l-.396-.164.439.622-.439.32-.709-.753.157.596-1.4 1.338-.295-.364 1.048-3.185-.533-1.13-3.421 2.644.075.402-.477.245-.113-.584-.609-1.897s-.063-.565.214-.176c.276.39.539 1.288.539 1.288l2.354-4.56s-.395-1.47-.37-1.948c.025-.477.038-1.576-.088-1.896a9.413 9.413 0 0 1-.408-1.546c-.063-.433-.163-1.331.113-1.777l.025.006Z" fill="#F08300"/><path d="M134.677 5.685s.264.125.484.552c.22.434.621 1.439.621 1.439s.132.238.289.333c.151.094.439.25.728.98l2.467-.346-.257-.948s-.026-.132.069-.05c.094.087.477 1.224.477 1.224l.313.377-.364.226-.094-.245-2.002 1.973.226.797 1.5.308.075.32-.947.76.075.32-.245.152-.307-.434s.075.477.018.572c-.056.1-.251.05-.251.05l-.263-.107.295.415-.295.213-.477-.502.106.402-.935.898-.194-.245.703-2.13-.358-.753L133.849 14l.05.27-.314.17-.075-.39-.408-1.269s-.044-.377.144-.113c.189.264.358.86.358.86l1.569-3.052s-.263-.98-.244-1.3c.012-.32.025-1.055-.057-1.269a5.545 5.545 0 0 1-.27-1.036c-.037-.29-.107-.892.075-1.187Z" fill="#F6AB00"/><path d="M0 58.761c2.774 1.27 6.723 2.017 10.715 2.017 9.12 0 14.788-3.901 14.788-10.182-.069-4.743-2.83-7.657-9.233-9.73-4.425-1.457-6.27-2.412-6.27-4.541 0-2.13 1.85-3.474 4.958-3.474 2.668 0 5.423.81 7.287 1.633l1.588-5.823c-2.002-.822-5.316-1.62-9.24-1.62C6.447 27.04.76 31.287.76 37.36c-.076 4.158 3.264 7.425 9.666 9.453 3.986 1.257 5.768 2.211 5.768 4.548 0 1.614-.947 3.543-5.473 3.543-2.956 0-6.723-1.068-9.114-2.218L.013 58.761H0ZM78.706 46.488v13.599h-7.124V29.063h7.124v9.686c2.819-2.21 6.61-2.104 6.61-2.104 4.544 0 8.015 3.14 8.015 10.037v13.411h-7.124V47.48c0-3.002-1.03-5.063-3.703-5.063 0 0-3.798.302-3.798 4.077v-.006ZM157.381 46.488v13.599h-7.124V37.129h7.124v1.62c2.818-2.21 6.61-2.104 6.61-2.104 4.544 0 8.015 3.14 8.015 10.037v13.411h-7.124V47.48c0-3.002-1.029-5.063-3.703-5.063 0 0-3.798.302-3.798 4.077v-.006ZM68.657 59.459c-1.268.565-3.848 1.13-6.566 1.13-7.407 0-12.133-4.503-12.133-11.72 0-6.709 4.595-12.193 13.119-12.193 1.877 0 3.935.327 5.436.892l-1.086 5.126c-.842-.377-2.147-.534-4.018-.534-3.747 0-6.182 2.676-6.138 6.426 0 4.22 2.812 6.425 6.276 6.425 1.689 0 3.195-.194 4.275-.615l.841 5.069-.006-.006ZM41.214 60.087v-2.293c-1.5 1.828-3.841 2.814-6.56 2.814-4.638 0-7.4-3.38-7.4-7.035 0-5.955 5.342-8.813 13.445-8.769v-.326c0-1.219-.659-2.952-4.167-2.952-2.342 0-4.827.797-6.327 1.733l-1.312-4.598c1.594-.892 4.732-2.016 8.9-2.016 7.64 0 10.075 4.504 10.075 9.893v13.543h-6.654v.006Zm-.282-10.823c-3.748-.044-6.654.842-6.654 3.612 0 1.828 1.218 2.72 2.812 2.72 1.783 0 3.233-1.175 3.704-2.626.094-.377.138-.798.138-1.218v-2.488ZM101.943 50.904c.233 2.958 3.076 4.359 6.34 4.359 2.385 0 4.319-.327 6.202-.936l1.136 4.93c-2.298.937-5.31 1.307-8.342 1.307-7.627 0-11.99-4.504-11.99-11.677 0-5.816 3.535-12.236 11.343-12.236 7.256 0 10.012 5.766 10.012 11.438 0 1.22-.138 2.3-.226 2.815h-14.475Zm8.223-5.026c-.044-1.746-.828-4.484-3.948-4.484-2.862 0-4.067 2.575-4.3 4.485h8.248Z" fill="#0066B2"/></g><defs><clipPath id="a"><path fill="#fff" d="M0 0h172v64H0z"/></clipPath></defs></svg>