<svg width="533" height="426" viewBox="0 0 533 426" fill="none" xmlns="http://www.w3.org/2000/svg">
<g clip-path="url(#clip0_1382_4891)">
<path d="M426.53 255.404C485.332 255.404 533 207.638 533 148.715C533 89.7922 485.332 42.0259 426.53 42.0259C367.728 42.0259 320.06 89.7922 320.06 148.715C320.06 207.638 367.728 255.404 426.53 255.404Z" fill="#E6EAF5"/>
<path d="M247.554 122.654H247.515C247.534 122.411 247.554 122.169 247.554 121.926C247.554 116.776 243.382 112.596 238.242 112.596C233.519 112.596 229.628 116.126 229.018 120.685C228.408 116.116 224.517 112.596 219.794 112.596C214.654 112.596 210.483 116.776 210.483 121.926C210.483 122.169 210.502 122.411 210.521 122.654H210.483C210.483 122.654 209.127 136.193 228.921 145.34V145.427C228.95 145.417 228.979 145.398 229.008 145.388C229.037 145.398 229.066 145.417 229.095 145.427V145.34C248.909 136.193 247.554 122.654 247.554 122.654Z" fill="#FF8062"/>
<path d="M231.883 141.722C231.873 141.722 231.873 141.722 231.864 141.722C231.632 141.712 231.428 141.537 231.399 141.295L229.909 129.598H221.536C221.314 129.598 221.13 129.452 221.072 129.239L218.923 121.344L215.855 133.856C215.806 134.069 215.613 134.215 215.4 134.224C215.187 134.224 214.983 134.089 214.925 133.885L212.167 124.971H211.209C210.938 124.971 210.725 124.758 210.725 124.487C210.725 124.215 210.938 124.002 211.209 124.002H212.525C212.738 124.002 212.922 124.137 212.99 124.341L215.332 131.926L218.439 119.298C218.487 119.084 218.681 118.929 218.903 118.929C218.903 118.929 218.903 118.929 218.913 118.929C219.136 118.929 219.32 119.074 219.378 119.288L221.923 128.628H230.354C230.596 128.628 230.799 128.812 230.838 129.055L232.009 138.259L236.481 116.233C236.529 116.01 236.723 115.845 236.945 115.845H236.955C237.178 115.845 237.371 116 237.429 116.223L239.985 127.086H246.421C246.692 127.086 246.905 127.299 246.905 127.571C246.905 127.842 246.692 128.056 246.421 128.056H239.607C239.384 128.056 239.191 127.901 239.133 127.678L237.003 118.59L232.386 141.324C232.309 141.567 232.106 141.722 231.883 141.722Z" fill="white"/>
<path d="M290.21 165.659H273.175H256.71C253.961 165.659 251.726 167.9 251.726 170.654V195.716C251.726 207.656 261.298 217.345 273.175 217.529C273.281 217.529 273.397 217.539 273.504 217.539C285.525 217.539 295.282 207.772 295.282 195.716V170.741C295.282 167.938 293.017 165.659 290.21 165.659Z" fill="#FFC8BB"/>
<path d="M268.993 211.72C256.971 211.72 247.215 201.953 247.215 189.897V164.835C247.215 162.08 249.451 159.84 252.2 159.84H285.689C288.487 159.84 290.761 162.119 290.761 164.922V189.897C290.771 201.943 281.014 211.72 268.993 211.72Z" fill="#FFA589"/>
<path d="M268.993 206.793C259.256 206.793 251.357 198.879 251.357 189.121V168.821C251.357 166.591 253.167 164.777 255.394 164.777H282.524C284.789 164.777 286.628 166.62 286.628 168.889V189.121C286.628 198.879 278.73 206.793 268.993 206.793Z" fill="white"/>
<path d="M280.676 181.052H271.49V171.847H266.496V181.052H257.311V186.047H266.496V195.251H271.49V186.047H280.676V181.052Z" fill="#FFA589"/>
<g opacity="0.65">
<g style="mix-blend-mode:plus-darker">
<path d="M285.699 159.84H268.664V211.7C268.771 211.7 268.887 211.71 268.993 211.71C281.015 211.71 290.771 201.943 290.771 189.887V164.912C290.771 162.119 288.497 159.84 285.699 159.84Z" fill="url(#paint0_linear_1382_4891)"/>
</g>
</g>
<path d="M123.854 151.169H156.347C158.283 151.169 159.851 152.74 159.851 154.68V168.996C159.851 170.936 158.283 172.507 156.347 172.507H152.137L156.618 179.238L145.187 172.507H123.854C121.919 172.507 120.351 170.936 120.351 168.996V154.68C120.36 152.74 121.928 151.169 123.854 151.169Z" fill="#FF8F75"/>
<path d="M146.959 161.654C146.959 162.973 148.024 164.04 149.34 164.04C150.656 164.04 151.721 162.973 151.721 161.654C151.721 160.335 150.656 159.268 149.34 159.268C148.024 159.258 146.959 160.335 146.959 161.654Z" fill="white"/>
<path d="M138.113 161.654C138.113 162.973 139.178 164.04 140.494 164.04C141.811 164.04 142.875 162.973 142.875 161.654C142.875 160.335 141.811 159.268 140.494 159.268C139.178 159.258 138.113 160.335 138.113 161.654Z" fill="white"/>
<path d="M129.256 161.654C129.256 162.973 130.321 164.04 131.637 164.04C132.953 164.04 134.018 162.973 134.018 161.654C134.018 160.335 132.953 159.268 131.637 159.268C130.321 159.258 129.256 160.335 129.256 161.654Z" fill="white"/>
<path d="M168.437 397.533C168.243 395.302 167.914 392.994 166.646 391.151C164.952 388.697 161.574 387.766 158.738 388.552V403.052C158.738 406.737 161.719 409.734 165.407 409.734C166.569 409.734 167.662 409.434 168.611 408.91C168.814 405.118 168.766 401.306 168.437 397.533Z" fill="#A0A0AF"/>
<path d="M165.407 370.221C161.729 370.221 158.738 373.208 158.738 376.903V388.552C161.574 387.766 164.943 388.697 166.646 391.151C167.914 392.994 168.243 395.302 168.437 397.533C168.776 401.316 168.824 405.118 168.621 408.91C170.682 407.775 172.076 405.574 172.076 403.052V376.903C172.076 373.208 169.085 370.221 165.407 370.221Z" fill="#7F7E91"/>
<path d="M108.049 380.366C107.594 378.824 106.984 377.282 105.929 376.06C104.148 374.004 101.089 373.267 98.5146 374.033V386.031C98.5146 389.716 101.496 392.713 105.184 392.713C106.723 392.713 108.136 392.189 109.268 391.307C109.442 387.621 109.104 383.926 108.049 380.366Z" fill="#7F7E91"/>
<path d="M105.184 353.209C101.505 353.209 98.5146 356.196 98.5146 359.892V374.042C101.099 373.267 104.148 374.013 105.929 376.07C106.984 377.282 107.594 378.824 108.049 380.376C109.104 383.935 109.442 387.621 109.258 391.316C110.826 390.094 111.843 388.184 111.843 386.04V359.892C111.852 356.196 108.862 353.209 105.184 353.209Z" fill="#6A6A7C"/>
<path d="M276.64 379.823C274.849 377.466 271.684 376.031 268.867 376.438V395.283C268.867 398.969 271.848 401.966 275.536 401.966C276.088 401.966 276.63 401.888 277.143 401.762C278.498 398.377 279.175 394.653 279.321 391.006C279.466 387.107 279.001 382.936 276.64 379.823Z" fill="#A0A0AF"/>
<path d="M275.536 364.469C271.858 364.469 268.867 367.457 268.867 371.152V376.448C271.684 376.04 274.849 377.476 276.64 379.832C279.011 382.946 279.475 387.107 279.321 391.015C279.175 394.662 278.508 398.387 277.143 401.772C280.047 401.044 282.205 398.425 282.205 395.293V371.152C282.205 367.457 279.214 364.469 275.536 364.469Z" fill="#7F7E91"/>
<path d="M210.144 386.884C206.465 386.884 203.475 383.897 203.475 380.201V356.061C203.475 352.375 206.456 349.378 210.144 349.378C213.822 349.378 216.812 352.365 216.812 356.061V380.201C216.812 383.887 213.831 386.884 210.144 386.884Z" fill="#6A6A7C"/>
<path d="M190.137 334.723C181.532 334.723 151.42 324.374 151.42 324.374L145.4 319.204C135.508 310.582 101.95 307.566 101.95 307.566L94.2072 242.902C90.1129 227.141 75.6813 222.903 68.2091 221.768C67.7348 222.689 67.3186 224.183 67.5315 226.521C67.5315 226.521 65.8086 307.129 70.9773 334.286C70.9773 334.286 67.5315 365.323 94.2072 368.776L139.38 382.141C139.38 382.141 152.282 387.311 172.502 383.431C172.502 383.431 264.492 373.053 295.968 371.443C296.559 371.414 297.14 371.385 297.682 371.366C327.367 370.076 330.378 323.52 325.645 312.308C325.645 312.308 325.383 311.949 324.725 311.338C313.884 312.929 303.702 317.914 303.702 317.914C284.779 332.996 190.137 334.723 190.137 334.723Z" fill="#D4E4FD"/>
<path d="M188.85 304.122C220.684 296.79 256.816 292.91 256.816 292.91C256.816 292.91 247.786 231.263 240.042 214.455C240.042 214.455 233.586 211.438 215.09 218.761L107.545 222.641C107.545 222.641 87.7608 211.865 69.2543 220.488C69.2543 220.488 68.7026 220.827 68.209 221.768C75.6716 222.903 90.1128 227.131 94.2071 242.902L101.95 307.565C148.41 301.533 188.85 304.122 188.85 304.122Z" fill="white"/>
<path d="M256.816 292.91C256.816 292.91 220.684 296.79 188.849 304.122C188.849 304.122 148.41 301.533 101.95 307.575C101.95 307.575 135.508 310.591 145.4 319.214L151.42 324.383C151.42 324.383 181.532 334.732 190.137 334.732C190.137 334.732 284.779 333.006 303.702 317.924C303.702 317.924 313.884 312.939 324.725 311.348C321.163 307.992 305.87 296.916 256.816 292.91Z" fill="white"/>
<path opacity="0.46" d="M325.645 312.308C325.645 312.308 325.383 311.949 324.725 311.338C313.885 312.929 303.702 317.914 303.702 317.914C284.77 333.006 190.137 334.723 190.137 334.723C181.532 334.723 151.421 324.374 151.421 324.374L145.4 319.204C135.508 310.582 101.951 307.566 101.951 307.566L94.2073 242.902C90.1131 227.141 75.6815 222.903 68.2092 221.768C67.7349 222.689 67.3187 224.183 67.5317 226.521C67.5317 226.521 66.5638 272.038 68.2673 306.188C70.9484 311.077 73.8909 315.819 77.1334 320.407C86.677 333.889 98.8339 345.78 113.498 353.364C123.883 358.738 135.276 361.841 146.717 364.198C192.044 373.529 239.675 371.404 283.995 358.088C298.737 353.655 313.294 347.913 325.683 338.777C325.877 338.631 326.061 338.486 326.254 338.34C328.229 327.419 327.59 316.896 325.645 312.308Z" fill="url(#paint1_linear_1382_4891)"/>
<path d="M296.075 288.333L262.411 416.738L264.434 417.068L300.528 288.653L296.075 288.333Z" fill="#A0776A"/>
<path d="M306.665 288.972L300.528 288.652L264.435 417.067L266.283 416.408L306.665 288.972Z" fill="#B78F81"/>
<path d="M389.372 286.877L414.373 422.45L416.203 423.197L394.56 286.742L389.372 286.877Z" fill="#B78F81"/>
<path d="M400.068 286.606L394.561 286.742L416.203 423.197L418.139 422.984L400.068 286.606Z" fill="#F4BFAC"/>
<path d="M248.667 369.794C248.667 369.794 233.287 387.446 232.725 391.656C232.725 391.656 237.478 405.39 241.398 409.027C241.398 409.027 252.026 410.423 249.509 414.914L228.534 416.311L208.673 391.084L228.254 366.7L248.667 369.794Z" fill="#F1A6A1"/>
<path d="M208.392 361.114L196.371 389.415C196.371 389.415 189.382 398.106 191.337 402.868L204.201 413.236C204.201 413.236 213.435 420.52 231.612 416.321C231.612 416.321 240.004 415.758 222.659 405.39C222.659 405.39 214.267 398.668 212.312 393.615C212.312 393.615 226.018 367.835 226.579 367.273C227.131 366.71 208.392 361.114 208.392 361.114Z" fill="#FFD7D5"/>
<path d="M149.659 268.071L149.378 288.807C149.378 288.807 145.187 309.544 159.445 314.587C159.445 314.587 192.721 327.196 223.211 331.958L205.875 360.823C205.875 360.823 237.478 377.641 274.394 367.544C274.394 367.544 285.863 326.071 284.46 314.296C284.46 314.296 282.786 303.366 235.242 286.829L209.795 278.138L205.324 263.842C205.314 263.862 180.7 257.974 149.659 268.071Z" fill="#C489DD"/>
<path d="M239.094 358.339C239.007 358.339 238.929 358.31 238.852 358.252C238.697 358.116 238.687 357.893 238.813 357.738C249.47 345.352 261.627 334.286 274.945 324.839C275.11 324.723 275.333 324.761 275.449 324.926C275.565 325.091 275.526 325.314 275.362 325.431C262.092 334.848 249.983 345.876 239.365 358.213C239.297 358.291 239.191 358.339 239.094 358.339Z" fill="#A063C1"/>
<path d="M181.551 279.681C181.377 279.681 181.222 279.555 181.193 279.38C181.154 279.186 181.29 278.992 181.484 278.963C187.988 277.799 194.618 277.489 201.19 278.042L202.226 278.129C203.987 278.284 205.797 278.449 207.569 278.284C207.762 278.265 207.946 278.41 207.966 278.614C207.985 278.818 207.84 278.992 207.637 279.012C205.807 279.186 203.949 279.012 202.168 278.856L201.132 278.769C194.618 278.226 188.046 278.536 181.609 279.681C181.59 279.681 181.571 279.681 181.551 279.681Z" fill="#A063C1"/>
<path opacity="0.24" d="M284.46 314.306C284.46 314.306 282.786 303.375 235.242 286.839L209.795 278.148L205.324 263.852C205.324 263.852 180.71 257.965 149.669 268.052L149.388 288.788C149.388 288.788 148.691 292.251 148.836 296.683C150.946 296.111 153.066 295.606 155.205 295.189C169.811 292.309 184.862 292.658 199.719 293.696C218.836 295.024 238.581 297.721 254.784 307.963C257.63 309.767 260.398 311.843 262.285 314.636C264.173 317.429 265.073 321.066 263.969 324.248C262.614 328.147 258.21 331.648 255.036 334.112C243.43 343.112 235.097 355.43 227.75 368.281C240.13 371.016 256.652 372.394 274.413 367.544C274.394 367.554 285.864 326.081 284.46 314.306Z" fill="#C489DD"/>
<path d="M212.94 239.022L221.545 261.873L249.508 297.216C249.508 297.216 255.529 300.669 261.549 295.49L237.458 257.557L229.714 230.4C229.714 230.41 216.386 234.289 212.94 239.022Z" fill="#F1A6A1"/>
<path d="M204.607 191.905C203.707 191.846 202.778 191.808 201.752 191.827L179.384 188.811C179.384 188.811 177.148 189.024 173.905 189.441C175.386 195.338 180.594 214.358 188.947 227.063C188.956 227.063 197.077 219.227 204.607 191.905Z" fill="white"/>
<path d="M190.544 154.651C190.776 154.651 207.618 154.079 206.359 172.895C206.359 172.895 207.24 183.273 201.51 193.389C201.51 193.389 199.139 200.159 188.463 192.186C188.463 192.186 181.029 188.2 180.991 181.052L178.871 176.706C178.871 176.706 177.38 160.81 181.571 158.608C181.581 158.598 184.514 154.651 190.544 154.651Z" fill="#FFD7D5"/>
<path d="M194.425 180.023C194.367 181.449 192.693 182.535 190.699 182.458C188.695 182.37 187.127 181.148 187.185 179.723C187.243 178.297 188.918 177.21 190.912 177.288C192.906 177.375 194.483 178.597 194.425 180.023Z" fill="#F7CAC7"/>
<mask id="mask0_1382_4891" style="mask-type:luminance" maskUnits="userSpaceOnUse" x="178" y="154" width="29" height="43">
<path d="M190.544 154.651C190.776 154.651 207.618 154.079 206.359 172.895C206.359 172.895 207.24 183.273 201.51 193.389C201.51 193.389 199.139 200.159 188.463 192.186C188.463 192.186 181.029 188.2 180.991 181.052L178.871 176.706C178.871 176.706 177.38 160.81 181.571 158.608C181.581 158.598 184.514 154.651 190.544 154.651Z" fill="white"/>
</mask>
<g mask="url(#mask0_1382_4891)">
<path d="M209.525 179.887C209.467 181.313 207.792 182.4 205.798 182.322C203.795 182.235 202.227 181.013 202.285 179.587C202.343 178.161 204.017 177.075 206.011 177.152C208.005 177.23 209.583 178.452 209.525 179.887Z" fill="#F7CAC7"/>
</g>
<path d="M179.993 172.177C179.509 171.546 178.503 170.664 177.651 170.8C176.799 170.945 176.731 171.818 176.489 172.478C176.034 173.709 175.831 174.66 176.005 175.998C176.305 178.21 177.089 180.45 178.735 181.944C179.248 182.409 179.993 182.797 180.593 182.458C180.903 182.283 181.087 181.963 181.232 181.643C182.674 178.404 182.132 174.97 179.993 172.177Z" fill="#FFD7D5"/>
<path d="M179.655 181.478C179.655 181.478 179.752 187.695 179.064 192.846C179.064 192.846 181.01 202.729 189.876 205.59C193.012 206.599 196.235 204.281 196.361 200.983L196.719 192.108C196.719 192.118 183.11 178.025 179.655 181.478Z" fill="#FFD7D5"/>
<path d="M195.228 175.669C195.209 176.338 194.812 176.871 194.347 176.852C193.883 176.833 193.534 176.28 193.554 175.601C193.573 174.932 193.97 174.398 194.434 174.418C194.899 174.437 195.257 174.999 195.228 175.669Z" fill="#47455A"/>
<path d="M203.408 175.833C203.388 176.502 202.991 177.036 202.527 177.017C202.062 176.997 201.714 176.444 201.733 175.765C201.753 175.096 202.149 174.563 202.614 174.582C203.079 174.601 203.437 175.154 203.408 175.833Z" fill="#47455A"/>
<path d="M193.65 185.3L202.081 185.406C202.081 185.406 201.994 190.625 197.367 190.081C197.367 190.091 193.418 189.373 193.65 185.3Z" fill="#934745"/>
<path d="M203.485 163.205C203.494 161.683 202.991 160.053 201.655 159.374C200.01 158.55 198.064 159.588 196.632 160.742C196.109 161.159 195.577 161.605 194.938 161.77C190.631 162.876 186.343 159.762 185.433 166.125C185.22 167.647 185.027 169.335 184.32 170.732C183.468 172.419 182.181 173.748 181.552 175.581C180.826 174.049 179.829 171.808 177.912 171.614C174.747 171.304 176.674 179.548 177.245 179.461C174.622 179.868 172.095 176.988 172.831 174.437C172.889 174.223 172.966 174.01 172.947 173.797C172.889 173.254 172.27 173.001 171.824 172.701C170.75 171.973 170.421 170.344 171.127 169.258C171.582 168.549 172.424 167.997 172.463 167.153C172.531 165.688 170.353 165.281 169.647 164.001C169.192 163.176 169.443 162.129 169.898 161.295C170.353 160.461 170.992 159.733 171.331 158.85C171.64 158.065 171.689 157.211 171.863 156.387C172.424 153.739 174.254 151.508 176.422 149.898C179.258 147.794 182.607 147.144 185.598 145.505C185.907 145.33 186.159 145.078 186.42 144.835C188.105 143.322 190.428 142.682 192.692 142.634C194.957 142.585 197.193 143.07 199.4 143.565C201.568 144.05 203.252 145.088 205.275 145.844C208.528 147.066 211.47 149.384 213.348 152.323C214.712 154.457 215.709 157.163 215.68 159.723C215.671 160.916 215.1 161.925 215.013 163.06C214.906 164.369 215.535 164.99 216.039 166.105C216.977 168.181 215.342 171.595 213.338 172.448C212.699 172.72 211.973 172.875 211.499 173.389C210.976 173.952 210.909 174.796 210.696 175.542C210.192 177.298 208.44 178.763 206.63 178.481C206.505 178.462 206.379 178.433 206.301 178.336C206.214 178.229 206.214 178.084 206.214 177.958C206.253 176.202 206.814 173.661 205.924 172.08C205.111 170.635 203.301 170.324 203.088 168.452C202.904 166.842 203.388 165.242 203.485 163.622C203.475 163.458 203.485 163.331 203.485 163.205Z" fill="#7F7E91"/>
<path d="M199.293 182.633C198.606 182.633 197.909 182.371 197.406 181.886C197.261 181.75 197.261 181.517 197.396 181.372C197.532 181.226 197.764 181.226 197.909 181.362C198.48 181.905 199.41 182.06 200.116 181.721C200.271 181.643 200.552 181.478 200.649 181.226C200.784 180.848 200.494 180.392 200.223 179.946C198.916 177.812 198.374 175.213 198.732 172.769C198.761 172.575 198.955 172.439 199.148 172.458C199.352 172.487 199.487 172.672 199.458 172.875C199.129 175.145 199.623 177.57 200.832 179.529C201.181 180.092 201.587 180.761 201.345 181.469C201.21 181.847 200.891 182.177 200.445 182.38C200.068 182.555 199.681 182.633 199.293 182.633Z" fill="#B96E6A"/>
<path d="M194.415 185.717L201.607 185.853C201.607 185.853 199.777 189.208 194.415 185.717Z" fill="white"/>
<path d="M190.795 176.26C190.601 176.26 190.437 176.105 190.437 175.911C190.427 175.707 190.582 175.543 190.785 175.533L192.189 175.475C192.382 175.455 192.557 175.62 192.566 175.824C192.576 176.028 192.421 176.192 192.218 176.202L190.814 176.26C190.805 176.26 190.795 176.26 190.795 176.26Z" fill="#F1A6A1"/>
<path d="M204.54 176.173C204.375 176.173 204.22 176.163 204.065 176.134C203.872 176.105 203.727 175.921 203.756 175.717C203.785 175.513 203.969 175.387 204.172 175.407C204.462 175.455 204.753 175.446 205.043 175.387C205.237 175.349 205.43 175.475 205.469 175.669C205.508 175.863 205.382 176.057 205.188 176.095C204.966 176.144 204.753 176.173 204.54 176.173Z" fill="#F1A6A1"/>
<path d="M189.644 188.054C189.576 188.054 189.518 188.035 189.46 188.006C189.286 187.899 189.238 187.676 189.334 187.501C190.525 185.552 192.025 183.825 193.806 182.39C193.961 182.264 194.193 182.293 194.319 182.448C194.445 182.603 194.416 182.836 194.261 182.962C192.548 184.349 191.096 185.998 189.954 187.88C189.886 187.996 189.77 188.054 189.644 188.054Z" fill="#F1A6A1"/>
<path d="M203.446 186.221C203.272 186.221 203.126 186.105 203.088 185.93C202.914 185.057 202.623 184.223 202.217 183.428C202.13 183.253 202.197 183.03 202.371 182.943C202.546 182.855 202.768 182.923 202.855 183.098C203.291 183.951 203.601 184.853 203.785 185.785C203.823 185.979 203.698 186.173 203.504 186.211C203.494 186.221 203.465 186.221 203.446 186.221Z" fill="#F1A6A1"/>
<path d="M191.957 172.4C191.957 172.4 193.815 168.598 196.313 171.992C196.313 171.992 194.532 171.023 191.957 172.4Z" fill="#7F7E91"/>
<path d="M201.064 171.702C201.064 171.702 203.862 168.54 205.372 172.478C205.372 172.478 203.92 171.071 201.064 171.702Z" fill="#7F7E91"/>
<path d="M196.554 196.191C196.554 196.191 186.226 197.055 181.822 183.263C181.822 183.263 181.609 197.598 196.341 199.751L196.554 196.191Z" fill="#F1A6A1"/>
<g style="mix-blend-mode:multiply" opacity="0.46">
<path d="M216.029 166.076C215.525 164.961 214.896 164.34 215.003 163.031C215.09 161.896 215.661 160.887 215.67 159.694C215.699 157.134 214.702 154.428 213.338 152.294C212.012 150.218 210.144 148.463 208.024 147.173C206.301 149.336 204.23 151.237 202.071 152.983C193.476 159.908 183.216 164.641 172.434 166.969C172.443 167.027 172.463 167.075 172.463 167.143C172.424 167.987 171.582 168.54 171.127 169.248C170.43 170.344 170.759 171.964 171.824 172.691C172.269 173.001 172.889 173.253 172.947 173.787C172.976 174 172.889 174.223 172.831 174.427C172.095 176.978 174.631 179.859 177.244 179.451C176.673 179.538 174.747 171.294 177.912 171.605C179.829 171.799 180.826 174.039 181.551 175.572C182.181 173.738 183.468 172.41 184.32 170.722C185.026 169.325 185.22 167.638 185.433 166.115C186.343 159.752 190.63 162.866 194.938 161.76C195.586 161.595 196.109 161.149 196.632 160.732C198.064 159.578 200.019 158.54 201.655 159.365C202.991 160.034 203.484 161.673 203.484 163.196C203.484 163.322 203.484 163.448 203.475 163.574C203.378 165.194 202.884 166.794 203.078 168.404C203.3 170.276 205.101 170.596 205.914 172.031C206.804 173.612 206.243 176.153 206.204 177.909C206.204 178.045 206.204 178.19 206.291 178.287C206.369 178.384 206.504 178.413 206.62 178.433C208.421 178.714 210.173 177.249 210.686 175.494C210.899 174.747 210.957 173.913 211.489 173.341C211.963 172.827 212.689 172.672 213.328 172.4C215.332 171.566 216.967 168.142 216.029 166.076Z" fill="url(#paint2_linear_1382_4891)"/>
</g>
<path d="M217.026 197.433C217.026 197.433 214.296 192.574 204.607 191.914C197.077 219.227 188.956 227.073 188.956 227.073C180.593 214.367 175.396 195.348 173.915 189.451C170.14 189.945 164.991 190.731 160.432 191.827C154.895 193.156 150.975 198.093 150.946 203.805L150.617 263.076C150.443 263.115 150.278 263.144 150.133 263.183C150.133 263.183 147.123 279.564 147.123 288.187C147.123 288.187 196.593 294.219 215.09 279.564L206.804 261.776L217.026 197.433Z" fill="#564CA3"/>
<path d="M214.228 195.057C214.228 195.057 220.249 196.347 222.833 204.543L232.299 236.006L212.515 240.749L209.069 232.563L214.228 195.057Z" fill="#564CA3"/>
<g style="mix-blend-mode:color-burn" opacity="0.46">
<path d="M210.792 236.666L212.505 240.749L232.289 236.006L222.823 204.542C220.791 198.093 216.638 195.93 214.954 195.299C213.744 194.378 211.915 193.359 209.273 192.661C209.011 205.668 207.085 218.625 202.178 230.623C200.223 235.414 197.803 240.012 195.209 244.502C191.598 250.739 187.62 256.801 182.636 262.009C173.073 271.999 160.354 278.294 147.345 283.075C147.191 284.928 147.104 286.674 147.104 288.187C147.104 288.187 196.573 294.219 215.07 279.564L206.785 261.776L210.792 236.666Z" fill="url(#paint3_linear_1382_4891)"/>
</g>
<path d="M409.456 279.855L289.299 275.559L163.896 280.088L261.549 283.861L409.456 279.855Z" fill="#CCDFFF"/>
<path d="M261.549 283.861L163.896 280.088V287.634L261.985 291.727L409.969 286.334V279.875L409.456 279.855L261.549 283.861Z" fill="#C3DAFC"/>
<path d="M165.436 242.737C165.436 242.737 178.725 262.087 188.598 266.762L223.568 274.094L228.776 264.705L198.19 249.973L181.803 231.767C181.813 231.767 169.191 230.361 165.436 242.737Z" fill="#FFD7D5"/>
<path d="M228.34 264.657C228.34 264.657 230.895 265.685 232.579 265.277C232.579 265.277 240.391 261.834 243.449 262.329L254.251 263.987C254.251 263.987 255.916 266.402 253.012 267.12L245.714 267.343L245.269 268.633L248.415 269.729L253.496 269.409C253.496 269.409 257.668 265.258 258.781 265.985C258.781 265.985 260.213 266.441 258.762 268.808C258.762 268.808 260.097 270.146 258.878 271.795C258.878 271.795 260.194 271.941 259.091 273.9C259.091 273.9 260.184 274.763 258.5 276.509L254.425 279.777C254.425 279.777 235.909 279.341 227.595 275.287L222.571 273.686C222.581 273.686 228.069 264.472 228.34 264.657Z" fill="#FFD7D5"/>
<path d="M245.714 267.702C245.694 267.702 245.675 267.702 245.665 267.702L240.99 267.033C240.787 267.004 240.652 266.82 240.681 266.626C240.71 266.422 240.894 266.286 241.087 266.315L245.762 266.985C245.965 267.014 246.101 267.198 246.072 267.392C246.053 267.576 245.898 267.702 245.714 267.702Z" fill="#F1A6A1"/>
<path d="M244.03 274.812C243.846 274.812 243.681 274.666 243.672 274.472C243.652 274.269 243.807 274.094 244.001 274.084L254.106 273.299C255.925 272.174 258.452 268.634 258.471 268.595C258.587 268.43 258.81 268.391 258.974 268.508C259.139 268.624 259.178 268.847 259.061 269.012C258.955 269.167 256.351 272.814 254.396 273.958C254.348 273.987 254.299 274.007 254.241 274.007L244.049 274.802C244.049 274.812 244.039 274.812 244.03 274.812Z" fill="#F1A6A1"/>
<path d="M245.84 278.585C245.675 278.585 245.52 278.468 245.482 278.294C245.443 278.1 245.569 277.906 245.762 277.857L255.664 275.733L258.587 271.572C258.703 271.407 258.936 271.369 259.09 271.485C259.255 271.601 259.294 271.825 259.178 271.989L256.177 276.267C256.129 276.344 256.042 276.393 255.954 276.412L245.917 278.565C245.888 278.585 245.869 278.585 245.84 278.585Z" fill="#F1A6A1"/>
<path d="M250.051 279.496C249.876 279.496 249.731 279.38 249.693 279.205C249.654 279.011 249.78 278.817 249.973 278.779L256.061 277.566L258.801 273.687C258.917 273.522 259.139 273.483 259.304 273.599C259.468 273.716 259.507 273.939 259.391 274.104L256.574 278.1C256.516 278.177 256.439 278.226 256.352 278.245L250.128 279.487C250.099 279.496 250.07 279.496 250.051 279.496Z" fill="#F1A6A1"/>
<path d="M164.061 241.195C163.868 238.072 163.974 224.493 180.739 226.627C181.252 226.695 181.716 226.967 182.036 227.384L192.837 241.467C193.728 242.631 193.079 244.357 191.628 244.59C187.766 245.22 181.745 247.577 179.325 255.996C178.89 257.509 176.906 257.877 175.918 256.646L164.487 242.281C164.236 241.981 164.081 241.602 164.061 241.195Z" fill="#C3DAFC"/>
<path d="M178.096 251.311C178.096 251.311 234.128 272.542 269.293 269.632L280.588 267.043L279.94 269.953L269.941 272.542C269.941 272.542 243.807 276.422 177.021 253.144L178.096 251.311Z" fill="#7F7E91"/>
<path d="M166.907 235.628C166.839 235.628 166.771 235.608 166.703 235.579C166.461 235.463 166.355 235.182 166.471 234.939C166.51 234.852 170.875 225.774 183.158 228.848C183.419 228.916 183.574 229.178 183.506 229.44C183.438 229.702 183.177 229.857 182.916 229.789C171.417 226.908 167.497 234.997 167.342 235.347C167.265 235.531 167.09 235.628 166.907 235.628Z" fill="#A4C9FF"/>
<path d="M178.958 251.146C178.88 251.146 178.812 251.127 178.745 251.098C178.503 250.972 178.406 250.69 178.532 250.448C178.571 250.361 182.955 241.854 192.276 241.34C192.528 241.311 192.77 241.534 192.789 241.796C192.808 242.068 192.596 242.291 192.334 242.31C183.584 242.795 179.442 250.797 179.403 250.884C179.306 251.049 179.132 251.146 178.958 251.146Z" fill="#A4C9FF"/>
<path d="M163.471 246.782C163.471 246.782 160.461 237.946 162.609 233.63C162.609 233.63 164.119 231.69 165.407 233.843L177.235 247.849C177.235 247.849 178.764 249.197 178.444 250.943C178.251 252 178.096 252.155 178.096 252.155C178.096 252.155 176.828 256.791 179.199 259.371L180.758 261.01C180.758 261.01 178.957 263.134 174.873 260.118L163.471 246.782Z" fill="#A4C9FF"/>
<path d="M178.522 262.358C178.386 262.358 178.241 262.3 178.144 262.184C177.999 262.009 174.592 257.8 175.192 252.145C175.289 251.205 174.999 250.244 174.37 249.43L164.245 236.336C163.906 237.674 163.626 240.836 165.223 247.538C165.281 247.8 165.126 248.062 164.865 248.12C164.603 248.188 164.342 248.023 164.284 247.761C162.58 240.633 162.968 237.296 163.355 235.948C163.451 235.618 163.713 235.376 164.042 235.308C164.381 235.24 164.729 235.376 164.932 235.647L175.125 248.838C175.909 249.847 176.267 251.059 176.141 252.252C175.579 257.48 178.851 261.524 178.88 261.563C179.054 261.767 179.025 262.077 178.812 262.242C178.745 262.32 178.638 262.358 178.522 262.358Z" fill="#82B2F0"/>
<path d="M180.68 226.462C180.555 226.462 180.429 226.394 180.361 226.278L167.459 203.427C167.362 203.253 167.42 203.029 167.594 202.932C167.768 202.835 167.991 202.894 168.088 203.068L180.99 225.919C181.087 226.094 181.029 226.317 180.855 226.414C180.797 226.443 180.738 226.462 180.68 226.462Z" fill="#2E2B72"/>
<path d="M151.856 200.227C151.856 200.227 147.122 211.439 151.856 231.263V200.227Z" fill="#564CA3"/>
<path d="M161.322 240.681C161.215 240.681 161.099 240.633 161.031 240.536L150.704 226.744C150.588 226.579 150.617 226.356 150.772 226.239C150.936 226.113 151.159 226.152 151.275 226.317L161.602 240.109C161.719 240.274 161.69 240.497 161.535 240.613C161.467 240.662 161.399 240.681 161.322 240.681Z" fill="#2E2B72"/>
<path d="M248.764 293.55C248.599 295.907 248.444 298.312 248.996 300.611C249.286 301.823 249.77 302.987 250.254 304.132C251.067 306.072 251.89 308.021 252.703 309.961C253.11 310.931 253.884 312.104 254.9 311.823C255.975 311.532 255.975 310.019 255.723 308.943C255.229 306.838 254.639 304.762 253.942 302.716C254.474 302.231 255.336 302.347 255.936 302.745C256.536 303.143 256.962 303.744 257.475 304.248C259.769 306.508 260.959 308.797 261.918 311.988C262.682 312.609 263.911 311.93 264.202 310.989C264.482 310.048 264.134 309.049 263.757 308.138C263.379 307.226 262.982 306.266 263.176 305.296C264.27 307.75 265.354 310.194 266.447 312.648C266.922 313.714 268.083 314.975 268.983 314.238C269.119 313.326 269.099 312.386 268.916 311.474C268.809 312.318 270.193 312.618 270.745 311.988C271.306 311.348 271.219 310.388 271.055 309.554C270.609 307.265 269.825 305.034 268.761 302.958C270.116 304.035 271.161 305.49 271.771 307.109C271.906 307.459 272.032 307.837 272.313 308.079C274.791 310.165 273.639 304.675 273.494 304.103C272.874 301.765 271.49 299.457 269.777 297.73C266.331 294.249 261.501 292.348 256.623 291.901" fill="#F1A6A1"/>
<path d="M279.553 279.438H254.116C254.116 279.438 252.461 276.112 255.771 275.84L277.065 275.287C277.065 275.287 276.794 277.498 279.553 279.438Z" fill="white"/>
<path d="M293.142 231.545C293.142 231.545 290.654 230.158 288.989 234.037L276.416 274.54C275.651 276.994 277.491 279.477 280.046 279.467L347.296 279.225C350.132 279.215 352.659 277.411 353.588 274.734L368.194 232.912C368.794 231.186 367.487 229.391 365.658 229.44L293.142 231.545Z" fill="#A4C9FF"/>
<path d="M296.452 231.545C296.452 231.545 293.965 230.158 292.3 234.037L279.727 274.54C278.962 276.994 280.801 279.477 283.356 279.467L350.607 279.225C353.443 279.215 355.969 277.411 356.898 274.734L371.504 232.912C372.104 231.186 370.798 229.391 368.968 229.44L296.452 231.545Z" fill="white"/>
<path d="M232.299 403.692C232.299 403.692 235.958 395.72 247.999 402.179C247.999 402.179 256.603 409.075 252.296 416.621C252.296 416.621 243.904 419.851 234.661 417.484C225.408 415.118 233.799 417.484 233.799 417.484L232.299 403.692Z" fill="#564CA3"/>
<path d="M209.717 412.964C209.717 412.964 210.579 399.812 223.481 399.172C223.481 399.172 238.542 400.685 237.458 415.554C237.458 415.554 235.948 425.253 214.015 420.947C214.015 420.947 204.336 419.657 189.062 406.718C189.062 406.718 186.274 402.906 191.327 402.877C191.327 402.877 200.89 411.684 209.708 414.914V412.964H209.717Z" fill="#564CA3"/>
<path d="M183.361 288.333L149.707 416.738L151.72 417.068L187.823 288.653L183.361 288.333Z" fill="#A0776A"/>
<path d="M193.96 288.972L187.824 288.652L151.721 417.067L153.579 416.408L193.96 288.972Z" fill="#B78F81"/>
<path d="M263.33 291.62L284.46 425.243L286.289 426L268.518 291.484L263.33 291.62Z" fill="#B78F81"/>
<path d="M274.026 291.349L268.519 291.484L286.289 426L288.225 425.787L274.026 291.349Z" fill="#F4BFAC"/>
<path d="M211.218 237.665C211.189 237.665 211.16 237.665 211.131 237.655C210.937 237.606 210.821 237.412 210.869 237.209L213.018 228.586L213.008 206.259C213.008 206.056 213.173 205.891 213.376 205.891C213.58 205.891 213.744 206.056 213.744 206.259V228.674L211.586 237.383C211.528 237.558 211.382 237.665 211.218 237.665Z" fill="#2E2B72"/>
<g style="mix-blend-mode:plus-darker" opacity="0.46">
<path d="M240.042 214.455C240.042 214.455 233.586 211.438 215.089 218.761L144.858 221.293C144.074 238.518 137.221 255.753 126.7 269.613C119.305 279.351 110.323 287.634 100.421 294.792L101.95 307.556C148.41 301.523 188.849 304.103 188.849 304.103C220.684 296.79 256.816 292.91 256.816 292.91C256.816 292.91 247.785 231.263 240.042 214.455Z" fill="url(#paint4_linear_1382_4891)"/>
</g>
<path d="M72.9127 378.911V398.309C72.9127 410.986 62.6529 421.267 50.0023 421.267C37.3517 421.267 27.0918 410.986 27.0918 398.309V378.911H72.9127Z" fill="#FFA589"/>
<path d="M72.9129 379.066C72.9129 381.598 62.6336 383.644 49.954 383.644C37.2743 383.644 26.9951 381.598 26.9951 379.066C26.9951 376.535 37.2743 374.488 49.954 374.488C62.6336 374.488 72.9129 376.544 72.9129 379.066Z" fill="#FFB7A1"/>
<path d="M49.954 381.384C60.1 381.384 68.3249 380.047 68.3249 378.397C68.3249 376.747 60.1 375.41 49.954 375.41C39.808 375.41 31.583 376.747 31.583 378.397C31.583 380.047 39.808 381.384 49.954 381.384Z" fill="#FFEDE7"/>
<path d="M49.6344 376.942C49.6344 376.942 50.6604 277.227 14.5186 248.13C14.5186 248.13 35.8126 295.335 40.9716 376.157C40.9716 376.157 44.0979 379.658 49.6344 376.942Z" fill="#01DFD4"/>
<path d="M51.6183 377.127C51.6183 377.127 49.034 275.607 70.9766 242.63C70.9766 242.63 63.8818 300.824 60.649 375.827C60.6586 375.837 58.0743 381.006 51.6183 377.127Z" fill="#02CEBA"/>
<path d="M255.771 275.84L276.397 275.345L276.823 274.055L255.771 275.84Z" fill="#A4C9FF"/>
<path d="M333.698 256.063C333.059 258.828 329.894 260.981 326.642 260.864C323.38 260.748 321.26 258.411 321.899 255.646C322.538 252.882 325.703 250.729 328.955 250.845C332.207 250.962 334.336 253.299 333.698 256.063Z" fill="#CCDFFF"/>
<path d="M496.791 0H442.897C439.694 0 437.09 2.60903 437.09 5.81941V29.5626C437.09 32.773 439.694 35.382 442.897 35.382H449.886L442.452 46.5553L461.404 35.382H496.791C499.994 35.382 502.598 32.773 502.598 29.5626V5.81941C502.598 2.60903 500.004 0 496.791 0Z" fill="#FF8F75"/>
<path d="M457.339 18.1081C457.339 20.3001 455.567 22.0653 453.39 22.0653C451.202 22.0653 449.44 20.2904 449.44 18.1081C449.44 15.9161 451.212 14.1509 453.39 14.1509C455.567 14.1412 457.339 15.9161 457.339 18.1081Z" fill="white"/>
<path d="M472.022 18.1081C472.022 20.3001 470.251 22.0653 468.073 22.0653C465.886 22.0653 464.124 20.2904 464.124 18.1081C464.124 15.9161 465.895 14.1509 468.073 14.1509C470.251 14.1412 472.022 15.9161 472.022 18.1081Z" fill="white"/>
<path d="M486.695 18.1081C486.695 20.3001 484.924 22.0653 482.746 22.0653C480.558 22.0653 478.797 20.2904 478.797 18.1081C478.797 15.9161 480.568 14.1509 482.746 14.1509C484.933 14.1412 486.695 15.9161 486.695 18.1081Z" fill="white"/>
<path d="M511.425 166.891V158.588C511.425 153.593 507.902 149.365 503.033 147.89C503.111 147.619 503.149 147.328 503.149 147.037C503.149 145.049 501.407 143.438 499.258 143.438C497.109 143.438 495.367 145.049 495.367 147.037C495.367 147.328 495.406 147.619 495.483 147.89C490.615 149.365 487.092 153.593 487.092 158.588V166.891C485.524 167.153 484.333 168.413 484.333 169.936V170.14C484.333 171.847 485.833 173.234 487.682 173.234H495.493C495.416 173.525 495.367 173.825 495.367 174.136C495.367 176.124 497.109 177.734 499.258 177.734C501.407 177.734 503.149 176.124 503.149 174.136C503.149 173.825 503.101 173.525 503.023 173.234H510.834C512.683 173.234 514.183 171.847 514.183 170.14V169.936C514.183 168.413 512.993 167.153 511.425 166.891Z" fill="#AACBF2"/>
<path d="M499.336 186.463C496.5 186.463 494.022 184.785 493.18 182.283C493.015 181.788 493.315 181.255 493.848 181.1C494.38 180.945 494.951 181.226 495.125 181.721C495.706 183.428 497.39 184.582 499.336 184.582C501.175 184.582 502.84 183.505 503.478 181.895C503.672 181.41 504.253 181.158 504.785 181.333C505.317 181.507 505.589 182.05 505.395 182.535C504.466 184.892 502.036 186.463 499.336 186.463Z" fill="white"/>
<path d="M499.336 186.463C496.5 186.463 494.022 184.785 493.18 182.283C493.015 181.788 493.315 181.255 493.848 181.1C494.38 180.945 494.951 181.226 495.125 181.721C495.706 183.428 497.39 184.582 499.336 184.582C501.175 184.582 502.84 183.505 503.478 181.895C503.672 181.41 504.253 181.158 504.785 181.333C505.317 181.507 505.589 182.05 505.395 182.535C504.466 184.892 502.036 186.463 499.336 186.463Z" fill="white"/>
<path d="M499.335 193.369C494.535 193.369 490.131 191.119 487.566 187.336C487.266 186.9 487.411 186.318 487.885 186.037C488.359 185.755 488.988 185.891 489.288 186.328C491.486 189.557 495.241 191.478 499.335 191.478C503.323 191.478 507.03 189.635 509.237 186.551C509.547 186.114 510.176 185.998 510.65 186.289C511.115 186.58 511.25 187.162 510.931 187.598C508.347 191.216 504.01 193.369 499.335 193.369Z" fill="white"/>
<path d="M511.424 166.891V158.588C511.424 153.593 507.901 149.365 503.033 147.89C503.11 147.619 503.149 147.328 503.149 147.037C503.149 145.049 501.407 143.438 499.258 143.438C499.074 143.438 498.89 143.458 498.706 143.477V177.695C498.89 177.715 499.074 177.734 499.258 177.734C501.407 177.734 503.149 176.124 503.149 174.136C503.149 173.825 503.1 173.525 503.023 173.234H510.834C512.683 173.234 514.183 171.847 514.183 170.14V169.936C514.183 168.413 512.992 167.153 511.424 166.891Z" fill="url(#paint5_linear_1382_4891)"/>
<mask id="mask1_1382_4891" style="mask-type:luminance" maskUnits="userSpaceOnUse" x="320" y="3" width="213" height="253">
<path d="M533 148.715C533 207.637 485.331 255.404 426.53 255.404C367.729 255.404 320.06 207.637 320.06 148.715C320.06 89.7936 367.729 3.22998 426.53 3.22998C485.331 3.22998 533 89.7936 533 148.715Z" fill="white"/>
</mask>
<g mask="url(#mask1_1382_4891)">
<path d="M404.248 112.664C404.152 112.664 404.055 112.635 403.977 112.577C403.755 112.422 403.697 112.121 403.852 111.898L409.456 103.722C409.533 103.605 409.669 103.528 409.804 103.518C409.949 103.498 410.085 103.557 410.191 103.654L417.79 111.112C417.983 111.296 417.983 111.607 417.799 111.801C417.615 111.995 417.306 111.995 417.112 111.811L409.92 104.75L404.636 112.451C404.558 112.586 404.403 112.664 404.248 112.664Z" fill="#639AD6"/>
<path d="M385.267 35.5669C385.267 35.5669 369.297 39.7472 374.32 61.1432C374.32 61.1432 374.969 72.782 381.096 84.479C381.096 84.479 388.316 97.3593 399.283 87.2529C399.283 87.2529 409.911 81.7245 411.875 71.9188C411.875 71.9188 417.586 71.5793 418.941 63.7522C418.941 63.7522 421.729 48.9224 409.988 56.7592C409.978 56.7689 409.785 29.3692 385.267 35.5669Z" fill="#FFD7D5"/>
<path d="M379.267 64.974C379.364 65.9342 378.899 66.7683 378.241 66.8362C377.583 66.9041 376.963 66.1767 376.876 65.2068C376.779 64.2466 377.244 63.4125 377.902 63.3446C378.56 63.2864 379.17 64.0138 379.267 64.974Z" fill="#47455A"/>
<path d="M390.959 63.6454C391.056 64.6056 390.591 65.4397 389.933 65.5076C389.275 65.5755 388.655 64.8481 388.568 63.8782C388.481 62.9083 388.936 62.0839 389.594 62.016C390.252 61.9578 390.862 62.6852 390.959 63.6454Z" fill="#47455A"/>
<path d="M384.638 75.6526C384.619 75.6526 384.599 75.6526 384.58 75.6526C384.386 75.6332 384.202 75.6138 384.028 75.5944C382.867 75.4877 382.034 75.4101 381.076 74.1395C380.97 73.994 380.95 73.8098 381.018 73.6546C382.325 70.7158 382.973 67.4569 382.896 64.2368C382.886 63.9653 383.099 63.7422 383.37 63.7422C383.689 63.7422 383.864 63.9459 383.864 64.2174C383.941 67.486 383.312 70.7837 382.025 73.7807C382.634 74.4984 383.128 74.5469 384.115 74.6342C384.299 74.6536 384.483 74.673 384.686 74.6924C384.948 74.7215 385.141 74.9639 385.112 75.2258C385.093 75.4683 384.88 75.6526 384.638 75.6526Z" fill="#B96E6A"/>
<path d="M394.869 89.7164C394.869 89.7164 405.071 101.054 408.836 107.194C408.836 107.194 420.238 90.5699 423.761 79.901L416.328 69.3193L410.211 70.2892L394.869 89.7164Z" fill="#FFD7D5"/>
<path d="M394.938 90.3272C394.938 90.3272 407.027 83.4797 411.373 72.3452C411.373 72.3452 413.88 84.5951 399.767 95.1573L394.938 90.3272Z" fill="#F1A6A1"/>
<path d="M402.651 99.2504C402.651 99.2504 401.276 100.86 401.789 105.642L403.048 111.587L403.154 114.74L404.267 115.661L416.26 154.903L417.634 125.758C417.634 125.758 417.315 102.412 426.849 79.5614L423.374 76.1958L409.862 103.993C409.862 104.003 405.448 100.666 402.651 99.2504Z" fill="#82B2F0"/>
<path d="M482.698 195.63L465.024 96.9907C465.024 96.9907 460.039 86.477 441.794 87.5051L431.456 83.4412L426.849 79.5713C426.849 79.5713 419.009 92.1024 416.434 127.611L415.021 143.973C415.021 143.973 402.922 110.356 401.577 103.644L395.402 109.919C395.402 109.919 391.453 116.738 393.611 122.422L395.973 131.316L407.452 204.155L409.291 265.831C409.291 265.831 478.032 271.447 496.897 259.672L482.698 195.63Z" fill="white"/>
<path d="M401.577 103.644L395.402 109.919C395.402 109.919 394.182 112.14 394.928 116.078C397.425 113.964 400.29 112.286 403.378 111.064C402.565 107.95 401.906 105.283 401.577 103.644Z" fill="url(#paint6_linear_1382_4891)"/>
<path d="M374.602 60.9589C374.602 60.9589 376.305 56.3907 379.606 59.9308C379.606 59.9405 377.089 59.1549 374.602 60.9589Z" fill="#47455A"/>
<path d="M386.661 58.4372C386.661 58.4372 389.313 54.3442 391.762 58.5342C391.762 58.5245 389.478 57.2054 386.661 58.4372Z" fill="#47455A"/>
<path d="M374.969 55.2363C375.54 55.4885 376.14 55.6436 376.779 55.7018C374.795 54.15 374.253 51.0269 375.608 48.9028C375.23 51.4828 377.079 53.9948 379.421 55.1393C381.764 56.2838 384.464 56.342 387.068 56.2256C384.455 54.7707 384.038 51.2306 384.029 48.2336C384.822 50.6002 386.72 52.4624 388.868 53.7135C392.44 55.7891 396.099 56.0122 399.922 56.953C401.219 57.2731 402.961 57.5447 404.074 58.2527C405.303 59.0286 406.262 60.4835 406.794 61.8025C406.91 62.0935 407.007 62.3845 407.201 62.6269C407.394 62.8694 407.714 63.0343 408.004 62.9567C408.256 62.8888 408.439 62.6657 408.585 62.4427C409.688 60.7065 409.214 58.0587 410.511 56.5069C411.595 55.1975 414.557 54.8677 416.067 55.4885C421.129 57.5835 418.719 66.5356 415.96 69.3969C415.825 69.5423 415.67 69.6878 415.631 69.8818C415.592 70.0564 415.631 70.2407 415.679 70.4152C416.105 71.9477 416.638 73.451 417.286 74.9059C417.48 75.3423 417.683 75.7788 418.022 76.1183C418.883 76.9815 420.538 76.8069 421.197 75.7691C421.816 74.7895 421.516 73.5286 421.535 72.3744C421.564 70.5898 422.406 68.9216 423.394 67.4279C425.92 63.5774 428.466 61.0557 429.414 56.3323C430.363 51.5798 429.937 44.5965 428.117 40.0961C420.684 21.7747 397.415 22.6573 381.812 28.5058C374.466 31.2603 369.026 40.9496 370.43 48.9513C370.884 51.5992 372.588 54.1888 374.969 55.2363Z" fill="#47455A"/>
<path opacity="0.46" d="M496.897 259.672L482.698 195.63L465.024 96.9906C465.024 96.9906 461.133 88.8144 447.679 87.5923C454.474 103.945 457.929 121.684 460.213 139.317C461.404 148.551 462.304 157.833 462.401 167.144C462.749 202.458 451.076 237.782 429.763 265.918C429.511 266.248 429.259 266.568 429.008 266.888C450.834 267.635 484.556 267.383 496.897 259.672Z" fill="url(#paint7_linear_1382_4891)"/>
<path d="M387.523 81.0064C386.284 81.0064 385.433 80.8027 385.403 80.8027C385.142 80.7348 384.987 80.473 385.045 80.2208C385.113 79.9589 385.365 79.8037 385.626 79.8619C385.907 79.9298 392.585 81.4817 395.199 74.8378C395.296 74.5857 395.576 74.4693 395.828 74.5663C396.08 74.6633 396.196 74.9445 396.099 75.1967C394.144 80.1723 390.04 81.0064 387.523 81.0064Z" fill="#934745"/>
<path d="M403.01 68.2911C403.126 70.386 400.832 72.2095 397.899 72.3743C394.966 72.5295 392.489 70.968 392.382 68.873C392.266 66.778 394.56 64.9546 397.493 64.7897C400.425 64.6248 402.894 66.1961 403.01 68.2911Z" fill="#F7CAC7"/>
<path d="M330.968 213.67L329.042 212.205C338.237 200.081 345.467 193.932 350.539 193.932C350.578 193.932 350.617 193.932 350.655 193.932C352.891 193.971 353.859 195.261 353.956 195.406L351.972 196.803L352.959 196.105L352.001 196.842C351.982 196.822 351.556 196.318 350.443 196.367C348.032 196.415 342.283 198.743 330.968 213.67Z" fill="#7F7E91"/>
<path d="M358.844 192.244C358.844 192.244 355.147 193.331 356.163 198.607C356.163 198.607 361.438 211.138 368.92 209.615C368.92 209.615 374.418 207.239 370.711 198.423C370.701 198.423 365.92 189.577 358.844 192.244Z" fill="#47455A"/>
<path d="M377.253 187.725L373.295 189.723C373.295 189.723 369.723 188.937 363.238 188.404L356.25 190.179L351.836 194.281C351.836 194.281 352.455 197.501 355.253 196.793L358.631 194.446L361.709 194.456C361.709 194.456 364.032 196.948 370.913 198.675C370.913 198.675 373.362 205.61 370.323 208.471C370.323 208.471 376.169 206.88 378.928 201.313L384.077 198.908C384.058 198.927 383.525 186.231 377.253 187.725Z" fill="#FFD7D5"/>
<path d="M356.908 200.411C356.24 200.809 355.553 201.236 355.117 201.886C354.691 202.535 354.595 203.476 355.127 204.048C355.562 204.524 356.269 204.611 356.918 204.572C356.056 205.086 355.64 206.24 355.979 207.181C356.317 208.122 357.372 208.752 358.369 208.588C357.963 208.675 357.731 209.16 357.808 209.567C357.876 209.974 358.176 210.314 358.505 210.576C360.334 212.002 362.957 211.42 365.183 210.78C365.735 210.615 366.403 210.333 366.432 209.751C366.451 209.363 366.161 209.024 365.861 208.791C364.99 208.103 363.838 207.773 362.735 207.899C363.693 207.501 364.593 206.977 365.406 206.337C365.861 205.978 366.306 205.571 366.49 205.018C366.897 203.796 365.474 202.419 364.274 202.875C365.28 202.855 365.909 201.565 365.532 200.634C365.154 199.703 364.099 199.189 363.102 199.141C362.096 199.092 361.118 199.422 360.16 199.732C359.202 200.043 358.205 200.334 357.208 200.208C356.705 200.14 356.153 196.803 355.911 196.289C355.291 196.794 354.343 197.269 353.491 196.968C352.736 196.697 352.194 195.901 352.233 195.096C349.958 196.706 348.671 198.103 351.72 199.674C352.823 200.256 355.688 201.139 356.908 200.411Z" fill="#FFD7D5"/>
<path d="M357.334 204.669C357.169 204.669 357.014 204.552 356.976 204.378C356.937 204.184 357.063 203.99 357.256 203.951L365.358 202.254C365.551 202.215 365.745 202.341 365.784 202.535C365.822 202.729 365.697 202.923 365.503 202.962L357.402 204.659C357.382 204.669 357.363 204.669 357.334 204.669Z" fill="#F1A6A1"/>
<path d="M358.447 208.597C358.263 208.597 358.098 208.451 358.089 208.267C358.069 208.064 358.214 207.889 358.418 207.87C359.966 207.734 361.515 207.482 363.015 207.123C363.219 207.074 363.402 207.2 363.451 207.394C363.499 207.588 363.373 207.782 363.18 207.831C361.641 208.199 360.053 208.451 358.476 208.597C358.466 208.597 358.456 208.597 358.447 208.597Z" fill="#F1A6A1"/>
<path d="M371.737 199.101C367.168 199.101 362.842 196.134 360.964 194.64C360.809 194.514 360.78 194.291 360.906 194.126C361.032 193.971 361.264 193.942 361.419 194.068C363.626 195.813 369.336 199.693 374.602 197.908C374.795 197.841 374.999 197.947 375.066 198.132C375.134 198.326 375.028 198.529 374.834 198.597C373.798 198.956 372.763 199.101 371.737 199.101Z" fill="#F1A6A1"/>
<path d="M354.605 197.317C354.217 197.317 353.821 197.249 353.443 197.094C352.562 196.754 351.885 196.066 351.643 195.241C351.585 195.047 351.691 194.844 351.885 194.785C352.078 194.727 352.282 194.834 352.34 195.028C352.524 195.629 353.037 196.153 353.714 196.415C354.392 196.677 355.118 196.638 355.66 196.318C355.834 196.221 356.056 196.269 356.153 196.444C356.26 196.618 356.202 196.842 356.027 196.939C355.611 197.191 355.118 197.317 354.605 197.317Z" fill="#F1A6A1"/>
<path d="M393.94 113.479C393.94 113.479 391.037 121.558 392.324 135.137L394.908 171.673L373.295 187.191C373.295 187.191 380.719 209.819 383.293 220.818L408.779 208.209C408.779 208.209 397.493 117.359 393.94 113.479Z" fill="white"/>
<path opacity="0.46" d="M407.172 208.849C407.172 208.849 396.525 121.772 392.973 117.892C392.973 117.892 392.266 118.154 392.024 126.35C396.457 143.1 397.832 160.655 395.876 177.871C394.821 187.133 392.779 196.464 388.094 204.514C386.255 207.686 383.952 210.634 381.28 213.175C382.074 215.998 382.781 218.636 383.294 220.808L407.172 208.849Z" fill="url(#paint8_linear_1382_4891)"/>
<path d="M407.172 209.664C406.93 209.664 406.727 209.48 406.688 209.237L404.433 191.129C404.404 190.867 404.588 190.625 404.849 190.586C405.11 190.557 405.352 190.741 405.391 191.003L407.646 209.111C407.675 209.373 407.491 209.615 407.23 209.654C407.211 209.654 407.191 209.664 407.172 209.664Z" fill="#C3DAFC"/>
<path d="M400.396 152.11C400.174 152.11 399.971 151.955 399.922 151.722L395.402 129.414C395.354 129.152 395.518 128.9 395.779 128.842C396.041 128.793 396.302 128.958 396.351 129.22L400.871 151.528C400.919 151.79 400.755 152.042 400.493 152.1C400.454 152.11 400.425 152.11 400.396 152.11Z" fill="#C3DAFC"/>
<path d="M415.021 144.458C414.896 144.458 414.77 144.409 414.673 144.312L402.951 132.247C402.845 132.14 402.797 131.994 402.816 131.839L403.755 124.963L399.09 120.288C399.002 120.2 398.944 120.074 398.944 119.948V105.72C398.944 105.448 399.157 105.235 399.428 105.235C399.699 105.235 399.912 105.448 399.912 105.72V119.745L404.607 124.449C404.713 124.555 404.761 124.71 404.742 124.856L403.803 131.733L414.905 143.158L425.978 123.469L422.852 116.583C422.794 116.457 422.794 116.301 422.852 116.175C429.143 102.597 430.924 99.4058 431.582 98.6493C431.66 97.2914 431.253 88.766 430.973 83.4509C430.953 83.1793 431.166 82.9563 431.427 82.9369C431.718 82.9272 431.921 83.1308 431.94 83.3927C432.792 99.1245 432.647 99.2603 432.163 99.3961C431.224 100.696 426.665 110.269 423.829 116.369L426.965 123.275C427.033 123.421 427.023 123.576 426.946 123.711L415.438 144.176C415.36 144.312 415.234 144.399 415.079 144.419C415.06 144.448 415.041 144.458 415.021 144.458Z" fill="#C3DAFC"/>
<path d="M417.819 160.519C417.586 160.519 417.383 160.354 417.344 160.121L414.547 144.06C414.499 143.798 414.673 143.546 414.944 143.497C415.205 143.459 415.457 143.623 415.505 143.895L418.303 159.957C418.351 160.218 418.177 160.471 417.906 160.519C417.867 160.519 417.838 160.519 417.819 160.519Z" fill="#C3DAFC"/>
<path d="M432.338 267.208C432.096 267.208 431.893 267.033 431.854 266.781L425.398 216.026L423.143 201.167C423.104 200.906 423.288 200.653 423.549 200.615C423.811 200.576 424.062 200.76 424.101 201.022L426.356 215.89L432.812 266.665C432.851 266.927 432.657 267.169 432.396 267.208C432.377 267.208 432.357 267.208 432.338 267.208Z" fill="#C3DAFC"/>
<path d="M354.091 95.2157C353.82 95.2157 353.607 95.0023 353.607 94.7307V86.6515C353.607 86.3799 353.82 86.1665 354.091 86.1665C354.362 86.1665 354.575 86.3799 354.575 86.6515V94.7307C354.575 94.9926 354.362 95.2157 354.091 95.2157Z" fill="#A4C9FF"/>
<path d="M358.128 91.1711H350.065C349.794 91.1711 349.581 90.9577 349.581 90.6861C349.581 90.4146 349.794 90.2012 350.065 90.2012H358.128C358.399 90.2012 358.612 90.4146 358.612 90.6861C358.612 90.9577 358.399 91.1711 358.128 91.1711Z" fill="#A4C9FF"/>
<path d="M380.332 131.422C380.061 131.422 379.848 131.209 379.848 130.937V122.858C379.848 122.586 380.061 122.373 380.332 122.373C380.603 122.373 380.816 122.586 380.816 122.858V130.937C380.816 131.209 380.603 131.422 380.332 131.422Z" fill="#A4C9FF"/>
<path d="M384.368 127.378H376.305C376.034 127.378 375.821 127.164 375.821 126.893C375.821 126.621 376.034 126.408 376.305 126.408H384.368C384.639 126.408 384.852 126.621 384.852 126.893C384.852 127.164 384.639 127.378 384.368 127.378Z" fill="#A4C9FF"/>
<path d="M397.832 158.696L388.181 155.068L385.52 152.983C385.52 152.983 375.057 138.182 365.842 137.183C365.842 137.183 355.098 131.306 353.956 129.133C353.956 129.133 351.652 129.812 353.259 134.264C353.259 134.264 356.792 137.746 361.409 141.209C361.409 141.209 365.01 144.264 362.058 146.145C362.058 146.145 360.17 146.902 357.518 144.671L347.607 134.128C347.607 134.128 344.5 130.724 343.851 134.332C343.851 134.332 343.783 137.164 345.535 140.762C345.535 140.762 343.919 142.44 344.18 144.681C344.18 144.681 343.048 147.329 344.287 150.17L354.527 160.112C354.527 160.112 358.263 163.633 363.693 165.049L377.622 165.359L392.847 175.543L397.832 158.696Z" fill="#FFD7D5"/>
<path d="M356.134 153.973C356.037 153.973 355.94 153.934 355.863 153.856L352.756 150.452L345.255 140.986C345.129 140.83 345.158 140.598 345.313 140.471C345.467 140.345 345.7 140.374 345.826 140.53L353.308 149.977L356.395 153.361C356.531 153.507 356.521 153.74 356.376 153.876C356.308 153.943 356.221 153.973 356.134 153.973Z" fill="#F1A6A1"/>
<path d="M353.027 150.568C352.959 150.568 352.891 150.549 352.833 150.51L348.129 147.474C348.023 147.406 347.965 147.29 347.965 147.173L347.955 144.768C347.955 144.564 348.12 144.399 348.313 144.399C348.516 144.399 348.671 144.564 348.681 144.758L348.691 146.97L353.23 149.899C353.395 150.005 353.443 150.229 353.337 150.403C353.259 150.51 353.143 150.568 353.027 150.568Z" fill="#F1A6A1"/>
<path d="M352.368 131.907C352.368 131.907 356.802 140.937 359.502 145.99C360.421 146.281 360.412 145.612 360.412 145.612L352.852 130.462L351.149 127.746L348.032 125.651L338.876 110.87C336.872 109.851 336.95 111.84 336.95 111.84L345.235 127.785C344.722 129.443 345.671 132.683 345.671 132.683C348.584 136.049 350.926 138.58 352.794 140.491L349.542 134.254C348.923 130.413 352.368 131.907 352.368 131.907Z" fill="#82B2F0"/>
<path d="M361.312 149.142C361.389 149.249 361.457 149.317 361.486 149.326C361.583 149.336 361.505 149.258 361.312 149.142Z" fill="#FFA589"/>
<path d="M352.369 131.907C352.369 131.907 348.923 130.413 349.542 134.244L352.794 140.481C356.656 144.419 358.554 145.689 359.492 145.99C356.802 140.937 352.369 131.907 352.369 131.907Z" fill="white"/>
<path d="M441.794 117.252L426.733 163.38L391.889 146.999C391.889 146.999 382.422 155.621 378.551 176.746L436.2 206.492C436.2 206.492 447.815 213.825 452.974 195.28L472.758 140.966C472.758 140.966 491.254 92.0441 448.453 87.5146L441.794 117.252Z" fill="white"/>
<path d="M426.743 164.719C426.676 164.719 426.608 164.7 426.54 164.67L392.45 148.832C392.208 148.716 392.102 148.434 392.218 148.192C392.334 147.949 392.625 147.843 392.857 147.959L426.453 163.574L440.914 119.696C441.001 119.444 441.272 119.299 441.523 119.386C441.775 119.473 441.92 119.745 441.833 119.997L427.208 164.399C427.169 164.535 427.073 164.641 426.937 164.69C426.869 164.709 426.811 164.719 426.743 164.719Z" fill="#C3DAFC"/>
<path d="M440.826 208.151C438.851 208.151 437.419 207.821 437.38 207.811C437.341 207.802 437.312 207.792 437.274 207.773L383.39 180.509C383.148 180.392 383.061 180.092 383.177 179.859C383.303 179.616 383.583 179.519 383.825 179.646L437.651 206.88C438.387 207.036 446.488 208.616 449.982 202.778L471.886 142.508C471.973 142.256 472.254 142.13 472.506 142.217C472.757 142.304 472.883 142.586 472.796 142.838L450.853 203.195C448.385 207.336 443.933 208.151 440.826 208.151Z" fill="#C3DAFC"/>
</g>
<path d="M354.797 142.469L351.458 135.893L352.861 135.136L358.02 145.272L354.797 142.469Z" fill="#FFA589"/>
<path d="M378.25 70.6381C378.173 69.1639 376.924 67.9612 375.182 67.4277C375.375 68.5043 375.849 70.7933 376.692 73.5187C377.698 72.7622 378.308 71.7341 378.25 70.6381Z" fill="#F7CAC7"/>
<g style="mix-blend-mode:multiply">
<path d="M428.107 40.0861C427.081 37.5547 425.745 35.4015 424.177 33.5684C421.554 38.0202 417.993 41.958 413.947 45.1684C408.033 49.8627 401.131 53.141 393.988 55.6627C395.934 56.138 397.908 56.4386 399.922 56.943C401.122 57.2436 402.893 57.4861 403.967 58.0972C405.39 58.8925 406.552 60.0079 407.133 61.5694C407.268 61.9283 407.375 62.3065 407.655 62.5781C407.926 62.84 408.439 62.9079 408.662 62.5975C408.72 62.5102 408.759 62.4132 408.788 62.3065C409.126 61.2202 409.436 60.1243 409.698 59.0186C409.901 58.1747 409.862 57.1661 410.433 56.4677C411.488 55.1681 414.653 54.8965 416.066 55.4881C421.129 57.5831 418.718 66.5353 415.96 69.3965C415.824 69.542 415.67 69.6875 415.631 69.8815C415.592 70.056 415.631 70.2403 415.679 70.4149C416.105 71.9473 416.637 73.4507 417.286 74.9055C417.48 75.342 417.683 75.7882 418.022 76.1179C418.883 76.9811 420.538 76.8066 421.196 75.7688C421.816 74.7892 421.516 73.5283 421.535 72.3741C421.564 70.5895 422.406 68.9213 423.393 67.4276C425.92 63.5771 428.465 61.0554 429.414 56.3319C430.353 51.5697 429.937 44.5864 428.107 40.0861Z" fill="url(#paint9_linear_1382_4891)"/>
</g>
<path d="M52.0641 340.532C51.222 361.511 51.6188 377.127 51.6188 377.127C58.0748 381.006 60.6494 375.837 60.6494 375.837C61.4528 357.098 62.5078 339.407 63.6209 323.414C60.2429 329.417 56.3713 335.149 52.0641 340.532Z" fill="url(#paint10_linear_1382_4891)"/>
<path d="M45.8883 325.276C45.1914 329.786 44.1558 334.228 42.5587 338.505C41.4456 341.493 40.0228 344.402 38.3096 347.118C39.4033 356.245 40.3131 365.934 40.9713 376.157C40.9713 376.157 44.088 379.658 49.6245 376.943C49.6341 376.943 49.8761 353.073 45.8883 325.276Z" fill="url(#paint11_linear_1382_4891)"/>
<path d="M45.9754 378.746C45.9754 378.746 44.2041 256.539 30.0049 205.454C30.0049 205.454 55.8191 218.383 54.5221 380.036C54.5221 380.036 48.3952 384.081 45.9754 378.746Z" fill="#06BAAD"/>
<path d="M45.1729 349.96C45.8117 367.301 45.9762 378.746 45.9762 378.746C48.396 384.081 54.5229 380.036 54.5229 380.036C54.6971 358.553 54.3874 339.727 53.7195 323.181C52.0934 332.424 49.1897 341.454 45.1729 349.96Z" fill="url(#paint12_linear_1382_4891)"/>
<path d="M41.9396 378.096C41.9396 378.096 45.1628 297.274 0 277.876C0 277.876 34.1963 301.804 35.4933 378.096C35.4933 378.096 40.0038 381.336 41.9396 378.096Z" fill="#06BAAD"/>
<path d="M37.4191 333.035C37.4288 333.297 37.4481 333.569 37.4578 333.83C37.7191 340.086 37.4772 346.439 35.7059 352.453C35.2897 353.878 34.767 355.275 34.1572 356.643C34.8832 363.286 35.3574 370.435 35.4833 378.116C35.4833 378.116 40.0034 381.346 41.9392 378.116C41.9392 378.097 42.8007 356.546 37.4191 333.035Z" fill="url(#paint13_linear_1382_4891)"/>
<path d="M60.0107 377.611C60.0107 377.611 60.6592 301.959 84.528 284.501C84.528 284.501 71.4708 308.05 67.0281 378.397C67.0378 378.397 61.9466 381.491 60.0107 377.611Z" fill="#06BAAD"/>
<path d="M60.9012 359.377C60.0785 370.153 60.0107 377.611 60.0107 377.611C61.9466 381.491 67.0378 378.397 67.0378 378.397C67.8121 366.147 68.8478 355.313 70.0286 345.779C70.019 345.789 70.0093 345.808 70.0093 345.828C67.3378 350.609 64.2599 355.1 60.9012 359.377Z" fill="url(#paint14_linear_1382_4891)"/>
<path d="M466.776 327.177H426.772C424.817 327.177 423.22 325.586 423.22 323.617V290C423.22 288.041 424.807 286.441 426.772 286.441H466.776C468.731 286.441 470.328 288.032 470.328 290V323.627C470.328 325.586 468.731 327.177 466.776 327.177Z" fill="#FFC8BB"/>
<path d="M464.423 325.14H429.124C427.159 325.14 425.571 323.549 425.571 321.58V292.037C425.571 290.078 427.159 288.478 429.124 288.478H464.423C466.388 288.478 467.976 290.068 467.976 292.037V321.59C467.966 323.549 466.378 325.14 464.423 325.14Z" fill="white"/>
<path d="M435.231 291.455C433.837 291.455 432.695 290.32 432.695 288.914V281.863C432.695 280.457 433.828 279.322 435.231 279.322C436.625 279.322 437.767 280.457 437.767 281.863V288.914C437.767 290.32 436.635 291.455 435.231 291.455Z" fill="#FFA589"/>
<path d="M446.768 291.455C445.375 291.455 444.232 290.32 444.232 288.914V281.863C444.232 280.457 445.365 279.322 446.768 279.322C448.162 279.322 449.304 280.457 449.304 281.863V288.914C449.304 290.32 448.172 291.455 446.768 291.455Z" fill="#FFA589"/>
<path d="M458.306 291.455C456.913 291.455 455.771 290.32 455.771 288.914V281.863C455.771 280.457 456.903 279.322 458.306 279.322C459.7 279.322 460.842 280.457 460.842 281.863V288.914C460.842 290.32 459.71 291.455 458.306 291.455Z" fill="#FFA589"/>
<path d="M453.423 314.154C456.882 310.126 456.429 304.051 452.41 300.584C448.391 297.118 442.328 297.572 438.869 301.6C435.409 305.627 435.863 311.702 439.882 315.169C443.901 318.635 449.963 318.181 453.423 314.154Z" fill="#FFC8BB"/>
<path d="M445.994 313.2C445.772 313.2 445.568 313.103 445.433 312.929L440.961 307.42C440.709 307.109 440.758 306.654 441.068 306.401C441.377 306.149 441.832 306.198 442.084 306.508L445.985 311.319L451.434 304.452C451.686 304.142 452.14 304.083 452.45 304.336C452.76 304.588 452.818 305.044 452.566 305.354L446.546 312.929C446.43 313.094 446.227 313.2 445.994 313.2C446.004 313.2 446.004 313.2 445.994 313.2Z" fill="white"/>
<path d="M413.318 67.8736C412.05 67.8736 411.653 66.4963 411.45 65.798C410.559 62.7234 411.837 59.1833 414.47 57.3793C414.692 57.2338 414.992 57.2823 415.137 57.5054C415.292 57.7284 415.234 58.0291 415.012 58.1746C412.708 59.7458 411.595 62.8398 412.369 65.5264C412.708 66.6806 412.979 67.0007 413.54 66.8843C413.802 66.8261 414.063 66.991 414.112 67.2529C414.17 67.5147 414.005 67.7766 413.744 67.8251C413.599 67.8639 413.453 67.8736 413.318 67.8736Z" fill="#F1A6A1"/>
<path d="M413.666 67.9805C413.54 67.9805 413.405 67.932 413.308 67.8253C413.124 67.6313 413.134 67.3209 413.327 67.1366C414.237 66.2831 414.682 64.9932 414.508 63.7614C414.45 63.3443 414.324 63.0243 414.14 62.8109C413.85 62.4714 413.318 62.3453 412.901 62.5102C412.485 62.6848 412.204 63.1503 412.233 63.5965C412.253 63.8681 412.05 64.1008 411.788 64.1202C411.527 64.1396 411.285 63.936 411.266 63.6741C411.198 62.8109 411.73 61.9574 412.524 61.6276C413.318 61.2978 414.305 61.5306 414.866 62.1901C415.176 62.549 415.37 63.034 415.457 63.6353C415.679 65.1774 415.108 66.7875 413.976 67.8544C413.898 67.932 413.782 67.9805 413.666 67.9805Z" fill="#F1A6A1"/>
<path d="M179.887 180.576C179.819 180.576 179.751 180.566 179.683 180.528C179.441 180.411 179.335 180.13 179.441 179.888C180.129 178.394 179.984 176.541 179.064 175.164C178.851 174.844 178.657 174.64 178.454 174.524C178.319 174.446 178.154 174.398 177.999 174.378C177.728 174.359 177.535 174.126 177.554 173.855C177.573 173.583 177.815 173.389 178.077 173.409C178.377 173.428 178.677 173.525 178.938 173.68C179.277 173.874 179.577 174.175 179.877 174.621C180.971 176.26 181.145 178.491 180.322 180.285C180.245 180.469 180.071 180.576 179.887 180.576Z" fill="#F1A6A1"/>
<path d="M179.868 180.508C179.819 180.508 179.78 180.498 179.732 180.489C178.648 180.169 177.787 179.131 177.554 177.851C177.428 177.162 177.506 176.551 177.796 176.085C178.212 175.406 179.074 175.067 179.848 175.271C180.11 175.339 180.255 175.61 180.187 175.862C180.119 176.124 179.848 176.27 179.597 176.202C179.248 176.105 178.822 176.27 178.629 176.58C178.425 176.91 178.454 177.346 178.512 177.657C178.658 178.413 179.171 179.296 180.013 179.538C180.274 179.616 180.419 179.887 180.342 180.14C180.274 180.372 180.08 180.508 179.868 180.508Z" fill="#F1A6A1"/>
</g>
<defs>
<linearGradient id="paint0_linear_1382_4891" x1="293.988" y1="194.638" x2="262.624" y2="177.505" gradientUnits="userSpaceOnUse">
<stop stop-color="white"/>
<stop offset="1" stop-color="#FFDBD0"/>
</linearGradient>
<linearGradient id="paint1_linear_1382_4891" x1="170.249" y1="326.419" x2="149.861" y2="361.299" gradientUnits="userSpaceOnUse">
<stop stop-color="white"/>
<stop offset="1" stop-color="#CCDFFF"/>
</linearGradient>
<linearGradient id="paint2_linear_1382_4891" x1="202.783" y1="179.654" x2="191.997" y2="162.862" gradientUnits="userSpaceOnUse">
<stop stop-color="white"/>
<stop offset="1" stop-color="#CCDFFF"/>
</linearGradient>
<linearGradient id="paint3_linear_1382_4891" x1="147.123" y1="241.028" x2="232.299" y2="241.028" gradientUnits="userSpaceOnUse">
<stop stop-color="white"/>
<stop offset="1" stop-color="#CCDFFF"/>
</linearGradient>
<linearGradient id="paint4_linear_1382_4891" x1="204.165" y1="280.519" x2="115.024" y2="228.304" gradientUnits="userSpaceOnUse">
<stop stop-color="white"/>
<stop offset="1" stop-color="#CCDFFF"/>
</linearGradient>
<linearGradient id="paint5_linear_1382_4891" x1="512.311" y1="150.383" x2="492.906" y2="173.298" gradientUnits="userSpaceOnUse">
<stop stop-color="white"/>
<stop offset="1" stop-color="#CCDFFF"/>
</linearGradient>
<linearGradient id="paint6_linear_1382_4891" x1="394.48" y1="110.063" x2="510.773" y2="103.775" gradientUnits="userSpaceOnUse">
<stop stop-color="white"/>
<stop offset="1" stop-color="#CCDFFF"/>
</linearGradient>
<linearGradient id="paint7_linear_1382_4891" x1="392.97" y1="177.381" x2="496.899" y2="177.381" gradientUnits="userSpaceOnUse">
<stop stop-color="white"/>
<stop offset="1" stop-color="#CCDFFF"/>
</linearGradient>
<linearGradient id="paint8_linear_1382_4891" x1="373.761" y1="169.356" x2="407.169" y2="169.356" gradientUnits="userSpaceOnUse">
<stop stop-color="white"/>
<stop offset="1" stop-color="#CCDFFF"/>
</linearGradient>
<linearGradient id="paint9_linear_1382_4891" x1="370.198" y1="55.12" x2="429.899" y2="55.12" gradientUnits="userSpaceOnUse">
<stop stop-color="white"/>
<stop offset="1" stop-color="#CCDFFF"/>
</linearGradient>
<linearGradient id="paint10_linear_1382_4891" x1="51.5286" y1="350.994" x2="70.9804" y2="350.994" gradientUnits="userSpaceOnUse">
<stop stop-color="white"/>
<stop offset="1" stop-color="#CCDFFF"/>
</linearGradient>
<linearGradient id="paint11_linear_1382_4891" x1="14.5182" y1="351.628" x2="49.6349" y2="351.628" gradientUnits="userSpaceOnUse">
<stop stop-color="white"/>
<stop offset="1" stop-color="#CCDFFF"/>
</linearGradient>
<linearGradient id="paint12_linear_1382_4891" x1="30.0057" y1="352.343" x2="54.5728" y2="352.343" gradientUnits="userSpaceOnUse">
<stop stop-color="white"/>
<stop offset="1" stop-color="#CCDFFF"/>
</linearGradient>
<linearGradient id="paint13_linear_1382_4891" x1="-0.000490596" y1="356.285" x2="41.9928" y2="356.285" gradientUnits="userSpaceOnUse">
<stop stop-color="white"/>
<stop offset="1" stop-color="#CCDFFF"/>
</linearGradient>
<linearGradient id="paint14_linear_1382_4891" x1="60.0107" y1="362.672" x2="84.531" y2="362.672" gradientUnits="userSpaceOnUse">
<stop stop-color="white"/>
<stop offset="1" stop-color="#CCDFFF"/>
</linearGradient>
<clipPath id="clip0_1382_4891">
<rect width="533" height="426" fill="white"/>
</clipPath>
</defs>
</svg>
