<svg width="0" height="0" class="hidden">
  <symbol fill="none" xmlns="http://www.w3.org/2000/svg" viewBox="0 0 28 28" id="medal-4th">
    <path d="M27.0343 13.9998C27.0343 21.1986 21.1986 27.0343 13.9998 27.0343C6.80107 27.0343 0.965332 21.1986 0.965332 13.9998C0.965332 6.80107 6.80107 0.965332 13.9998 0.965332C21.1986 0.965332 27.0343 6.80107 27.0343 13.9998Z" fill="#225FF1"></path>
    <path fill-rule="evenodd" clip-rule="evenodd" d="M28 14C28 21.732 21.732 28 14 28C6.26801 28 0 21.732 0 14C0 6.26801 6.26801 0 14 0C21.732 0 28 6.26801 28 14ZM14 27.0345C21.1987 27.0345 27.0345 21.1987 27.0345 14C27.0345 6.80125 21.1987 0.965517 14 0.965517C6.80125 0.965517 0.965517 6.80125 0.965517 14C0.965517 21.1987 6.80125 27.0345 14 27.0345Z" fill="#2C5ACD"></path>
    <path d="M16.819 12.1942V11.6942H16.319H14.1578H14.0391L16.404 8.28498L16.9485 7.5H15.9931H13.6261H13.3642L13.2151 7.71529L7.58898 15.8373L7.5 15.9658V16.1221V17.5035V18.0035H8H13.6578V20V20.5H14.1578H16.319H16.819V20V18.0035H18H18.5V17.5035V15.7892V15.2892H18H16.819V12.1942ZM13.6578 12.2439V15.2892H11.5454L13.6578 12.2439Z" fill="white" stroke="#2C5ACD"></path>
  </symbol>
  <symbol fill="none" xmlns="http://www.w3.org/2000/svg" viewBox="0 0 28 28" id="medal-5th">
    <path d="M27.0343 13.9998C27.0343 21.1986 21.1986 27.0343 13.9998 27.0343C6.80107 27.0343 0.965332 21.1986 0.965332 13.9998C0.965332 6.80107 6.80107 0.965332 13.9998 0.965332C21.1986 0.965332 27.0343 6.80107 27.0343 13.9998Z" fill="#225FF1"></path>
    <path fill-rule="evenodd" clip-rule="evenodd" d="M28 14C28 21.732 21.732 28 14 28C6.26801 28 0 21.732 0 14C0 6.26801 6.26801 0 14 0C21.732 0 28 6.26801 28 14ZM14 27.0345C21.1987 27.0345 27.0345 21.1987 27.0345 14C27.0345 6.80125 21.1987 0.965517 14 0.965517C6.80125 0.965517 0.965517 6.80125 0.965517 14C0.965517 21.1987 6.80125 27.0345 14 27.0345Z" fill="#2C5ACD"></path>
    <path d="M14.8105 14.7856L14.8105 14.7856L14.8161 14.7904C15.0786 15.0141 15.2368 15.3472 15.2368 15.8689V16.0492C15.2368 16.5232 15.091 16.8879 14.8132 17.18L14.8126 17.1806C14.5809 17.425 14.1725 17.5984 13.4737 17.5984C13.1971 17.5984 12.9268 17.5881 12.6626 17.5678C12.4114 17.538 12.1593 17.4888 11.9061 17.42C11.6721 17.3532 11.4279 17.2566 11.1732 17.1277C10.922 17.0005 10.6599 16.8363 10.3871 16.6323L9.96154 16.3142L9.66983 16.7583L8.58211 18.414L8.3288 18.7996L8.69281 19.083C9.3738 19.6133 10.1126 19.9842 10.9076 20.1884C11.6825 20.3982 12.5452 20.5 13.4912 20.5C14.3323 20.5 15.0795 20.3735 15.7176 20.1013C16.3396 19.8515 16.867 19.5171 17.2849 19.0897C17.707 18.6699 18.0172 18.1878 18.2072 17.6452C18.4008 17.1248 18.5 16.5974 18.5 16.0656V15.8197C18.5 15.2902 18.4075 14.7773 18.2226 14.2836C18.0351 13.7829 17.7526 13.3416 17.3774 12.9642C17.01 12.572 16.5598 12.2676 16.0359 12.0473C15.4958 11.8202 14.8899 11.7131 14.2281 11.7131C13.6663 11.7131 13.1615 11.777 12.7243 11.9174C12.6183 11.9514 12.5148 11.9873 12.4139 12.025L12.4953 10.2377H17.1754H17.6754V9.7377V8V7.5H17.1754H10H9.52864L9.50087 7.97054L9.09736 14.8066L9.06611 15.3361H9.59649H11.1053H11.2964L11.4388 15.2085C11.6795 14.9931 11.9714 14.8 12.3194 14.6321C12.6372 14.4842 13.029 14.4016 13.5088 14.4016C14.1338 14.4016 14.5445 14.5521 14.8105 14.7856Z" fill="white" stroke="#2C5ACD"></path>
  </symbol>
  <symbol fill="none" xmlns="http://www.w3.org/2000/svg" viewBox="0 0 28 28" id="medal-3rd">
    <path d="M27.0343 13.9998C27.0343 21.1986 21.1986 27.0343 13.9998 27.0343C6.80107 27.0343 0.965332 21.1986 0.965332 13.9998C0.965332 6.80107 6.80107 0.965332 13.9998 0.965332C21.1986 0.965332 27.0343 6.80107 27.0343 13.9998Z" fill="#DCA16A"></path>
    <path fill-rule="evenodd" clip-rule="evenodd" d="M28 14C28 21.732 21.732 28 14 28C6.26801 28 0 21.732 0 14C0 6.26801 6.26801 0 14 0C21.732 0 28 6.26801 28 14ZM14 27.0345C21.1987 27.0345 27.0345 21.1987 27.0345 14C27.0345 6.80125 21.1987 0.965517 14 0.965517C6.80125 0.965517 0.965517 6.80125 0.965517 14C0.965517 21.1987 6.80125 27.0345 14 27.0345Z" fill="#C38144"></path>
    <path d="M23.6556 14.0004C23.6556 19.3328 19.3328 23.6556 14.0004 23.6556C8.66798 23.6556 4.34521 19.3328 4.34521 14.0004C4.34521 8.66798 8.66798 4.34521 14.0004 4.34521C19.3328 4.34521 23.6556 8.66798 23.6556 14.0004Z" fill="#DCA16A"></path>
    <path d="M12.695 13.025H13.8338C14.3761 13.025 14.7779 12.8853 15.0391 12.6059C15.3004 12.3265 15.4311 11.9557 15.4311 11.4935C15.4311 11.0464 15.3004 10.6985 15.0391 10.4495C14.7828 10.2006 14.4278 10.0762 13.9743 10.0762C13.5651 10.0762 13.2225 10.193 12.9465 10.4267C12.6704 10.6553 12.5324 10.955 12.5324 11.3258H10.3953C10.3953 10.7467 10.5457 10.2286 10.8464 9.77139C11.152 9.30913 11.576 8.94846 12.1183 8.68939C12.6655 8.43032 13.2669 8.30078 13.9225 8.30078C15.0613 8.30078 15.9536 8.58271 16.5994 9.14657C17.2452 9.70535 17.5681 10.4775 17.5681 11.463C17.5681 11.971 17.4177 12.4383 17.117 12.865C16.8163 13.2917 16.4219 13.6194 15.9339 13.848C16.5402 14.0715 16.9913 14.4067 17.2871 14.8538C17.5878 15.3008 17.7382 15.8291 17.7382 16.4387C17.7382 17.4241 17.3882 18.2141 16.6881 18.8084C15.993 19.4027 15.0712 19.6999 13.9225 19.6999C12.8479 19.6999 11.9679 19.4078 11.2827 18.8236C10.6024 18.2395 10.2622 17.4673 10.2622 16.5072H12.3993C12.3993 16.9238 12.5496 17.2641 12.8503 17.5283C13.156 17.7924 13.5306 17.9245 13.9743 17.9245C14.4821 17.9245 14.8789 17.7874 15.1648 17.513C15.4557 17.2337 15.6011 16.8654 15.6011 16.4082C15.6011 15.3008 15.0096 14.7471 13.8264 14.7471H12.695V13.025Z" fill="white"></path>
    <path fill-rule="evenodd" clip-rule="evenodd" d="M11.4933 12.6259H10.3951C9.69813 12.6259 9.1331 12.0437 9.1331 11.3255C9.1331 10.4996 9.35207 9.72474 9.80152 9.04143L9.80323 9.03883C10.25 8.36318 10.8597 7.85682 11.5872 7.50924L11.5912 7.50736C12.3179 7.1633 13.1012 7 13.9224 7C15.2552 7 16.4712 7.33103 17.4129 8.1522C18.3831 8.9928 18.8299 10.1516 18.8299 11.4626C18.8299 12.2561 18.5889 12.989 18.138 13.6288C18.1088 13.6702 18.079 13.711 18.0486 13.751C18.1479 13.8653 18.2409 13.9871 18.3268 14.1166C18.7894 14.8061 19 15.5988 19 16.4383C19 17.7872 18.4997 18.9539 17.4922 19.8102C16.5151 20.6449 15.2828 21 13.9224 21C12.6176 21 11.4341 20.6404 10.478 19.8253L10.4745 19.8223C9.48975 18.9767 9 17.8299 9 16.5069C9 15.7887 9.56502 15.2065 10.262 15.2065H11.514C11.4615 15.0635 11.4328 14.9086 11.4328 14.7467V13.0247C11.4328 12.8856 11.454 12.7516 11.4933 12.6259ZM13.58 16.0472C13.6324 16.1901 13.6611 16.345 13.6611 16.5069C13.6611 16.5177 13.6615 16.5261 13.6621 16.5321C13.6631 16.5331 13.6642 16.5341 13.6655 16.5353C13.718 16.5795 13.7965 16.6237 13.9741 16.6237C14.1197 16.6237 14.2064 16.6039 14.2513 16.5884C14.2886 16.5754 14.3009 16.5645 14.3041 16.5615M13.58 16.0472H13.8262C14.1399 16.0472 14.2677 16.1027 14.3026 16.122C14.3034 16.124 14.3043 16.1264 14.3053 16.1291C14.3171 16.1623 14.3389 16.2469 14.3389 16.4078C14.3389 16.4933 14.3257 16.5299 14.3229 16.5368C14.3212 16.5411 14.32 16.5432 14.3188 16.545C14.3176 16.5468 14.3133 16.5526 14.3041 16.5615M16.6879 18.8081C17.388 18.2137 17.738 17.4238 17.738 16.4383C17.738 15.8287 17.5876 15.3004 17.2869 14.8534C17.2382 14.7798 17.1853 14.7093 17.1282 14.6417C16.8384 14.299 16.4402 14.0343 15.9337 13.8476C16.3902 13.6338 16.7647 13.3333 17.0573 12.9462C17.0775 12.9194 17.0974 12.8923 17.1168 12.8647C17.4176 12.438 17.5679 11.9706 17.5679 11.4626C17.5679 10.4771 17.245 9.70501 16.5992 9.14623C15.9534 8.58237 15.0611 8.30044 13.9224 8.30044C13.2667 8.30044 12.6653 8.42997 12.1181 8.68904C11.5758 8.94811 11.1518 9.30878 10.8462 9.77104C10.7918 9.85372 10.7424 9.93838 10.6978 10.025C10.496 10.4176 10.3951 10.8511 10.3951 11.3255H12.5322C12.5322 10.9546 12.6702 10.6549 12.9463 10.4263C13.2223 10.1927 13.5649 10.0758 13.9741 10.0758C14.4277 10.0758 14.7826 10.2003 15.0389 10.4492C15.3002 10.6981 15.4309 11.0461 15.4309 11.4931C15.4309 11.9554 15.3002 12.3262 15.0389 12.6056C14.7777 12.885 14.3759 13.0247 13.8336 13.0247H12.6948V14.7467H13.8262C15.0094 14.7467 15.6009 15.3004 15.6009 16.4078C15.6009 16.865 15.4555 17.2333 15.1647 17.5127C14.8787 17.787 14.4819 17.9242 13.9741 17.9242C13.5304 17.9242 13.1558 17.7921 12.8501 17.5279C12.5494 17.2638 12.3991 16.9234 12.3991 16.5069H10.262C10.262 16.9875 10.3472 17.4209 10.5177 17.8073C10.6878 18.1929 10.9427 18.5315 11.2825 18.8233C11.9677 19.4075 12.8477 19.6996 13.9224 19.6996C15.071 19.6996 15.9929 19.4024 16.6879 18.8081ZM13.7337 11.7242C13.7656 11.6223 13.7855 11.5149 13.7919 11.4037C13.8253 11.3896 13.8805 11.3763 13.9741 11.3763C14.0747 11.3763 14.1339 11.3883 14.1626 11.3967C14.1657 11.4171 14.1688 11.4484 14.1688 11.4931C14.1688 11.5984 14.154 11.6531 14.1466 11.6742C14.1449 11.6792 14.1432 11.6832 14.1417 11.6865C14.1406 11.6869 14.1394 11.6873 14.1382 11.6877C14.0978 11.7018 14.0039 11.7242 13.8336 11.7242H13.7337Z" fill="#C28044"></path>
  </symbol>
    <symbol fill="none" xmlns="http://www.w3.org/2000/svg" viewBox="0 0 28 28" id="medal-2nd">
    <path d="M27.0343 13.9998C27.0343 21.1986 21.1986 27.0343 13.9998 27.0343C6.80107 27.0343 0.965332 21.1986 0.965332 13.9998C0.965332 6.80107 6.80107 0.965332 13.9998 0.965332C21.1986 0.965332 27.0343 6.80107 27.0343 13.9998Z" fill="#C7D4D8"></path>
    <path fill-rule="evenodd" clip-rule="evenodd" d="M28 14C28 21.732 21.732 28 14 28C6.26801 28 0 21.732 0 14C0 6.26801 6.26801 0 14 0C21.732 0 28 6.26801 28 14ZM14 27.0345C21.1987 27.0345 27.0345 21.1987 27.0345 14C27.0345 6.80125 21.1987 0.965517 14 0.965517C6.80125 0.965517 0.965517 6.80125 0.965517 14C0.965517 21.1987 6.80125 27.0345 14 27.0345Z" fill="#81A5B0"></path>
    <path d="M23.6556 14.0004C23.6556 19.3328 19.3328 23.6556 14.0004 23.6556C8.66798 23.6556 4.34521 19.3328 4.34521 14.0004C4.34521 8.66798 8.66798 4.34521 14.0004 4.34521C19.3328 4.34521 23.6556 8.66798 23.6556 14.0004Z" fill="#C7D4D8"></path>
    <path d="M17.7535 18.78H10.46V17.3636L13.9021 13.7727C14.3747 13.2672 14.7231 12.826 14.9472 12.4493C15.1762 12.0726 15.2907 11.7149 15.2907 11.3763C15.2907 10.9137 15.1713 10.5513 14.9326 10.289C14.6938 10.0219 14.3528 9.88841 13.9094 9.88841C13.432 9.88841 13.0544 10.0505 12.7767 10.3748C12.5038 10.6944 12.3674 11.1164 12.3674 11.641H10.248C10.248 11.0067 10.4015 10.4273 10.7085 9.90271C11.0203 9.37814 11.4588 8.96801 12.0239 8.67234C12.5891 8.3719 13.2298 8.22168 13.946 8.22168C15.0422 8.22168 15.8924 8.4792 16.4965 8.99424C17.1055 9.50928 17.41 10.2365 17.41 11.176C17.41 11.691 17.2736 12.2156 17.0008 12.7497C16.7279 13.2839 16.2602 13.9062 15.5976 14.6168L13.1786 17.1133H17.7535V18.78Z" fill="white"></path>
    <path fill-rule="evenodd" clip-rule="evenodd" d="M19 18.7792C19 19.4534 18.4416 20 17.7527 20H10.4592C9.77035 20 9.21194 19.4534 9.21194 18.7792V17.3628C9.21194 17.0525 9.33268 16.7538 9.54961 16.5275L12.9863 12.9422C13.4258 12.4715 13.7077 12.1046 13.8686 11.8341L13.8745 11.8243C14.0218 11.5819 14.0426 11.4386 14.0426 11.3755C14.0426 11.245 14.0256 11.1687 14.0133 11.1313C14.0112 11.1249 14.0092 11.1196 14.0074 11.1152C13.9875 11.1119 13.9555 11.1084 13.9086 11.1084C13.8154 11.1084 13.7763 11.1238 13.7684 11.1272C13.7635 11.1293 13.7602 11.1312 13.7566 11.1339C13.7528 11.1367 13.7445 11.1434 13.7323 11.1576C13.6914 11.2058 13.6139 11.3269 13.6139 11.6401C13.6139 12.3144 13.0555 12.861 12.3666 12.861H10.2473C9.55842 12.861 9 12.3144 9 11.6401C9 10.8039 9.20493 10.0136 9.62536 9.29513L9.62958 9.28791C10.0611 8.56194 10.6712 7.99529 11.4316 7.59672C12.1985 7.18984 13.0466 7 13.9452 7C15.2304 7 16.4103 7.30254 17.313 8.07119C18.2481 8.86294 18.6565 9.95682 18.6565 11.1752C18.6565 11.9078 18.4612 12.6183 18.1156 13.2949C17.7698 13.9719 17.2171 14.6893 16.5181 15.4389C16.5127 15.4447 16.5073 15.4504 16.5018 15.456L16.0798 15.8916H17.7527C18.4416 15.8916 19 16.4382 19 17.1124V18.7792ZM13.1778 17.1124L15.5968 14.6159C16.2594 13.9054 16.7272 13.283 17 12.7489C17.2728 12.2148 17.4093 11.6902 17.4093 11.1752C17.4093 10.2357 17.1048 9.50844 16.4957 8.9934C15.8916 8.47836 15.0414 8.22084 13.9452 8.22084C13.229 8.22084 12.5883 8.37106 12.0231 8.6715C11.458 8.96717 11.0195 9.37729 10.7077 9.90187C10.61 10.0688 10.5279 10.2413 10.4613 10.4193C10.3186 10.8007 10.2473 11.2077 10.2473 11.6401H12.3666C12.3666 11.1156 12.503 10.6935 12.7759 10.374C13.0536 10.0497 13.4312 9.88756 13.9086 9.88756C14.352 9.88756 14.6931 10.0211 14.9318 10.2882C15.1705 10.5504 15.2899 10.9129 15.2899 11.3755C15.2899 11.714 15.1754 12.0717 14.9464 12.4485C14.7223 12.8252 14.3739 13.2663 13.9013 13.7718L10.4592 17.3628V18.7792H17.7527V17.1124H13.1778Z" fill="#81A5B0"></path>
  </symbol>
  <symbol fill="none" xmlns="http://www.w3.org/2000/svg" viewBox="0 0 29 29" id="medal-1st">
    <path d="M27.2511 14.2166C27.2511 21.4154 21.4154 27.2511 14.2166 27.2511C7.01787 27.2511 1.18213 21.4154 1.18213 14.2166C1.18213 7.01787 7.01787 1.18213 14.2166 1.18213C21.4154 1.18213 27.2511 7.01787 27.2511 14.2166Z" fill="#FFDD28"></path>
    <path fill-rule="evenodd" clip-rule="evenodd" d="M28.2163 14.2163C28.2163 21.9483 21.9483 28.2163 14.2163 28.2163C6.48432 28.2163 0.216309 21.9483 0.216309 14.2163C0.216309 6.48432 6.48432 0.216309 14.2163 0.216309C21.9483 0.216309 28.2163 6.48432 28.2163 14.2163ZM14.2163 27.2508C21.4151 27.2508 27.2508 21.4151 27.2508 14.2163C27.2508 7.01756 21.4151 1.18183 14.2163 1.18183C7.01756 1.18183 1.18183 7.01756 1.18183 14.2163C1.18183 21.4151 7.01756 27.2508 14.2163 27.2508Z" fill="#E89B05"></path>
    <path d="M23.8714 14.2162C23.8714 19.5486 19.5486 23.8714 14.2162 23.8714C8.8838 23.8714 4.56104 19.5486 4.56104 14.2162C4.56104 8.8838 8.8838 4.56104 14.2162 4.56104C19.5486 4.56104 23.8714 8.8838 23.8714 14.2162Z" fill="#FFDD28"></path>
    <path d="M15.7748 18.7668H13.7007V10.7183L11.2246 11.4913V9.79349L15.5524 8.23291H15.7748V18.7668Z" fill="white"></path>
    <path fill-rule="evenodd" clip-rule="evenodd" d="M17 18.767C17 19.4479 16.4516 20 15.7751 20H13.701C13.0245 20 12.4761 19.4479 12.4761 18.767V12.3918L11.5877 12.6692C11.216 12.7852 10.8116 12.7166 10.4983 12.4841C10.185 12.2517 10 11.8833 10 11.4915V9.79363C10 9.27295 10.3249 8.80839 10.8118 8.63281L15.1396 7.07223C15.2721 7.02443 15.4118 7 15.5526 7H15.7751C16.4516 7 17 7.55206 17 8.23305V18.767ZM13.701 10.7184V18.767H15.7751V8.23305H15.5526L11.2249 9.79363V11.4915L13.701 10.7184Z" fill="#E89B05"></path>
  </symbol>
  <symbol fill="none" xmlns="http://www.w3.org/2000/svg" viewBox="0 0 33 32" id="strength">
    <rect x="1" y="0.5" width="31" height="31" rx="15.5" fill="#67E0E8"></rect>
    <rect x="1" y="0.5" width="31" height="31" rx="15.5" stroke="#53CCD4"></rect>
    <path d="M13.5833 12.4583V15.5833M13.5833 12.4583C13.5833 11.883 13.117 11.4167 12.5417 11.4167C11.9664 11.4167 11.5 11.883 11.5 12.4583V19.75C11.5 22.5114 13.7386 24.75 16.5 24.75C19.2614 24.75 21.5 22.5114 21.5 19.75V14.125C21.5 13.5497 21.0336 13.0833 20.4583 13.0833C20.2238 13.0833 20.0074 13.1608 19.8333 13.2916M13.5833 12.4583V9.125C13.5833 8.5497 14.0497 8.08333 14.625 8.08333C15.2003 8.08333 15.6667 8.5497 15.6667 9.125M15.6667 9.125V13.9167M15.6667 9.125V8.29167C15.6667 7.71637 16.133 7.25 16.7083 7.25C17.2836 7.25 17.75 7.71637 17.75 8.29167V9.95833M17.75 9.95833V13.9167M17.75 9.95833C17.75 9.38304 18.2164 8.91667 18.7917 8.91667C19.367 8.91667 19.8333 9.38304 19.8333 9.95833V13.2916M19.8333 13.2916C19.5803 13.4816 19.4167 13.7842 19.4167 14.125V16.4167C18.3361 16.8433 17.5522 17.8101 17.3725 18.9884" stroke="white" stroke-width="1.5" stroke-linecap="round" stroke-linejoin="round"></path>
  </symbol>
  <symbol fill="none" xmlns="http://www.w3.org/2000/svg" viewBox="0 0 33 32" id="oximeter">
    <rect x="1" y="0.5" width="31" height="31" rx="15.5" fill="#C99CFF"></rect>
    <rect x="1" y="0.5" width="31" height="31" rx="15.5" stroke="#B588EB"></rect>
    <path d="M10.4643 12.6874C15.5714 9.87506 17.4286 14.5625 22.5357 13.1562M11.8571 23H21.1429C22.1685 23 23 22.1605 23 21.125V9.875C23 8.83947 22.1685 8 21.1429 8H11.8571C10.8315 8 10 8.83947 10 9.875V21.125C10 22.1605 10.8315 23 11.8571 23Z" stroke="white" stroke-width="1.5" stroke-linecap="round" stroke-linejoin="round"></path>
    <path d="M14.5753 16C14.8046 16 15.0216 16.0361 15.2266 16.1084C15.4315 16.1793 15.6127 16.2915 15.7702 16.4449C15.929 16.5982 16.0533 16.7985 16.1429 17.0456C16.2339 17.2915 16.28 17.5894 16.2812 17.9392C16.2825 18.2586 16.2422 18.5456 16.1602 18.8004C16.0795 19.0539 15.9636 19.27 15.8125 19.4487C15.6627 19.6274 15.4821 19.7643 15.2708 19.8593C15.0607 19.9531 14.8263 20 14.5676 20C14.2769 20 14.0214 19.9449 13.8011 19.8346C13.5808 19.7243 13.4054 19.576 13.2747 19.3897C13.1441 19.2034 13.0679 18.9962 13.0461 18.7681H14.0989C14.1245 18.8859 14.1808 18.9715 14.2679 19.0247C14.355 19.0767 14.4549 19.1027 14.5676 19.1027C14.793 19.1027 14.9576 19.0063 15.0614 18.8137C15.1664 18.6198 15.2195 18.3612 15.2208 18.038H15.1977C15.1478 18.1572 15.0722 18.2592 14.9711 18.3441C14.8699 18.429 14.7521 18.4943 14.6176 18.5399C14.4831 18.5856 14.3409 18.6084 14.1911 18.6084C13.9542 18.6084 13.7467 18.5558 13.5687 18.4506C13.3906 18.3441 13.2517 18.199 13.1518 18.0152C13.0519 17.8302 13.0013 17.6198 13 17.384C12.9987 17.1077 13.0647 16.8657 13.1979 16.6578C13.3311 16.4499 13.5162 16.2883 13.7531 16.173C13.99 16.0577 14.2641 16 14.5753 16ZM14.583 16.7985C14.4767 16.7985 14.3819 16.8226 14.2987 16.8707C14.2167 16.9189 14.152 16.9842 14.1046 17.0665C14.0585 17.1489 14.0361 17.2421 14.0374 17.346C14.0387 17.4499 14.0624 17.5431 14.1085 17.6255C14.1559 17.7079 14.2199 17.7731 14.3006 17.8213C14.3826 17.8695 14.4767 17.8935 14.583 17.8935C14.6611 17.8935 14.7335 17.8802 14.8001 17.8536C14.8667 17.8257 14.9243 17.7871 14.973 17.7376C15.0229 17.6869 15.0614 17.6286 15.0882 17.5627C15.1164 17.4956 15.1299 17.4233 15.1286 17.346C15.1273 17.2421 15.103 17.1489 15.0556 17.0665C15.0082 16.9842 14.9435 16.9189 14.8616 16.8707C14.7796 16.8226 14.6867 16.7985 14.583 16.7985Z" fill="white"></path>
    <path d="M18.3479 20C18.0302 20 17.7466 19.9512 17.4968 19.8536C17.2484 19.756 17.0524 19.6236 16.909 19.4563C16.7668 19.289 16.6957 19.1001 16.6957 18.8897C16.6957 18.7288 16.7361 18.5817 16.8167 18.4487C16.8987 18.3156 17.0089 18.2053 17.1472 18.1179C17.2855 18.0292 17.4398 17.9721 17.6102 17.9468V17.9164C17.386 17.8783 17.2016 17.7801 17.0569 17.6217C16.9134 17.462 16.8417 17.2738 16.8417 17.057C16.8417 16.853 16.907 16.6717 17.0377 16.5133C17.1683 16.3536 17.347 16.2281 17.5737 16.1369C17.8003 16.0456 18.0584 16 18.3479 16C18.6373 16 18.8954 16.0463 19.1221 16.1388C19.3487 16.23 19.5274 16.3555 19.658 16.5152C19.7887 16.6736 19.854 16.8542 19.854 17.057C19.854 17.275 19.781 17.4632 19.635 17.6217C19.489 17.7801 19.3058 17.8783 19.0856 17.9164V17.9468C19.2546 17.9721 19.4083 18.0292 19.5466 18.1179C19.6849 18.2053 19.7951 18.3156 19.8771 18.4487C19.959 18.5817 20 18.7288 20 18.8897C20 19.1001 19.9283 19.289 19.7848 19.4563C19.6427 19.6236 19.4467 19.756 19.197 19.8536C18.9485 19.9512 18.6655 20 18.3479 20ZM18.3479 19.27C18.449 19.27 18.5387 19.2497 18.6168 19.2091C18.6949 19.1686 18.7564 19.1128 18.8012 19.0418C18.8473 18.9696 18.8704 18.8885 18.8704 18.7985C18.8704 18.7085 18.8473 18.6286 18.8012 18.5589C18.7564 18.4892 18.6949 18.4347 18.6168 18.3954C18.5387 18.3549 18.449 18.3346 18.3479 18.3346C18.248 18.3346 18.1583 18.3549 18.0789 18.3954C18.0008 18.4347 17.9387 18.4892 17.8926 18.5589C17.8477 18.6286 17.8253 18.7085 17.8253 18.7985C17.8253 18.8885 17.8477 18.9689 17.8926 19.0399C17.9387 19.1109 18.0008 19.1673 18.0789 19.2091C18.1583 19.2497 18.248 19.27 18.3479 19.27ZM18.3479 17.6046C18.4375 17.6046 18.5169 17.5862 18.5861 17.5494C18.6552 17.5127 18.7097 17.462 18.7494 17.3973C18.7891 17.3327 18.8089 17.2598 18.8089 17.1787C18.8089 17.0976 18.7891 17.026 18.7494 16.9639C18.7097 16.9005 18.6552 16.8511 18.5861 16.8156C18.5169 16.7788 18.4375 16.7605 18.3479 16.7605C18.2595 16.7605 18.1801 16.7788 18.1096 16.8156C18.0405 16.8511 17.9861 16.9005 17.9464 16.9639C17.9066 17.026 17.8868 17.0976 17.8868 17.1787C17.8868 17.2598 17.9066 17.3327 17.9464 17.3973C17.9861 17.4607 18.0405 17.5114 18.1096 17.5494C18.1801 17.5862 18.2595 17.6046 18.3479 17.6046Z" fill="white"></path>
  </symbol>
  <symbol fill="none" xmlns="http://www.w3.org/2000/svg" viewBox="0 0 33 32" id="autonomic">
    <rect x="1" y="0.5" width="31" height="31" rx="15.5" fill="#64A2F8"></rect>
    <rect x="1" y="0.5" width="31" height="31" rx="15.5" stroke="#508EE4"></rect>
    <path d="M11.9165 12.6665H13.9998L15.6665 15.9998L17.3332 10.9998L18.9998 14.3332H21.0832M8.1665 19.3332H24.8332M11.4998 21.8332H11.5832M14.8332 21.8332H14.9165M11.4998 24.3332H21.4998C23.3408 24.3332 24.8332 22.8408 24.8332 20.9998V10.9998C24.8332 9.15889 23.3408 7.6665 21.4998 7.6665H11.4998C9.65889 7.6665 8.1665 9.15889 8.1665 10.9998V20.9998C8.1665 22.8408 9.65889 24.3332 11.4998 24.3332Z" stroke="white" stroke-width="1.5" stroke-linecap="round" stroke-linejoin="round"></path>
  </symbol>
  <symbol fill="none" xmlns="http://www.w3.org/2000/svg" viewBox="0 0 33 32" id="glucose">
    <rect x="1" y="0.5" width="31" height="31" rx="15.5" fill="#FFAE52"></rect>
    <rect x="1" y="0.5" width="31" height="31" rx="15.5" stroke="#F5A448"></rect>
    <path d="M16.5002 10.0318C15.5077 9.10544 14.7409 8.54639 14.7409 8.54639C14.7409 8.54639 8.5835 13.0354 8.5835 17.6506C8.5835 22.2657 12.102 23.5001 14.7409 23.5001C16.865 23.5001 19.5589 22.7004 20.5292 19.9816M13.8613 20.4214C12.7303 20.4214 11.2224 19.8645 11.2224 17.7825M24.4168 14.3416C24.4168 17.0564 22.4062 17.7825 20.8983 17.7825C19.3904 17.7825 17.3798 17.0564 17.3798 14.3416C17.3798 13.567 17.6662 12.7985 18.0756 12.0957C19.1011 10.335 20.8983 8.9862 20.8983 8.9862C20.8983 8.9862 24.4168 11.6268 24.4168 14.3416Z" stroke="white" stroke-width="1.5" stroke-linecap="round" stroke-linejoin="round"></path>
  </symbol>
  <symbol fill="none" xmlns="http://www.w3.org/2000/svg" viewBox="0 0 33 32" id="pressure">
    <rect x="1" y="0.5" width="31" height="31" rx="15.5" fill="#FF8CE0"></rect>
    <rect x="1" y="0.5" width="31" height="31" rx="15.5" stroke="#EB78CC"></rect>
    <path d="M24.4552 15.6403C24.6966 14.9447 24.8332 14.2275 24.8332 13.4998C24.8332 10.9685 22.7811 8.9165 20.2498 8.9165C18.6997 8.9165 17.3293 9.68605 16.4998 10.8639C15.6704 9.68605 14.3 8.9165 12.7498 8.9165C10.2185 8.9165 8.1665 10.9685 8.1665 13.4998C8.1665 18.0832 13.5832 22.2498 16.4998 23.2191C17.2204 22.9796 18.0935 22.545 18.9998 21.9572M16.0832 16.4165H18.1665L19.8332 19.7498L21.4998 14.7498L23.1665 18.0832H25.2498" stroke="white" stroke-width="1.5" stroke-linecap="round" stroke-linejoin="round"></path>
  </symbol>
  <symbol fill="none" xmlns="http://www.w3.org/2000/svg" viewBox="0 0 32 32" id="member">
    <rect x="0.5" y="0.5" width="31" height="31" rx="15.5" fill="#225FF1"></rect>
    <rect x="0.5" y="0.5" width="31" height="31" rx="15.5" stroke="#005BC7"></rect>
    <path d="M16 5.5C13.2421 5.5 11 7.74447 11 10.5053C11 13.2134 13.1158 15.4052 15.8737 15.5C15.9579 15.4895 16.0421 15.4895 16.1053 15.5C16.1263 15.5 16.1368 15.5 16.1579 15.5C16.1684 15.5 16.1684 15.5 16.1789 15.5C18.8737 15.4052 20.9895 13.2134 21 10.5053C21 7.74447 18.7579 5.5 16 5.5Z" fill="white"></path>
    <path d="M21.7727 19.0455C18.6023 17.2348 13.4318 17.2348 10.2386 19.0455C8.79545 19.873 8 20.9925 8 22.1899C8 23.3873 8.79545 24.4971 10.2273 25.3149C11.8182 26.23 13.9091 26.6875 16 26.6875C18.0909 26.6875 20.1818 26.23 21.7727 25.3149C23.2045 24.4874 24 23.3776 24 22.1705C23.9886 20.9731 23.2045 19.8633 21.7727 19.0455Z" fill="white"></path>
  </symbol>
  <symbol fill="none" xmlns="http://www.w3.org/2000/svg" viewBox="0 0 32 32" id="home">
    <rect x="0.5" y="0.5" width="31" height="31" rx="15.5" fill="#225FF1"></rect>
    <rect x="0.5" y="0.5" width="31" height="31" rx="15.5" stroke="#005BC7"></rect>
    <path d="M24.3813 14.875L22.75 13.2449V9.25C22.75 8.63125 22.2437 8.125 21.625 8.125H20.5C19.8813 8.125 19.375 8.63125 19.375 9.25V9.87212L17.125 7.62437C16.8179 7.33413 16.5366 7 16 7C15.4634 7 15.1821 7.33413 14.875 7.62437L7.61875 14.875C7.26775 15.2406 7 15.5072 7 16C7 16.6334 7.486 17.125 8.125 17.125H9.25V23.875C9.25 24.4937 9.75625 25 10.375 25H12.625C13.2463 25 13.75 24.4963 13.75 23.875V19.375C13.75 18.7563 14.2562 18.25 14.875 18.25H17.125C17.7437 18.25 18.25 18.7563 18.25 19.375V23.875C18.25 24.4963 18.1912 25 18.8125 25H21.625C22.2437 25 22.75 24.4937 22.75 23.875V17.125H23.875C24.514 17.125 25 16.6334 25 16C25 15.5072 24.7323 15.2406 24.3813 14.875Z" fill="white"></path>
  </symbol>
  <symbol fill="none" xmlns="http://www.w3.org/2000/svg" viewBox="0 0 24 24" id="alarm">
    <rect x="0.5" y="0.5" width="23" height="23" rx="11.5" fill="#F53C2B"></rect>
    <rect x="0.5" y="0.5" width="23" height="23" rx="11.5" stroke="#E12817"></rect>
    <path d="M7 17.0005H17" stroke="white" stroke-width="1.2" stroke-linecap="round" stroke-linejoin="round"></path>
    <path d="M12 9C9.79111 9 8 11.015 8 13.5V17H16V13.5C16 11.015 14.2089 9 12 9Z" stroke="white" stroke-width="1.2" stroke-linecap="round" stroke-linejoin="round"></path>
    <path d="M12 6V6.5" stroke="white" stroke-width="1.2" stroke-linecap="round" stroke-linejoin="round"></path>
    <path d="M8.00049 7.00098L8.50049 7.50098" stroke="white" stroke-width="1.2" stroke-linecap="round" stroke-linejoin="round"></path>
    <path d="M16.0005 7.00098L15.5005 7.50098" stroke="white" stroke-width="1.2" stroke-linecap="round" stroke-linejoin="round"></path>
  </symbol>
</svg>